<mxfile host="app.diagrams.net" modified="2023-12-11T19:48:05.271Z" agent="Mozilla/5.0 (Macintosh; Intel Mac OS X 10.15; rv:120.0) Gecko/20100101 Firefox/120.0" etag="2qqtTIL5WyO76mebZrsD" version="22.1.7" type="github" pages="2">
  <diagram name="Page-1" id="Eysf_M7CjskcnqPYS7eI">
    <mxGraphModel dx="581" dy="547" grid="1" gridSize="10" guides="1" tooltips="1" connect="1" arrows="1" fold="1" page="1" pageScale="1" pageWidth="850" pageHeight="1100" math="0" shadow="0">
      <root>
        <mxCell id="0" />
        <mxCell id="1" parent="0" />
        <mxCell id="LsWn8GA2UwA5rAKpBynm-3" value="&lt;div&gt;&lt;b&gt;SQL-Library&lt;/b&gt;&lt;/div&gt;" style="swimlane;fontStyle=0;childLayout=stackLayout;horizontal=1;startSize=30;horizontalStack=0;resizeParent=1;resizeParentMax=0;resizeLast=0;collapsible=1;marginBottom=0;whiteSpace=wrap;html=1;" vertex="1" parent="1">
          <mxGeometry x="220" y="480" width="120" height="90" as="geometry" />
        </mxCell>
        <mxCell id="LsWn8GA2UwA5rAKpBynm-4" value="- sqlservr.exe" style="text;strokeColor=none;fillColor=none;align=left;verticalAlign=middle;spacingLeft=4;spacingRight=4;overflow=hidden;points=[[0,0.5],[1,0.5]];portConstraint=eastwest;rotatable=0;whiteSpace=wrap;html=1;" vertex="1" parent="LsWn8GA2UwA5rAKpBynm-3">
          <mxGeometry y="30" width="120" height="30" as="geometry" />
        </mxCell>
        <mxCell id="LsWn8GA2UwA5rAKpBynm-5" value="&amp;nbsp;&amp;nbsp; library database" style="text;strokeColor=none;fillColor=none;align=left;verticalAlign=middle;spacingLeft=4;spacingRight=4;overflow=hidden;points=[[0,0.5],[1,0.5]];portConstraint=eastwest;rotatable=0;whiteSpace=wrap;html=1;" vertex="1" parent="LsWn8GA2UwA5rAKpBynm-3">
          <mxGeometry y="60" width="120" height="30" as="geometry" />
        </mxCell>
        <mxCell id="LsWn8GA2UwA5rAKpBynm-7" value="&lt;div&gt;&lt;b&gt;DAB-Library&lt;/b&gt;&lt;/div&gt;" style="swimlane;fontStyle=0;childLayout=stackLayout;horizontal=1;startSize=30;horizontalStack=0;resizeParent=1;resizeParentMax=0;resizeLast=0;collapsible=1;marginBottom=0;whiteSpace=wrap;html=1;" vertex="1" parent="1">
          <mxGeometry x="425" y="480" width="120" height="90" as="geometry" />
        </mxCell>
        <mxCell id="LsWn8GA2UwA5rAKpBynm-8" value="- dotnet DAB dll" style="text;strokeColor=none;fillColor=none;align=left;verticalAlign=middle;spacingLeft=4;spacingRight=4;overflow=hidden;points=[[0,0.5],[1,0.5]];portConstraint=eastwest;rotatable=0;whiteSpace=wrap;html=1;" vertex="1" parent="LsWn8GA2UwA5rAKpBynm-7">
          <mxGeometry y="30" width="120" height="30" as="geometry" />
        </mxCell>
        <mxCell id="LsWn8GA2UwA5rAKpBynm-9" value="&amp;nbsp;&amp;nbsp; REST / GraphQL" style="text;strokeColor=none;fillColor=none;align=left;verticalAlign=middle;spacingLeft=4;spacingRight=4;overflow=hidden;points=[[0,0.5],[1,0.5]];portConstraint=eastwest;rotatable=0;whiteSpace=wrap;html=1;" vertex="1" parent="LsWn8GA2UwA5rAKpBynm-7">
          <mxGeometry y="60" width="120" height="30" as="geometry" />
        </mxCell>
        <mxCell id="LsWn8GA2UwA5rAKpBynm-10" value="" style="image;aspect=fixed;html=1;points=[];align=center;fontSize=12;image=img/lib/azure2/databases/SQL_Database.svg;" vertex="1" parent="1">
          <mxGeometry x="200" y="450" width="37.5" height="50" as="geometry" />
        </mxCell>
        <mxCell id="LsWn8GA2UwA5rAKpBynm-11" value="" style="shape=image;verticalLabelPosition=bottom;labelBackgroundColor=default;verticalAlign=top;aspect=fixed;imageAspect=0;image=data:image/png,iVBORw0KGgoAAAANSUhEUgAAAVAAAAFQCAYAAADp6CbZAAAAAXNSR0IArs4c6QAAAARnQU1BAACxjwv8YQUAAAAJcEhZcwAACxMAAAsTAQCanBgAAP+lSURBVHhe7L0FeBxXuq09555z73/unZnYkhrFLFnMzGDLtmyL0ZIsM8RJzJTEYWZwEjuGGMKcTDgTZgaHwXaMwclMMuGsf327qrqrWy3bGThnzkx9etZT1VXVVaXu3m+tb+9du35lhRVWWGGFFVZYYYUVVlhhhRVWWGGFFVZYYYUVVlhhhRVWWGGFFVZYYYUVVlhhhRVWWGGFFVZYYYUVVlhhhRVWWGGFFVZYYYUVVlhhhRVWWGGFFVZYYYUVVlhhhRVWWGGFFVZYYYUVVlhhhRVWWGGFFVZYYYUVVlhhhRVWWGGFFVZYYYUVVlhhhRVWWGGFFVZYYYUVVlhhhRVWWGGFFVZYYYUVVlhhhRVWWGGFFVZYYYUVVvy9498qK3/1H7m5v/rfnDf0f3SZl4n+g/p36n9RVlhhhRX/OgHg3+qbZzsmti1JamycWZyX3T8xPaVnQVrqpEvc7pKrfjsi5ZoRwWnX/nZk8vXUDfr0+hEjk68bOTJ1W4gj78rQ0IrzU1Obji0pnzK9uqJvXF1lR1F9fUfa5Mlz44uLmx3XX79awGuFFVZY8c8R11/f/n/Gtc4oySjsXB6f3Pa70PCxHwTbqj8fGVLxVVBI5fchtkqE2Cthc1bCHlpDVesyzburYXNVyTY/211VP9jt5d/agov/ZAsu+MIdWrwnPr72zfiEsXdnZTSfVZTfOtDaOjf1ITwkjtUKK6yw4n9mtNVPjsnJa1kdEd3wrs1R9VOwrYKwLIfNUa6mwTZOKZu9gssoASWBqYnApOxuEeHqroDdJSqH3VkGu6OU7ynl+0uoIoSEFMPO+VBX5deRYXUvJWU0X9HYMWXC0eevHqmfjhVWWGHFP35Iul45emZDTNzYp2zOih+Vu3QSkE6BZZmSg2B0h9ciLLIe4dFjEBHbgPD48YiIG4eIeENjEc7lYTGj4Y6qhzOcbpQAFXDa7AQnZbMVe2S3cyogNWDqrv48I6t9a1NTdxl+9at/00/PCiussOIfNwqr500MjxnzhnKLbopTBx2kO7IOMaMmITm3G+lF/cgomYKM0inILB9EZoVoOrLKZyC7wtBMNZVlGeXTue1UpPF98v74jHbEpjYjkpB1ikN1EKYhhUoOOlIHYarE5XHxtS91dEwZ8ytYELXCCiv+gaOhcWFZeEzDGw6CU2R3lSGcDnJUbheyK6cjp3oGcimZZleZVD0NOVWzkFszh5qLPKV5yKsVHYn8OtF85NcfpVRQPx8Fo49C4Zij1bZphf2IS21CRHSdgqbdRpA6iuGk7PYiREdVP9vcOCVHP00rrLDCin+smDNnTVD8qEnX2F2lCp6i6MRxdJFTCcGZGjirCFEq20+yLLd6theeCpx+8NQBWmBo9DEEqGgBisctVMqvPxJZZdMQkzQeDqcAtAhOZyFV/HNq0qS1q2eu/n/66VphhRVW/ONE3bjZfWGR1V8KQMV5hkZWM02fjNyqaQqi2UzTsys5rRS3aUCTqplBaM4kLOcSkvM0YNJhigxYFo4+2qMiQlOpYQG1EEVjNRWPW6RU2rgEJeMXISW/By5XCeHJlJ5yuyt31VdNK9VP1worrLDiHyNWr75lZHpG23UOgtPhFgfK1D22DnHpExGXZhJfJ2Q2ISm7Bck5rRiV146UvA6kcppW0I7Ugg5OO5Be1I2M4l5klk5GZkkf5ycjo6hXE+ezSvvpNKcgS6BMOOdUTCOopXqAIK6ZRQjPUTCOSWwgPAvgdAlES76JjR13lH7KVlhhhRV/n5CWdOp/Uf979YIFwQ1N8+Pq63uyMjNrq0aMCGv5z1+Hdop+fURUT3RC1UBGVuuZLnfFlw5J3yknIRoaVY2I+DqqHpEyjZP5OkQm1CEqaTSik0cjJnmMUuyo0YhNqlSK0aeaqgjBKkQnVCA6vpKSKRVXjqi4MkTGlmqKKUUUFR1ThujYcqqM68sREVUKl5tpvAJoEcIjax/Nz2g9qiCruz89vak7J39ic2PTYFlf+7LIhx7a+J/6/2w1NllhhRUHj7YFRf939uzZjjkL50Q0jZszqqJidnlxWVd3Zmrjkpyc1nOTkiatjQwffX1YWM3d4eH1T0ZG1L0SFl79oc1e8EWIPe+rEFveVzZ7/jd0dt9TPztcxYSnV3bKGUqYhhFi4boiSuAm1MJiCLfYSkQRilEJBGRiNUFZblKFNk0gDONFBKMhgjOK0IyKLSE4i3UVITLaVxHRxQiLKCZAC3k+GkAdDuVEf6K+c4WWfh0eUfVFbNyY96IiRj8SEV55U2pa49qyst6TaxpmTm6dOLdw7qKzo5rrJzsaGxutulMrrPhXDbqqfz/33NXBk8YdnVVTMW1CTk7v3IRRTZfGxIx5OCpq7FtOR9Vem73yU7u94o+2kLLv7PZyOCi7rRS2kFLYQ6TPZQmXUQ66TJFTl4vLnISmSEBF2Z2Fugpgd+Rzms/1lCuP6X0eoZoHF+UWhecjNCKfwCvQFFNAV1lEQBYrSHqnVJwuHZ4RIgVLP0WJ2yxCaDjdpwKonIuclwBUO1e7SLXSl6iO+dJBX3PPFT863dV/sjsqPg4Lq343PmH8Y2mjOtemxk84JjuvpbWhoa9sxowZblh3O1lhxT9nFLW1/d+uaac6J7bOzs7JGZyTktJyWXTM+DujIse/6g6t+8xmr/jRZiMgpVO7Q5PMe6VDM7gYIUGFugqofCqPykVIsFk5VDZCQkRZujI1BWd45m32TEKYcmYxrc6iO6RCs+EO5TQsg0DNRGhYFsGXhbDwbIRH5BKEojyER+URjgLZQgJSVMBlokJ9ms/tdBHKboLa7siBzZFLFcBGeNoEmvZCXgz4WqkIIXYul0740peUFwR1p5N0+udnYtztFMyLiExdoRV/DI+qeT8qqu7BhKTxV2ZnT14wrv7oivHj+8NWr7ZcqhVW/I+NK65oH1HZMLsoJad1IC6peU1E5KRnHc7afQ57NdNs6WxeSVBoztLhKIeTgHCKkxRYEg4hwUUIDi5E8MhCBBGW4jjdEfWIiJ+AmJQWxGd1IjFvMpKLBpFSNhNpVXORUTsfmbVHIaPmSKRXzkJK6VQkF/YhIa8b8bkdiMtqRWxGM2LTJiEmtRHRo8YiKrEOkXFVCI8uRWhkIR1oDl0fAWtLULKJQhJ4Tkk8t2SeazKczlFUClyuVF1pSk6RU5TK7QylE3S5iOBx4vM6kV49GwWTVqKk4wSUtB2P/PGLkV4xE8m5vYhLa+U5TUJkwniExYyBI1TuzZfbQ7U7nUL42XilLQsWV24jZOWi4yz7zuGs+iQyqv7ljMymdUUF3f29zXPyrzzzyt/qX4sVVljxjxoz22eOaO7oyMkpmLI4KlbqK+vepbP8lmk4AURnqcNSpJwlwWAnKG0EpUrH6bTcYTWITm7DqJK5yG5YjsK201A9fS0al9yCtpN/j66znkLv+c+h/+IXMeWy1zB4xZuYvuE9zLpqB+Zs3YW5W3dz+hFmbdqB6evfx5S1b6P/sjfQf+nr6Lv4FUy+8EX1/p5zn+a+nkTX6Y+h45Tfo231PWg97g40rbgJ4xZtQ2X/uSjvOhml7atR3HIsiptXoLhpKYonLaEWUYv5WlMR54u4vIjri5qWoah5JYrbjkVJ10monnoBxi+8Bu0nPYDec55Cz9mPovuM+9F92t3oPvV36D75DnSecCtaV96A5kVbMPHojRg/by0aZlyCmr6zeJyVyKyYjcSsboRGjVZuVIEzpAhBcoHhVABrI1TFtar0X9yruiCVfRMTXf9mQvzY63Jzu5eP65pbuPro1SOthikrrPgHCWD1/xoYGEjOyu+Ynpo06VaXq3KX3Vb+vZ1ppo1pt0DSQTnplJws+HJveEiw1EWWIZJuMjFnMrJGL0H1lIsxcdnN6D7naUxd9x5mbPoIMzfvweyt+zD76v2Yc80BzLn6gHo9a+tezNyyh+u5zVW7qJ2YuYnauMNXssykGaKNuzgVyXt3E7y7Od2jpko8pux7lizbxNfcTonvE83cKMfhlPvwlSzXNGODNp3FZbOu+gizuU91HC6bvu5DDK55AwMXPI/JhGnXKfeg8/hb0HHcTeg87mZ0rOJ01Y3oXCm6AR0rrkf7smvQumQbJh11JUYPnIOyplXIIlTj09vVffsOVzlBKjAtVOm/ANQDUnH0nHc6K74PDa/+KD279c7CwslHNTfPy5nf0PD/6V+jFVZY8V8Z9ZMn/7pjfHNmVkbL6ti4umeYen8j9ZQCS4etmMAshkMKdFA+XWaBcpgswExV++jqTqcru4Hu70kMECaztuwlHD/G7G0HOE9AbiYgBWSEmEBuhtJHugwAGkCk0xRt+NCr9R9iGiVTbf4DpekeGeu8r7XtTes27NBA6COC0pCCqZ/UNnyfsQ+zrjTEc5Xpem06ePk7GLjoJfSc8RABeqsCZsfy66hrNS27lgCllsr8NWpZ54rr0MVtWhdchQmz1qCu9wwUjV2MUfmT1a2qdqfUkcqoUAJUaawSoPJ7EbDye3C5Kr6LiBq9PT11/GUTm2dPPHX+CrtcCPWv1gorrPh7xamnzrdXjxnsSExt3hYeXv2h01H6g7hMcZcilwyaEUKHGZSHSLnvPH8ApW2nonHhteg99zmC4wPMFmASlrO37tdgSac3UxwhpZyhaV6TAU1/eNLRKXjqANVhJTD0SoOnWV5wapp2pabphvT9zCDkBIiHKwGnIWMfXnB6Nc0sHmMa3yvzg5e/jb4LX0DvGQ+ja/WdOkx1iC4lPKn2pVcrdShdo0Daxe06ZTu61Jaj16N+8hkobFiApOxOhEfXEqaFlLh+U6s/vyenq/Rnt7vi88TkxocK81uWV5XNKp252rq91Aor/uaxbNkVI+obpjenpYy/MTys4g/iMgWWmorgDM6HMyQPbmcRErM6UdN3ATpP/j2mrX0Hc5l6z9m2X4Fz1mY9bTZAaXJwKr32SAPk8CKwPO5TA6gvOHUpUHkhqSTQVDK2MdbpkOMyA6CavGD0EY+p5LfcH5iGPNAcTnyvAHXqlTsJ03fRf8EL6Dn5PuU4DWBqMgA6VF10qV2Eac8qwnfJVjTOuBClE5ZhVF4P3BFVdKQ6TDmVAU6k65RyqY6SH0PDaz9ISW5e096wquyuu+6y0nsrrPhrY8mSJb8dXTnYmBjXdIPbVfm5y15KYJbAzYIXSrls+XA5ChCXPAEFDUvRvOwWTF/7LuYol0loKmB+pDRTpgY46SSVzPBkCnxQ+YPTA08/gPqAyYCjn4xt1fbGchPwuNwfjIfScK7T93wOrqkeCUipte9j4MIX0XPiXeikE+1UoBweop1c10mIKhGk3SuvR7c4VK5rmrcW5U2rkJDZrm5vDeEFT0aHEmcqUiC1l9CV1uzKyuq6uGJMWzEwU54BZYUVVvzSGBhYnZWS1Lwm3F11QOo23Y4SBU033YsrOI/zhUgr6Me4uRvQf+6zmMt0fO6WfZgtjTGE5CwC0l/+4DQaXcTpqXrBQNIhOcMkLzhFhA/BNRSe/tIg6SO+Z+q6D5S8IJVUPjAkDXlgaRbf44WmsS+/48ky07G8wDRpna+mCUiveI+f8TPoOf52DZIGLD3yf63LgKnStXSnN6Bt4RbUTT4TaSWDcIZWEKT5dKX5sPH7FIUolyp3TlW9lZ7ZemLf9OWJVsu9FVYcZlyy+pLfVFVN60yMGfei0176szjOUAOedC0RYWXIKp+JVrrNWevexzw6TQVOQnO2CZa+4NxpAifndWnukhAMBE6zhkDTkAavXw5QfZ7vCQRQWSf7DQhPWaevDwxPY/++Mo5zeNIByn2JVF3p+p10pASpdIc6jiAlFCVlDwhOk7yp/zVoXyJ1qJLmM8UndMfNuBiZlbMQFlOPYH63IfYCD0jFkdocxT+ERY5+vjine+5R045y6j8RK6ywwj/EZcyefWxSXnbHhRGhVQfcBjidAs58zhcgq3Q6WpffijkE4pFXH6Dr3IM5TM0FnB54EoyGzLBUIvRUg4tIwdEMnf8G8fgGtDTQedeZoSia4Zk3NTjxtT8oDfkC8ReK+1XgNEt9XtJwtgvT1r6L/jMfY4p+AyGq1336wFQcqTe1V+AcIkJ12XVKjbMvR97oo9Wwf0FyN5efI7U7i/+YlDLxuv6ORRVYvdq6bdQKK8yxbGbdiPqa6dPiY8e+EOoq/THUWYIwgjPUVkDlISWrE5MWXYfZdHzzr/mYjlMD5xwdnLMJx0OB04CmN133A0RABYaTpkDb/0INAah332Z4emWG598BoNyfWb7nKy5U/+wI0el071MveQ29J95FRykA1UDqD8+OAPBsWyy6RpMHpNcTpJcho3ImnOGVCBJHKredCkSVigjY2vfyC9tP6Ok5Jlb/6Vhhxb92dHTMyE9LHL0pOqzqC3GcYS6KhcVNF5Kc2Y4xU9dg+iWvY/7VH2MewTn3qt2E5y4FT3GisykFTRMgvdLTXtEQIJilgycQVAKJ7xkKGE0HW6dkBvdhAFTb1n99YE0Vmc/zF8l77sOePz9TBVF+1gJQaXybduX7GDj3afQeezO6CdFuHaIB4UlwijSA+oF08bV8D1N7grRh2kUE6Sw4wyoQZKMjNUBKN2pzlPwQFTvu/qrygdbbb59pdXuy4l8zNm8++9cTx0+ZGh9d+3qYs/RncZzhhGeoPR8x0bWo6TkX0y/djiO37seRW/ZhHh3nXN11CjgNeIr7NPpBeuoEzWLBPzg8RSYIBYSLSQpUB4OMnw6xzNiv+Rx89qekn5su32191/mc6y/SIeBpiOfsrRtmSk9N27ALUy9/C32n3o/uFUY6/8sBKmpffB06l92oYDp2+hqkFk+FI1Tuu8/T0nppZJIWe1f5J9kZEy6YPGFuvP6TssKKf41obGy01Zb2HBsbXvFpmEPASTmLEEa3MSq1Ca3Lb1PgnLeZjnMTwUlozhVoEpYigaamHXSfOjxZuA8XlIEBcpjifgJKYKhDcYi4fshrfZkvFGW5MdV0SDAebN3hSh3De8xDSv0fOkQpzZkSptxP/9mPoWfldSql96n/DAhPQ2aIXsftpB+p1K/eSBDfiJruMxCbMglBMtKV1I/qEA2hGw2LbLh7dPXkEqul3op/iXDH5kYmxjVsjHCWfx3OVD2C4Ax3FnBaiKIxCzHl/BcIz306OH3hKcA0S+Ap7tNwmkMLuxdKAcHxS6WDZogEhAeTaVsfkKp12n6HnrMmY73SsOc0nPh+1aLut0ymAd5vPu4hpc7fgKdX8l1MueA51cDUsXSbDlBOF4sOB6IE6BKRBlEF0hW3oOWYLciqnKv6kAaHCES1ofeCQ0rgCqt7raJ6Ss8771xodcC34p836ssnx8RFj74m1F7yQzh//AJQcZ2RoaWoG7gQswjDeUzXFTR1tzmHy2brmrXhQ7WNyJO2ByrcHgkUTLAYTiaIeBRwucDHKwUR6QeqRIBQUzkvUssEkIbkPbK9n4x9+77mvOk4Sodzzkp+7/sFGvr5Habk3M1TpvUyYEnnCgHgVh2e2whHQwcDqJbGC0DbBaB0oKLOZTer1L6m90xEJU1EUEgB3aik9MWclsDhqtqbktm8rG3atGD952aFFf88MX3e8sT0+Am3hNlLfgxjCiYKDclBcvJ4NC26AXOu0hqINMepA5RA0uBJcLJwimZSnsYhcyH2SIPmYYHTkAc+BxMhw2MaUo5LQXMnpvFcPVJ1giJjPaXcmbxnqIz9e5fxtUzleD7i8oOc86BnntvKfpUI9EPJdIyhn+VfJu0cdmDKRS+igxBtX6xB1AtQs/wh6gdQE0RF4kabj96C/NGLYHdXqXFbZbxWGfkpxF7+VVJy65V56eOtVnor/nliWtvq+KzEltvCbEU/h9I5hNny4R6ZicyiAfSf+STmScpuNBAJOJV0eBIEPuBk4Qxc3/kXgFPkAU8gCQj8xHOaKoDkuWr6iOAUcV6mapkOUyXCU2QG6hCHKgA1IMrjGsvl+LoEkIM8XzX1SJabJJ3deQ6+2sXz3YVBXTLvlUDUewzfz3N4mc/LV76fnVw45FZQDaJbCEcB5lZ9ejgA1SCqOVGTG11+M7pX3oLa3nMQmUA3KhC1C0TLBKI/RoSNu3lcxZxR+s/PCiv+58ZRs09NS4kdf3toSNFPAs9QwjM0KAcFdceofoTz5L51FnLVsu6Bp0hP21nABZ4GQDV4CijNhdoET5E/JA8m4z2GzABT0pzatE27MX3LPsy85mPMvvZTzL7mE8y6+gBm8bVo5tb9mEYXrYBqlgKrGaiUGaTqGAY8qQ2m4/N/E2mANIGT5+0FJ/ezkefGY0+VLkWXvYGBS15H/yWvYmDN6xi44l1M5XlM33oA0zbvw6ABVR2scjFQ/5+I+zsceYFpyPT5+Yv7nXLxq+g69hbdiQpAzRA1A1TkbY2XxiQzSM0QVW6UEG06ehNG5Q0gRD2rqhTyDCu7veKnqOiW+2prF+UDv7Ial6z4nxmDg4tSMhIn3e+mQ1DwDMmDa0QGihqWYPradzBH7iRSsPQFp6Tuc/zTdhZULzyHKiAcDyV5n0cEgQEukbgzQnPa5r2YzvMcuPRVtJ14NxqP2Yr6qRejqvt0VHWdirr+czB2zpVoXnUnt9mOmYTsjC0aTAVcZpBO5//nlQ5RHkuDqHFc07xIh5QBzCnrNCkXTHAOrnsXzcfdiaq+M5BfNwuZhZ1Iy21BanYL0vI7kVUxHYUTVqBuxuVoPfFBTJHPiyCdyvMbVCA1oG4CO487RDz2IQE6zOcrcJaBnLuPu40puTjRABBdpEt3odKYZJaCqQmoZoi2c/usinlM54vVI0Yc9grYHVWIiB7/ZG3j0cX6z9EKK/7nROeUhRFZ6ZOuY9r+k7qjKIRpe1A2CkcvwrTL31aDfhjdkRQ0zWIhlnpPs/OcwYJo3IHzNwco969AwOkgNV3AyfPrvehljD/6KuRVz0Z80mhEhJfAbcuGc2QqnL9NppKoUbwopKnGsNi40ShoWIxJy27DAP/H6VsJKsJTOUCPCFKRB6IaoDzAVADVU2tDPDcFT12Smgusx8xei9S8dkREyJB+qXAEpcAelEalwz5SF8/NMTINLlsWtytHck43aqZcgskXvKQuDAryyiXrEpAajlRJB6iIx/5LAKp9xoTopa+hZxVdpAeihOciQ/4AHQpRTTpIdTfauewmVS/asewGZNccQ4DKE1QrCNFKOGxViIyY9PC4cSuz9J+lFVb848fgivn2vLyOtWH2wh/C1O2YBXCNzKBDYtp++VvaiEksqJ4uSQqYhrzO01vnab598a+Ep2zvIwGA1GvuINA0sHWe8Sgqek5FUvp4hNoz4A5JpzIJzxy47TlclsspJa9DcuDihcHJ/89JWNl/Q7iOzEZqwRRMWnqL5j4J0mlXEZ6GdIBK3ajZcQq8B5nCD+oAldee5TxPgafsr+XYO5Be2ANXSBqcPDeXPQsuRy6cjjwqH057PpeZRedPOXmuzqAspbiUJoyZt5n7263cqEBZ3eeuIGoG6OFAVP8sD/F5y74GznsGXUu3oXMJAbpIFAigOkQXiQhNs3SQetJ6AtSAqEzzxyxhOi/PvCJA7VVUNeKim+7r6ZluQdSKf/y44oqZ/7u8tHt5pLPs6zCb1touzjOncg4dyHaoZ/0QnkZ3JDM4jQajQGl7QHCKAhXaQ0m9l1Di/ODa96h3MeWKt9Cy+h4UjFuI6LgqOjZCkwp1ZFMCzmw6vEzYCMqQkZl0fLkEWD5sI7IR8psM2I7I4noBFEHG/9f+23SEO4pR2LgKky9+VblRDaKEJ2U0NAm4FSg5nUqwTr1KGoL0OkqRWq9vw+3HHbMZ0dHlynG6eG4CTpHDJo9YzkLwCFG2V4S5nefqsAlYC5QEqg6eo8tZrB5xMsDPQKoqPI1hKp33d6JDQXpYABUZ6/VtJ5/6ACG6hU7UgGcAgCp4muULUSOdV6m8QHS57kRX3Iy8+iV0opVeiDqqfk5KnnR3X9/yRP1naoUV/5gxZszA+FhXxa5QBc8ihI7MQkZeLwaYMgo8Z7IgGpolEsdpcp0GPKVDtuZ2hoLTUMDCejDJe6jBK95B34Uvo+fcZzH57KfQddJ9KJ64DOERpXDa0ghLuk4HXR2njmCmwUyJo6PLUFDWjYb2BeidfxbmnbABR52yBT1HnY+qSQuRUdCNUFcZgn+TTZjSkRKkLsLLeUQmkjI6COd7MXPbfgKSKb1AdDNhumU3ZhCsM7bsIcDf4Pk8hc4zH0H7aY+g84zH0HXO0wq+Ak/ZpmnlrYiKrlCu002oO5iWhwRnIohQjyJUS2r6Mab1GIzvXobxnUtRP+kYlFRPRXLKBDV4cdDIXPUce3sI3SiB6gjhfHAOsusXon/NGzynvQra0z0glXkDqEMh6gWoDtFAn7m/uK08PqTn+FvRxVS+3QNQM0gFoIeGqErnjW5OBKi0zneqdJ4QHb2UTrTCBNGan1OTJ2+btXJBmP5TtcKKf6yoru6viI8Z/Vy4o5Dui2JBTRk1Cb2EgT88jfpNJRYqcZtmBYQnC+BhD/jho/e1Qr6W4Dz/eXSf/jC6TnkAvac9hJZlNyC1uI+FLIOOLAtul7i6LEImHVGRRaiu78fyU9fjqrtexJ0v7MYDb3+Oh3d8jcd3f4vHd32L+9/7E254+WOse/h9HL/pYUyadhoSksbTmRJwhJWMYeqkY42ObSAA76QT3YsZ2/bRWb5PSD6C+mmXIqdqHpLT25AQPx5xcWMRHT8aUXGjERNfj7hR45GS34fi5tWIT51A8GXy/HLoLNMRGV6A6upOnHT6Gtz7+Et48f39eHHXp3hh56d4dseneOq9T/D71/fgpsfewFlX3onOqauRmjmJMC3ESHGmAlG5x5wXuayqIzFw8Wuqnnbwsjd5wXsW/ec9jf7zn8OUSwhxunStbpaSz3KIAn3uftK3kZ4DAxe9jG55SJ3UhQ4B6GFA1JzKS32o3D+/XAcpXag40Vw6UbtN0vgqOu9q/q/V345K6Dl35rIzRug/WSus+MeIwcH5KSlJ4x8R1ynwDKW7iY8dg84TH4A8pncGC40ZkL4pOsWCJY/dnSbSgTmkAP5FIjw5HbjkNfSc9nt0nXgPuk++H72E6MSFWxGXPgk2wtLpJDhdOSxwBCmnrd0LsGbbfXh4+wG8vPsbfPDZD/jkq5/wx29+wp+//QF//kbT19/8iC+//gH7vvweL+39M2589TOcdfOLmNB7nHrAnSMoT6X6Ui8am9CIToH2CXcjp2Y+IkMrFGBlhH0Z81R6K7hDClnQs5WcdJhOmYbwNZ2mzKvl9iy0t83Ebbfdj48//QN++Bn4kfrhJ+oH4Nvvf8bX3/6EL3mun379I/Z++QPe//RbvLTzS9zy6BtYcdom5BR1YSQBH8JjGxAtaFyFKWtex+TTH0Dfibdj8upb1ChLPatuQs/qOzD5zEcx5dLtBKFAdIeql/1FANUlVSfynv6zHlV1oe2B6kIFngFTeV06QDWIGiC9Ee1M5xVEV+rpPJ2oLURzoU7KZa/9qqhg6pLrr7/+/+g/XSus+O+NSQMDI/OyWi6PcJT8rAYFcRQg3FmIMXM2aI8Fpmsxw9MDThYkw1X6K1DB++UiPNe+TxdF13nCXehe/TvCk86T8Bx/5AZEJ41jCktIOXOUJB0elVqP1WetxxNv7MHre77C+wf+jM//+AO+++4nwuknfP89xfnvOP3WEF9/+/2PnP6I/X/4RrnUDY/uQu+cc1hgi9VD71y2AoIwH7GJExARVa8tUw/FE8mz60tgCypE8IhcBI1I5zRTSeo17bYcbpNHV5yDmKhinHn6xfj4k89BZuJ70lPO5TtC0yv9nHR9Q5gK6L/46gee33d478DXuOux7egcWMU0t4CAKVBpfWh4BcbN34DOE25Dx3E3ovO4m9B93M3oXX07QXoLelbeyNe3ovfMxzHlincVQH0hqsv8HQhYDZmWD/JCOcjvppffS+eiLYSiH0CHrQvVZQKokgeiNxCidKIrNIi2c5pRNpf/X4UCqNNRhciIhl2FeXM69Z+vFVb890Z5ecuUiNDKzwWeKnUnPCu7TleNJGrsSLpNw2karbh/e1h6pRqHCM8pV7yDyWc9hq7jb0fXcXeg+8R76UIfwrh5G5gi1xOedHXSAGPPhY3OrqCsA+uvvwdv7fkCOw58hU/+8K0GTgJJgVOBylc+EKW+I0i/+NO3ePDNT3EVITqhYyVsR+QSnoWEJN1lcAEdaRFkxH15FLMtuAgjj5A6yRKkZzShtmEmJnUcg8bWBagbNw/FFQNISBzDlD0LEWGFuPyyzfj22+/xAy2n77mYAfozz4kSeJpknOOfRVz/wZ7PMXPeyfzfCwlROb8ChIaWISqmFjE8ZnJmM7LKpqG8eRUmHrkW3asIUEqeHd9F8EmH/WFTeuP7GBaglKTyl76O7hXXmVJ5P4B6WuMFmqapjzSAatPr0baMKT3BKQ6069hb0Uo3Oyq7nxAtVwAVRYU3bh9bNzNP/wlbYcV/T8yfvzo8NanxUTUsHQEq97fnVs8lGN/TxooUeJoByoLz94SnSOA5ePk7yml20jl1shB1Hn8nek75PcbOXY/IhDEEVxbByfRVwTMPE9qOxI13P473dn+G/Z99ha+YlhvQ/J6wEflDyhdgBkh/JHR/xIEvvsXdr3+KC294DglxY2EPEgdaREhpjlMezWzjsvS08Zg3/yRsu/5ePPPyO3hn5wG8seMAXnlvH57b/hEeeuZdbLnpSUyZcQIWLzoVn3/+R+0YnuMGOi9NGkQ1kCqpc9SXyzzT/R17P8fgjOMRTLCrZ+s7CHanLrsGVWmtj44bg+zKmRg7/UJCiqATLb8Bky94wVs3qhQApkr8bvxAqlwoIdp31uPo0kds8t6RZABUh+gvkbhRQrR9OVN6AemqW9A4h997dCMcdKIuAtTlqEZGWs+6+fO3HKH/lK2w4r8+ygr7Fka6yr5TY3rKI4Zja9F52qNaS64fPM0ANQPvbynlbK54TzUQday8mWnczeggQLtP+B0a529CVEKDCZ75sFONLfNw76MvYPfHf8AXf/yGDs8LTbMCQUpJpdE6lHRYiRN9n6nyzc/vR8eUUxAiLpMAddiK6HwL1bOejj7qJLzy2lv45vsf8MNPPIa4yh8EbNo+lePl6z8x/d617w848MmXPLcfKAOg+vEPITNAvcv1ZYToBx99irbOhXShcn7FqsXeIVULzlK4XZS7DG7OuwjVyOha5JTPwDiCtGXhVWhm+t19zlMwbgk9XIh6b0ndoaoD5ImfXdI3NCBAfylE6USXak5UINomICVEK9pOVeB02isVRMNcY/5QXjp9mv5TtsKK/9qoKptcGBdZ+1qEwNPF9J1Qqu07FzNkQA0WGJEHnLoCQe8Xy1QQzZICKfWeUkfXvkLch+ZApPA0MS1MzGwnJLLhIOid8pgIWy7qx03FLfc8Tif2Gf741XcKLocNTpEOOx+I6nCSesenPvgSx55/KyJCq+hCmSoTnvLYknPPWosv//QVofkj0+vvub1Wh6qkQOerH37UGoikSkFbph//r5AcR6X23O/zL72DouIehATLI4Vr4A6t5GdVQmdK1+wQiFYgLKwS4eFUaDkSkhtR0bQSE+evxcQFm9ArTnSDdHnSATosREU6QJXoQtfvRN/5z6Fr6dXoXGIANBBEzQoEzmtUut4q83ShrYSoR4RpC5elF83kBaxMAVTqRJPimx6vru6M03/SVljxXxOrV6/+f3mZ7eu0EeWZujMVTivsQ/8lrzN19wLUR/4g/EulA9Ms5Waoyec8rcDZuoyFhimmSFK4vNFym5/crVOgABoSnIPqusm4+a6H8faHe/DlV9+qBhklwuWw4Cni9uIYlWvkazNABXZ7v/wO5297GLFM40NGFCCYTnTp4tPw1ddf81g/4BtxlCZwGhJIeqsQfB3xkHP4KyTpvDQyffs9sGb9rVh04nqe7+9x4qW3YtrC81DZMAfR8XTtdjpQd7kCaGREFSLCKtQ0v3Yuxs2+CJOWXqPqnFXnf8OFHsKJegAqLvTK99EjD6hTqfzhQnSofADqgeh1aNEhOm7OOkTHTYLTpqfy9tofSvI6VwK/+l/6T9sKK/7+MaZu9sTo8KoDYdJw5CxEZFipGlBjhtxHzkKh6e9U16kXQJ+CuO5DVR/XtvImtCyTAnMdmqlWOtC6KecjNFI6U9N58lyDgnJQUtKG3933KHbt/YRO8Jsh8AwEG7M8dYkGQM3LREbdI53jxuseJHhqMPI3uRg7ehAffvgR96HB0+wytX3r8DTOZxj5nI+8Nsu87jAk5/oN9fquz/DIW/vwkOjNfXhw+17c9vTbuPz6RzBn6YXILeqhEy2nExV4ViOSMI0gRLMrpqNh9oVoO+ke3YVqd1gJQD0d7z3wHCoFUb6n/8IX0b3sWkLUPHJ9YFB6xW0EmswwPOLy1iXX6tJAKu5TJOl8ZefpcLtqCc9KutBqxISPfbmvdWG2/tO2woq/b/T1LQ9JS5p4k9R7hhFIMsBGSfPx6s6Vvzs8RSZ4agD9EP2XbkfbsbcSnNcocIqkk/zEozchPqMNdrmN0VlMF5qP1NQxuO7GO/H5l1qDzA+EjgdOAQDjLx9Q8j0BAarrO6bHp52xAUf8JgepyWPx6MPP4McfpWvR99xXoMYgP4D+aAia9OWe7WU+kDz7O7QEoN/Rgb5GgD60fTd+L3pdn76xBw+/tV8B9abHtmPGMecgLrEBoaGaA42MYEpPoOZUz8K4uRdj8kUveW5BNQB6UDeqr1O3q/J1zwniQuWBdDocDyUCU+QP0DYPQDWIGgAVJyoX14ySWXCElGsu1Fb1U25G6wULFrT9X/0nboUVf7+oruifGBNR9UmowNORh5j40Wg/5WFM37hbKxR0g55n8fyt5QdPBdC176HzxLtZMK4lOHWx4EhhyW9YCCdB73CVqAeRxcZVY8PGa/HpF18QHD+o7kACUA9EAwDGLA8cua2PzOt0Ccj+8Mdv0NJ6DI74dSbOPvMKfPut1LP+wGP5ukzfY/gDVIenR9q+1fYyDSTT/g5X0n3rybf34qm39yk9+dZePEKAPkiY3v/6R3jwzT2477WPcOIF1yMxeTzCCNGIcEnnJa2vRlHD0Whafh2BuMPjQuX2Tw9ADyoCVFwos4gufn+dBOjwz0+idHAOgeeibQQop3y/Jg2iLUoaRKVap37KhQh116kGJVFkaN3unpYjS/WfuBVW/H2ifnL9r7NGNW4MdRQh1FWgRiQqaTlBT91ZWAxn8feAaAB4SsHrOfsJQvNqHZ7XoImFpZlpfMPMNQiPric8S5WCQwpw/PHn4c9/lvpHOk+B5y8AqA8gua3P6yH6Sd0d9Nr2D+jQKjG6th+fHPiMxxGH+aMXkLrM0FN1oMa6gACFd3vjvf7S9/VL9OdvfsSfvv5BdeESffmn77D/86/x7t4v8MIHHzO934MH3vgID7y5G8edtxUJCWMQ5haIag1Lsfysy9uPR/d5z2mDSwtAlRP1TeeHwlMk2+yEdEHrWX2nakw6+EPodB0SoGaIep2o1JEnZfXpLlRrlc9M6bz0+utXW3coWfH3i4kNU7OjQqt2hDoLEEr3GRFVjq4zntC7LbHAEJ6e+q5AEPxrFACeA2uYuq+6mY5TAMr0nQWmiZI0Lbt2Pt1nCZzyJEdbEWpre7Fz10f48SdxeNKy7QWoB2QBwGIoMCgpvs+YNwPsJwDbrr4D2VkTcM9dj+BnAlUdl+uHgFuXdhxTSi/LhwPowWS8/zBl1P16LiBSf/vtj6pL17ff/IA/ffUdPv7ia7rUz/HoO3tx96s7sPiktYiOqiU8CVFeJCJcZUhJb8G4ZTdCDUYtA5HIsH2H5UR10G7Yhb5zn0Ynv8sOgvCQADVEeGowNQFU1YX6QtRI59tW3IiKtpO9AHVWIia84c3WiVbneiv+jpGV0bQizFH4Q6gzn+4zC9nVc5Sr0DrN+wFUIBcIhH+phgD0Q3Sf+qAHngJOkXKfsy5DZOJ4ONylsNN9RsVU4aab7sLP/PuO7tMMMn+ABZI/KD2SZSaZISag2737E+zZ8zHBpEObyz3gDgBR7VjSKq7Na/vR9uUPUP/j+ch4/2HKB56GFEQFoD/iGwXTH/DNN99j/xdf4cn39+Ge13Zh1oKzEe6mA6Ui6Eaj6URLmlein78FNTC1aTQnw4kGlhegU654G93H3aKGuzssgAo89akAVM0fBKDSKi+NSROO2ojYpBY4bGUKoE5nzfejUlsX6z91K6z428aWCy88YlRc3Q2hjkK4nTJIbxZGz1qHmZKuCTxZEIYAVBQIhr9UZnCKeDy5DbB1+fU+8Gxi4ZFW+OJJqwjPcjhZoINshejrX4gvvviCsNLgaYamAtdBoOMDS/Nrs/R9GIBT/TYJvp/oOml4PaDUwKmt0wCqzXvOg/syH9MDRG6jpL82gD2s9P2Y5fP/Blg/nFRvgu8EolrPAYHoR5/+EY+8vQc3PPYa6hpm87dQSidKiDrLkJYxCR0XPI+pm/dDBmo2O9GhENWWab8ffT23n3za7+lCtxGiOhyHldz+KdDUpoYDlRZ6BVAfiIoIUQEoU3jpI1wwejEBKrd4VsJBxcdOur+9fbFL/8lbYcXfLipKJlbHR1TscjtkcIxsxCWPRfeZTxKgdBqqAHgB+jeHqBmesl8er+vUBzT3qeB5tYKnQHTSgs2Iz2gnQMsURN3h5bj1lrvx44/SbUgacPxgchCgeAAp4nY+r00ywKbB0ZABTLPM603ie81g8+xb36+/fGBplv4ez3kZ4jL1//JYh/qfh0oAqkHUAOnXhOjrdNf3vbEL56y/HXExoxHmKkc4FRNWjsa5l2PK5r0Y9KTyXidqhqUxb14mAJ1y0cvoWsY0nt/r8C5UB6dJHgdKqVR+CEQ1J6oBlC507jpERo8jPCvoQCWVr/tDecn80fpP3gor/naRl9W8ONRR8GMo3aczJAPZNfMwg4XCP30PCFBRIDAersz74bGk21LryhsVNCcpbcMkFh4BaPXkM+GKqIIjtALB9mLU1vdh/779TFGHtn4rmASEhhdCPuL2/ssUnA4Gx8MRnaj5XDz7l+MdjszvMckArvpfTcfz/O8i2e5g0rfRqha8IP34y6/x4PaduP35dzFu0jFwiwtlGh/uKEHF6LmYfP5zGJQH2G3SngTqgagOy4ASwNKtyvijvTLo8tKrVV3oocBpaChATRA1w3QpIUonKo9cziydBXkYnQBURq9PTOw4+/rrf/Xv+s/eCiv++qitbQpJTRr3oNuer7ouyYjoY+dtovvcq/3wrxT91wBU+gz2nPkYWlhgxIEKOEUTF21FMwtMRsVsOFx0n0zfgx1FuOCCDfjpR+lzOUz67g8MBYtDiO8zJPvwgeFfIknlZV/c95Djm44VUP7b61L/C9er/zPAMQ/2/yvJOrO4TAOoBtGvv/kBz6u60J048YJrCM8qOlABaBly8rrQefQV6L/sLQzyN+J9eJ2vCw0oQlbure87/ffoFoBSvi50KDgNBQZoIIhKKn8tOngRru05C3Y6UAcBKk/zdIePfmDjxo0j9Z++FVb89dHYcmRyhFtP3+05iIqtxuTzXtQe+SA/ej94evWBkhmAHvmBcQg0DZm34T6nrH0PHcfdjmZxnALPhVs1cX78vLWITW2BTbot0Qklp47F00+9CAnpQmROpz0A0eFgKBCMhsh4n+zDBCVy+rDkAZmqA/XO0ySrfXrAaMwPJ//zMsl8foEAasj4HHw+jwDy7luDqDQy7TjwJe59bReuuusZ5BKabnsZQgnQlNRmtE8/A13Lr8UUAaL+4DpvKn8IkHLbATrYHhm1XgA6JJUfCk9Rq0caODWQ+sNTByjVvvwGTJi3DlFx8tgTgWg1XO66DxISxpfrP30rrPjro7Z6cGaoo+TPAlBncCZy64/BdP7Qh0vfh4WmoUCgPJT4Pnk+UP8lrzH9uka5TQGojCwvEjdaw/TdHVELu7scI0IKMXrsVBzY/6nWkOOXZnuAIbDxwOHwJEBR7z9E6h4InqJA2xowlf164GjM+0s/j28CyFjnryHH06UAq4PbK3ltSFvmsz8F0J/x6R++wUNvfIQ7n38f7b3HwhVShjACNCGxEU1TzkDHrPPRc+oDBOg+9QRQ3wfX+UHTLG4zeNkb6F11kweggYBpyANO/h6MhiRfBYaopPEyn1o4FbaQcgVQu6Pmm7DI6pn6T98KK/66oHn798SE8Ruk87zbnqcakMbM3ai1vqvUXeQLUAOUBkiHADUQIA9HLFwy2lIrC5ThPicu3KIkAC1tOhZ2Z7kC6BHBBZg+6zimxT/qADXkdaA+8FSpqUnG8gASoBgA1SDqL/Pxfpmktd3neAIvf+nrAgHUq5985A97w5kKPH8xQClpXPrDV9/j8bf24J5Xd2DBcWuZwlfTgZYjNnYsxvedgc65F6PjyMvUg/ymSXUPIaqejy8gNZyoPzwFrFw+df0HmHzCHVo9qDjQQ0BUpMFT5g8CTwVQzYGKZPDl4sZVKn0XgDqcNUhK6jhDfvd6EbDCir88mpr6EmMjqp9xyaNxg3MQkzAWXac/gZniKALA01caPH0AGgiMhykZcan7xLtZCMzpuwbQpkVbkV09DzZHqQJokL0Ip591pZa+e+DhhZwCoMBBwUCg4A9QA6LmeQMeGlSMffjL223JC6xDSoFM26/nWDI/nLg+MDi98uyH5+85Xx7LR+q4ZoCa4WnIvC9N8hl8SYDK7Z93v7IDp15yE6IjRyPMXq6mo7tPQ8fRV6J91oXo5Xc2bbPmQqV/6AyBqD7wyBAnqgNUXGj/GQ+he5leD3q4AKUOCdDFXoDKuKENMy5FaEQD4SkQrUVcQst92dkTQ/UiYIUVf3kUFbU1R4eWf6EAGpSFzIpZapAQaYE3AOq9dXMoOIcAVGSC4mGL6fuUy95Ex7G3sABsQzOB2aQDVNS0YDNG5fVpAHWVcVqCKzffpp4d5AsrX4gaADXkDwqz/LcNKIGULm/fT0P6ORBKZhnbq0YkTj3HlPnDkbH9YUidH8/BgKcZkr7Q9JX/cWR7eaDek2/vwd0vf4jzN96F+JixCqCRYbWo6TgZbQuuQuu8y9FxzJWYsmY7phOi0+Uhg5S4UE8V0BCAUht3Ysr5z6JnmdSD6l2aZCR8P2ia5Q9QY9SmwBClFES1ND4+vUtzoa4auMLG7KmtnWqN0GTFXxdkz7/lZbStcIcU/iwAdYXkon7aGsySgjAMQKWhJ5AD9YFoIEAOJ8/7dmDg4pfRsfx6/vh1gFIKoJxOPHo9YpKb6CDKFEDd4RW49d4n8KNP+i7yAk3SWgUOAYIuMyQ8sPhLJKDS5XGkBJFX3teaC/S+13NsLjtsmd83nLidGaCBQKkk6wzpy3yOo/YDfE4H+uibu3EPAXrRlnuQEDseobZyRLirUd12AtoWbUHL/PWE6Bp1d5GM2DVjEwEqTpQOU/2GAjpQSrozXfoaeuSZSWaAHgSiZoBqOhyA0oUuvwF5oxfDZq+Ew13D30/tdwXFU6bqxcAKK/6yWN63PCQlZvy98mhegWd4WCm6T39cpe+qD6j84H0g6gs9f5B6YGgG5KFkvGf9TvWc8o5l8uPfhhZCU4PoFjQv3orxc69ABB2QyyWNAWWIT2rA/Y+/gj/9+XsNoizwSiaAioYDqGeZgoUu8/JfIONWyYDifg153mMcj/KAi+fqkXm5WXzvsOJ6bZ+BAemReZ1pm2890vYl0N/7+dd44NUPce8rH+CSbfcSoGMRSgca5qpCZctqAnQrWo7eiNaj1lFXYOCil5QD1epBDYCaXSh/KwZECdCpa99G77E3aZ3qVRq/LbALFWjq8AwE0OFBSoBS8gylur7zCM865UBFKelt6694fub/1ouCFVb88ujqmpkXbivbr55tHpSNjOJBzOIPexYLwAy6CdUSryCqgdIXegY8DRnL9W0OR5738P3y6Idzn6YT0QpNC6FpuNBmvh4z/SKERdYToBVMxcqQX9SJ+59+DXs//VJr+WaB/0sBquBmyLzubyAzTNUy87FEco6UDM6sSeZ1cX1AcT9mcBpTbX9D4TgsOA1xvT9AZZ/bd32K+17+APe/Qge6+S7ERY+BWznQGtS0n6J9T0dv0iA6fy26V99OgOruk78jM0C1O5Pke9YBKsuvfF9rSBKAUqo706EAqpb9MoDKM5QmzFuP6KQWlcbbCdCwiLFPLDznHJteFKyw4pdHVXHbotCQou8FoI4jMlE3cBHmbtuPWSwEMzcxHeOPfIb82A1IetJ4s/s0pMMwECgDyQNP7ksVLAL0nKd8AGq40BYWrPr+cxEWXque5yMArawZwEMvvIHXP9wL6fjtbdTxwjNQCi8y4GNALKBL/BvJ34WqYxiS8/PIAKhJ3Eb0jUkewAWQtk8/OA4j2b/PawOg+nl/8dV3eFyGtyNAH3xtB866/GZEhdeprkyR4fUYPfkcBa2WBZvRcsxVaD16Pdr5nQ1e8ZbmQA14yu9HB6hxf7wnjed3P/mkuxRAOw8ToF54DgWoJg2aZskjQJoXbkNS3qBK4wWgoeENO8uq5lTqRcEKK35ZrN648T9jIxuuJUDhCspFZFglOk56APOu/hizCVBxoTMVQI1U3h+YZplS+ECwDCR9e88+WKD6zn7SA9BWP4DWTT5LBygdhL0U1bUDeOSlt/D0mx9i/2d/1Ptf+sLTA1CRDgYfcbmCGt87BG6BtqcMwByO/OEpkFfzcl5+GgJPEbcVmQF6MIiq8+b7Dibz/j3L/dyntPC/tfszPPTqDjxI9/nImx9hxSlXMn2vhDO4FFFRYzF22sX8nq4mQLdoEJUGpQUb+R0+rgCq3ZWkuU8vQP31AXpPvpcAvVoDqJ7GDwGo6DAA6u88zZI0XtWDigN1Vsv028T05nl6cbDCil8W7e3TsxIia15zyTPDR2QjJacX0y57C3O37sPszQToVQQoUzEDoAeH6C8HqM/76UymE6CTWfjU88MFmkpb6BxYQLlMABouAHXL84/KUFzWrQD6FAH66vu71a2H0h/UAKcBrYPBUNaJaxWAatNDv+8vAainkYn79xyH8gLUF2we8T3+8DwYQH0UaH+6fI7nB09Zt++LP+OJN3fjYTpP0UOv70DvwHGwjSiGM6gEcYlNmDR/g4JYK51d68Kt1BYC9Cp0rrqZ3+n7qpuS4T6HA6h8732nPoCupeJACTlOVXemg7hQLziHAtR4gudwAK3sOA0Od62CaLC9ClGxEy++68K7/j+9SFhhxeFHYWH7lEhn+Z9dIQXKgVZ2nol513yMOZv3KIDO1gEqLvSwARoAlAGlttffq9J3ShzoWQQowdmqw7OFhdIAaH3/OQRoHdwytqOjHCmpjaoO9Nm3d+DpNz7E27sO4KtvvldOVIOgTMVdEQoif7ip9T/ja1JEHJiW/h8eRA9HZvdpAPRH7nsoQHUHyOkQ8T1/MUCH26dZso2S9z2ffPktnn1nDx7dvguPvL4Tj72xC7c98hKKiyYToCUKoKk5/YTddfyeCFDdGSp3KFq4Gf3nPY1p4kJ1gAaCp5J852c85AFohwCUalMQFUCKBJq6DgFQAeVwAJURmsbOuhzuyLEIIUBF0TENL9VVtCToRcIKKw4vGhsb/19ORuvlruBCuIPzEeYoRedJv2f6fgCzt/gBlKmY1INqEPV9DryhgJAcTmZ4ikwAnXzOkwqgqnuMDk8NoFuZMl6EiIgxaoRxGd8xIqIa1/3uUTz/zkd45i0Noq99sBcff/GVApgXiAYUBZi6vge+/Pp7vLfvC7zw3l58RmiYu0MZgFMQNUHxcOQBpz71uE9KA6hXCqJc7gEYj+0LuMAAFXmh56sh2wzZZyBp2+3/w5/x3Lt78Nh2DZyPcvrk27txxda7EeWugTOkVAG0cPQidK64iZATOAm4jH6ZFL+/ruNu075nXnwDgtMQ1/ef/Ri6l1+LruXXoUO5UGqJOFEdpMZ+hwDUDE5v2h6wDnTxddyX1h80JqUTIfYK2JxM5d11X9bXd1rD21nxy2L06M6IpJhxTN8L6T7zkJzRSaf5IdP3vZijA9RI4Q2AzuAPXgFUYGcGIBUQlMMpEEBlKoXpvGf0FN4XoFIPOmHeWkTHTvAA1GErwannbsSL7+9RAFUQfZPTt3fi9Z37sfuzP+KLr77Fn5jaf/VnTV/86Tvs+fRPeGPXJ9xuNyGxEw8zPX1nz2f4wQegugiWQJAcTgqaIr7PH56+APUex3DIvrCTeW2ZGYj+Uu/xk/965XCN/QaAp6z78/c/4SN+Lk+//REe52fyOOEp0gD6EWYdeTpsRxTBJaO7U3WTz0XH8hs1KHkApoOO0JO6THmAnNwbHxCchvidD/Ci2b3iOgL0ei9AVSo/DEDVCPW+ANWkwXM4Byr9QTuW34DsmqMRbCtXAA12VP00KrXtRBYJ67nxVhx+VFb2lYWGlH/uDimE84hsVLSfTnjuJzgFnhThqRqRCE9fgGoQ9QEgFRCUw8j/vR5JYbrwRdWh2gCoIdWd6ZhNSMrohlNGGLdXInhkEbr7ljHd3MU0fhcBulPpaeopgvQpAvVZwvQlOsxXPthH0O7F03SrAogn3tT05FsfcboLL7y/D19/J6M5+UFUACQyQfJg0sAp79Pe661OMMBplhyD75P96/LAU+ZNMkPRLP/tDJnXewBqQJPnqZZz/hv+z5/+8Ru8uftTfmaEpkiHpxJf3/30duRmt8MRVAxncAkiI+ox6ciNaF9mAFQApUFUgUzcIzOGnpPv90BSewxyAG3YhQFeNHtWXI+uFTcQoNcRniINpLIvD0AJT09VgQeaZg0PT7WO5yoAre4+k+l7JUII0BBnNVP60Xc9+eQC65HHVhx2/FthZseJocElP7qCCtToOi2rfoe5kr5L6q67z1mbNPepAdQ3jfeHXyBQDif/93rE/U+55FXlRASg0ihhhqi0yudWHwWHpJGOCoRIXVxqI264+3ECUFwoASogNelp6kkuf9IDTHlt1kdKAtb9f/hapfEe9ynSQRgIloFkwFLeJ/AU9/vG7s/w7r4vAgJUpr4A1SXzJpmhaYbj4cgLUH0Zz1O6KH24/wt1YXlGd51yIRGZAfr0u3tx8tmb4bbxMw+RBqRCpGR2o2URgbX0Bh+AekAmAOVFsJNAnHL5W5oL9YeozFNy59KU855D78obCFBxoISngiiB5w9Qyh+gXnDrkFTnMlQGQKUhacLc9YhImIRgpvECUYe79q2Gmv4MvWxYYcXBY/mcOUHx4aPvcgcV0X3mIimtEwMXv0pw7lWuUzlPEzy1rkwaPAOCLwAkD6aA+xBx/4OXvYnulTehQweoGaKS1tV2nw63q1p7zo29nBAtwrwFZ+L5d3fTiWoAfZYwFD1DCRgFok+JCEyRgNOYf4rwkLRV1r+951NCTHOhQwAq8oNlIBmd+QVSez77E56n631IUmJCWqoT5ImhKp33QJSwpXwg+jeWAVBj39/wxZu7PsZj23cocIrLNOBphuhTb+/GvU+9geqqKUzf5U61YsgFt3jsUrQvl/pPXugIJQNaBjw1gF6jRprvO0dvTNq4C1P5W/KA1AAolw+c/6wO0BsJ0OsVQDV4ijRQDgtQgtwMUH9wmqX2t5TnzPm0kpkEaBlsrirYw6q/Ss1qmaYXDyusOHhUFvXUxbhqPnLRTTiPyEFhwwrMYto+Uwen2Xka/UCHA2ggQB5K/vswa6o8N/z4O9C5mMDUG5NalbaqutGmozYgIbUD9uBSOAhQG91ofHwDNt/0AGG1m9D0AtQDUQVJcaPGvABTn5f1SrvxHCH80adf4s/Mo1V9qLhRAZAhP1jKMiNdV9D89ifVMLXz4y/xIp2dgOkRAuoxmW7fyTT5E24rHf79Bn42QdQffocj4/z8l8sQd2q9GaBcJt29Xt2xX8HzSRM0PfDU9fQ7e7BgyXnKdbpCqOACxMaMRuPcdUMA6pEHoNeqqpgufpcCTQ2glAKoSXSnBweo7NcLUTNADfdpADQQNM1S50pJ3W1p02rYnJVKIc4KxMROOBsPPfQfehGxworhIzN50jHu4OKf3HQT7uBCjJ1zFeZs3U9gmsBJGeD0pu7/BQDlMfpOfwjdS7YRohpANcn8VnW/dNnEY2GnAxWAioJHFqNu9Azc9tBzeOGDPXj2XcLTkA7Rg4rbPf/hfjxH6D1LiG6nO9v1yZf45Ms/qxRcOpVLfaHW2Vy6Pf2EP0qDFNPgT7/8Bvs//0qN3L5dGqYI4kcJJiVCSOAprdkC0qe478//9OchLfEKogI6AdxfIH+AGvMKoDx3cdIGQGWMz8/+8DUee/W9IeA09Did+TNM3c9bcwNiw6u8AA3KRcn4pehYeYuevgcAqJIB0atVSi7ZzbRNewNDlADtP/cZ9DLd9wKUkidrKuAJ+AyAiuP0A6g4UOVCdVAuMiTL9WU+0tL40VMuhCuiHiFSFURFxY6+v6GyOVwvIlZYETja2kYHpyfU3+IaKX0/8xAZWoXuM5/Sbt00A9QETy9AAwAvACAPKv8WeD8JQAcufAk9y65BFyHasYTgVCDVRRfaTBcan9Ku3KcAVGBq5/zo8bNx84PP4IUP9w6B6HAgFWDKNudedi3ue2Y7npc6QS4TPffeHrzAFPyl9/fhFQL2lQ8PKGcpzwl6loB59t093Mdu5WYff0ucpqTqhBDTdcPFKYDqEoi+v//zgzpQMwh9RBAOEZcb7/Fxyro8Y4QSngqiPK7U8d56+/24cMONeOa9vao64wkRz0+J/8ezXH7OJdciMaYeDv5OpKHRNTIXKRntqu6zfdlNBNwhAGqI31nPaQ9jqowtKyIwvSCV6UdM858MCFAFUQVSgai23+EAKsf1BaguY7lJss9JR12F8PhGwpNpPB2ozVW+r7BsYqFeTKywInBMbFuUEuGs2OVmOuYakYvU3AEC8kMtfTcA6gdPDaDDAC8QJA+mQwH0yh0YvEJ7YmP30q3oJESlRVdL5zWJC63tOhVuGZYspIwQrVB1otKoVFU3Ddfe+She2rmfMBTISd3o8AAV9/nih/vQ2bcY3b2LVcv983z9LOEpEpBKii+QFGmNTnrjE18/ocTXIh2eZoCaJYB9jnCSOkgBphmeZoAq+PkrEEApY3ut4UqTZx9+AJUH7n395+8w/+hjsfXOh/A0/zfjf5H/7TleLKTO9sIrbkBSdC0cI/IJzyLCMw9R7nKMGTgfnStvJdhupLvUGpBU/0qBkkme1Fo62S9kJrHqNl4Y+f3qI9arRiUDogLQs54gQG8c6kDNIkC1fWoA9RxDyQRIf4B6JO/1btu+9Hok5UzW6kHpQEeGlHyXWTZhsl5MrLAicDRUzRgIDS75sys4H87fZqGy8yy9/lPgGQCgeur+NwGogufBASoSF9rPQtVDUHYRogqgfhBtZ1pf1LAETkeV3qBUoWQLLkF6ZhNOOWcTHn7hbby84wCeFxD6g1OkHOpuOtZ9uPqOh5GWPBqLV56vwPvc+xpAfUHqlQFUD1gNHQSghj79kmm86nN6cIgOkT88dXngKfvQ52V7BVBZrwBK9/nzz3j55e2YPnc5Hn39A/V/yP/24s4DvOAcwP104EcvPhtxUTW68yyGXGjD7UWobDoWHStuJuA099ku7lPBUxQAoApYUmepdT+SwZbViPXymBhCVByp4Ur7z3rcBFDpyiQA5f490gHKVL5F36cZntoxdRGW4pJbFsq2xnlo8x5xu/blNyKn9mgE20oIUF58bWVISmtcu3p1+//Ri4oVVvgG8Kt/z0yctD40SAYPyUOYowQtx/4Oc7bu82l19637DNxxXoHOPD7oYehw4CkSgA5e/g5d6G3oYQovdaEGQD0QVa83o6BuAZzynBsdoi66CVtwMcFahtr6aTj74qvx8Ivv4GU60pd27MMLhOPzhKPoufd3E5ZM03fsxWt7P8a2W+9DVXUfzllzHV4keMUtKnjqAPWFqC9A/UHqqU80SV5Lx/3Xd36iAGfc1umVDkE/EJoBapY0XkmD11ffyPPwBZLe92rbmx3oT/jp559w2WWbsXT1hXjug/147PUPccdjL2HTDfdjyaqLUFjYAftIGdawUMFTGo0iHEUob5R6T8JzuQ5Qus+DAVRLtUU67BZsQc/pj2Dalv0egJohOnDWY1oKT6iZAeoDUbpd6QgvAFUQDQRQgSfB2bxAdLWvFooIz4Xchtu2r7gJ5W0nI5gXXHGgIrur7MmZ3d3W8HZWBI7p85eGR7tqHpP6TwfdZ3JaJ/oveo0OdK/HgXrgqTvPQIATiZsMBMmDKdB+Akk9b57HVo+9XXa1alDq8AeoDtG2BZtR2rgC7rA6VQ/qopswJF2cwph6lpVPxpKVF+KqG+/HvY+/jEdfeANPvvIWnt7+Dp558x08+fqbuPWBx3HSmWuRk92GUUkTsOWWh+nKPiFABaJ7CU+BqDhZaek3gzSwDDeqHKkOzyfe1Nzp02/vxkef/FEB0+xENWkw9abdZiB6wSnTT778Gq/QPb/10Sf6tjqEjfeobY33/4gvvvwS7W1HIjGpASXlfcgv6ERq6gTE0HHa+JsQuWx0nSKBp7MEVc268zTgqdJ3A57+4DSkA5TQUlqwVTU8TeNvTKXxAlFKPQpZHCjh2rvcDFACejiAct/KWerwNNSiO0+BpACzSZcvRLX1LTx3AejYWZfByd+NTbrDEaBOV/WuqrJua3g7KwJHdkZnS6Sj4jMnXYYAtGj8sZi1RdynNvanyANPP6j5wE0UAJAHk/QVDbS/4WQM1tx/8r3opQvtWrzNC9CFhrTWeRn+rKbzVMQlNcMRLB2+CVJ7mYKok1N7cBFdaRFCXeVIIzDKS3tQXzcFY8dOp6ahrLQLsZGEyIhC2INKEPTrApSXD+C+Z94kRD/Gs+/rDUYmgB4Kos+8swcPv/weHnrpXTzF1wqgOlCfoqTz+gf7v1Cj6Sto6t2mBKgKqobMMKXUnUN/+DPe3i23osotlx/g+fc+ohOV/qXcXpzoEIBKo9VPeOSx5xEVUYPgkYUIHlGgFELZeaFx8PNxhRTxs5PW9nzExtSpZx5JnWfH8ls0eC7T6z4Fnp56xaEANdxniwHQhdsIwGswcOlrmG64UAXQvRi8igA97SFeKAlQgedSTR54EtbaM42uQ8swABVH2RwAnmb5A7SV/0vTMVsRl9pBF1qqu9DK7+NH1R2tFxcrrPDG6odW/0dK4sRTnSw8zpF5qmV1wsIbMFu6Lxkd5yk1CK4JZP76S5ynyBitKdA+/eWB9JU7MPXS7eg99mZ0L96CDoGlAU4/SR/RSfPWorhhCWISJjGFL4cjpESl8i6n5khl3mEvpVMtJlSLYSM4RAIQF7d1qbttSuEgREMI0+a2hbj7idfwCh2eL0QPDVJp4b7/uTdx4ukbcdeTr+Fpvk/AKWm+1rmfemuXur30rT2fYOfHf8Dez/6kuk59/qdv8CXBKn1Kv/jTtzjwxdf4iOvfITRfep/7JzifeONDwniH0lNv7cS+z/+k3zbqBajcky8Q/Zbk/SP3OXfuSQgaSVjyM3DaSvj5yOfA/5/O0z4iD066zuioeuRVzsHEOesITwOcXufZ7oEnRRh5ACpTtVyWSapsAihhKt9Rz6kPag6UGY/A0wBoH5d3M21X7pPQFHkBasBTA6gCpUkCTwVQHY6B4Ckyu1AFUEJaIJpZOR/BIdKQVIkQeyUiYyZcPnPm6v+nFxsrrNCiqGh82Kj48U86xH2OyFYFpf9iSd/1DvQbtVb44dN2DYCB4Hi4OhRAFZx9jiHLd2DKhS+hWwaaWERQ+oHTK8J1sTwelwXpqA0om3QcUvMGEB4xGg4bwSkwFXBQLh9xOUHiJFAFpHYBDAHqGFmM4N/kobR0MtZfdy+e/2A/XthxQKsTDQBMkThNQ09zu+d3fYyrbn4I02aeQjf6Lp6Trk9M37VGLB2+qoO/JgGhuoefepJ64g06zO0f4rHtH1AfqvnHCc4n9PUGQB/n/Bu7DqhGIw9AdXhKPag42rvveRwJ8WNgMz4HgWdQIcJCqxGbMAEpuZNVVUjTkRvRRdepnCfB6XGeBI4BSi09F0hqal0oMNWBqpbJIMuaBKBq8I9FzCCWXospl78NqQvVALoPg8x+Jp98PwF6Azp1gJrTd6/79AK0SYlg5LGadYDKvBKPGUg+AOX/0CLVECtuRoUaH7RapfAyRmhk9Njns7LGW8PbWeEbY9smpYe5Kg5I45E8uiOzbI56cqKWvmvwlGcg+T4H3oCeGWp/hUz70+QHz0DvEfGcBs5/gQXsOrQvCARPEZ2p9A+Ugsr0rpOORgb5HT9zDaraTkZO5TwkpncgKnYswiPrCdZahIXXqAGao2IakJzdg5LGlUgrHFSpvFMGzqBCfluA2Kg6zD7qdNzxyEuq8enljz5WLffPvKeDk1B8Slzlu7vxHJe/SJg9QbBde8+TfN9ZCHNUY8nKS9SAJc9ye63vqSYNpFqvAA9EKbl33ysdmEp8LeuVtAFTZHu5A0u17isXagBUgPozDnzyB7S3H6OqMVx04U5eNOT/L28+gU5zA1qOlttkmUKvus0HnB0EZ4e5zlPB0wRKAqllgUw1kGrSwGkAS2tIkv6gV6vsoffU39OBmgC6cTd6T7oXXYTlcADV4EkJKHWACjg9MOVxNQWGp8gDUBHfowDK/3Hs7HUIjRlH9ymjM1XCHlrzSV7xuBK92FhhhRb1lQNTXCMLvnEG5cD+m3TUDl7K9P2AgucMus8ZegOSPzgNBQTbX6gh+z7o/j/EoEwVRJ9HB+HYvmBzACdq1ItKXSkLq2xHx9KxVO480dNCLms6cj3GTb8EDYPnK42bfrE2sjq3bV9+AybMuxIxCRNhO6JAG32IbtQ+gqn+iGJkpDZh+pyTccnGW3H7w88Rmjvwyu4DeHXPx3h5134C7UPcxuVnXLANre2LEUv3G/LbEoQcUYa46HG4+rZH8dKO/eqWUQ9EdSdqQFS7R18HpA9E9WUeae5TACopvUxf3bFPDdln1IOKA5V61Isv3kpoFhOepXA76bpDipBdOlur26SMFL1N9e2U+kdfqTR6ESUuUweoBk4/MAWQJ4VX2qa+jylr3sTUzQcI0P0E6EfoPeGuQwOUANcAyv3ye1Rpu9l5CjwPF6By/vJ/EKKy77j0Lg9Agx1V3xUXD3TpxcYKK6T70ur/yBjVsFa5z5FZCHOWoO2E+1X9pxmeQwBKcBkKDLf/OmkQ/RD95z2LDoGdDlENpEbdqOZCFUBVgTXdEcPCJmpngVEdtXXJKOWe1l2qlQW8pusMpra1yok6gpnyBhM8tgqKDiWoDFGhdchMb0VN7XS0tC5E38AqdHQtRU3NdGSmtSDcXgXHCKbJweV8fwWnFQgiSOtHz8K9T7+m7mbygShlQFRzodK53Q+YJoAaLlVzn5oDNSD6Jt3vH7/+nvAEyE48+PAzyMqcCAehGUp4uh0liKKjHjfjckKK0Fws7tKQtKwHkMl5Kpepw9MD0GNMcPKTOFINouJCr0EHv5eeE+/D4IbdCqJTeIHsWXmzgucQgBJwnhSe52E4UOU+ZV5/7XWhhOUwEPU5LwVQ2R+Ps/wmZFUeiWBbKexOGZ2p4qe0jLZT2tt/9e968bHiXz3mLj7LFemqeMwxMhe232YgMbUV/Re9illb9voCVNV//mOB05AAdFDcqDjRC15G54qbNYgypRd4Kil4egHazoIl8oeodlugOBBNUjANgBoQrWo/VY1+bxeI0oXKo3zDHJUIZTrutlVpcCRMbSNZ8CjbyDJenMrgIixDCdAwRxWdngZPJ6eOoHI60RJ09azE02/uwosf7ic45b59X4BK67w5lT+oCFUzREXiSl/6YA92f/YnPPHMaygv7yE8CxU8Q3nhFICWNC5X6fkhwanLJ21XAPUDkgBUaZsu77ohAOXnLYOMTD77KUzdtA+Tz30OXbyIaQAN3IA0FKAmiPK1F6A6RHncXwJQGVhEACq3dIY4yhGfNPGW66471xof1Aotqqq6xoc7SvbZR2Qj5NcpyK09BjMkdd+0W4cnJV2XBKAE1T8aQDV46gBVEN3JNPBt9J7+KEHANNMDUEnd9fTdT/4Q1brAEAqcmuHpgSgL+pipFyG9cCoiwusIzkq4Q8q9ohsVCSzlSZWaZL6K6yvo8mv4vjEKnAJbA7iO4DJMmXE87nt6u+oiJffbK4iaU3kdokp0o5r0gaIPIbm7SsYCkDuramqn8HiEp6sMYS5x0YXILJ5GqPEiY9RrHlT8rMzOUxSok7oHoCbp6wSgCqI6QNu5zw4CUYDZs/pudK+8RYHTgKcHoCb3qQCqIGpyoPx+NIAePkQNGQBtJUClj2vDtEtgd0krfJlK5R3uqhcXrFwQphcfK/7VIzOlYYFzZM7PtiMy6KgyUT9jnar/9LpPX4AKtP5R4CnyB6ikfVMI0cH1uzDl8ncx+cyn0HXsbWr8yQ6pZ5MpITgcRL13sWgKBFApnK0syC1Lr8X4uWtR2XUa8uoXIq1gKhLSOhGb0ITIyHEIcxOuhGWYqxaREWO5vBlJWX0onHgcamddhqTcAWgPYjMgWoqQkQUoKunGeWtvVG70pQ8PqOcQGfWgGkR1gPqAVIOoWQqcTN+feXcnXtyxF4+/9q56zElG5iTYFTxLNXjaC5GW00240bF73GcgaJrFz4CA8sBTJAAyaxhwGvIBKD9XqZeWapROfraddPriPqX/56EAqiBqAqhqkefUkC9EA4PTkAFQOUbHipvUZxKd2ITgkBIFUZe7en9j4+BYvfhY8a8cU6dO/W1m/LhNtt9kMX1Pg5tpXOfpT2LmVXr6LvBk+q7ud5fWcBO4/rsl0DSmHvdpAHTdDkJURDe64SMMXPEeJl/wErpPvl897EyliqrzPaVc6dWqAPtDNBA8NempPffTsowFeOWNaF11I5qWXYMJC6/C+KM2YNyRa9Ewew0aZl6CMbMuRcPcKzCWy8cvvQYTj7uZugVjF2xBStEMOsFyXrykyxQLqJ0QDSpEeFgVWjsXYdttjyjX+fLOA2owDxkdyjyqfmDtpGslND/YjVd3SfeoD7Bu620YO24GgSndtvS0nfPiPJMzWlUDmQBD0mMDUpoEJmZw6hL3ebgANS1T9aMmcBryAajuOj3uUweonJd2buIQdenz8n14+n8KQP0gqiSOVCDKcxhO6nbORTzG0hvQwRRe6sJHFQxiZFCRAqjdWfFDYkrLcr0IWfGvHA0NnXFR7tK3bL/NRPCvU5GY2U1Y7vSB5wy+nk4Y/SMC1B+eAQEqTpQQVSBdLzB9H5PPfxE9TPG7TrgbHXSnqjVZNSxpXZ1U9xpCNTA8RSaAsgC30C0JSFtW0JWuvAEtx96EFgKydfWtSi1U8/G3oEnAuepmTCBwRROPvQWNfE9hywmIiB5PiBbDKR32HaWw24oRTJBGR9eivXsRLlx3E+554lX1eJJXdh1QLfZy776Mcaru32e6L69f3rEPr0vr/449uP/JF3DWhZvQ0DBNOU3byHwCuliDp6OE80VIzevFxPkbFDxlLEytdd0LK6UAIFV1n/4AJRTNsPSXLzy9ANUuXAJPip+lANMHoDyHYQGqpH0fQwBqSNbp6w8HoK0C0CUEKN1416pbUDh+BYJsdKCOMgQzjY+Madw0deqS3+rFyIp/1egY11/hGFHwB9sRBOj/TUFpy6l0n3swnfBUUs5Tg6dqgTcB7L9Thw9PHaDUgBIBumE3tUepf91O9F1Od3rpm+ghVLsJ1c4T70P7SkKPBVWBUUBKqGqSeUoKLAumpPBqGwOgy/keArGZcGwSrbpJaZISgSnQFPH1RBbMicfeSid6G5pOvQdjV96MvAmrERZeB4d04Jc+mapfZpl2335YBXLz2tHcsQCLV5yPcy+9Bldecxeuu/Nh3PbA07j53iex+cZ7ccHl27D02HPQ2j4f2VmTVKd4uS1T7i6SRiI34ey0abeu5tXMZ8q6BR0rdXgOJ4Gq2ZEGBKgGxiHg1JebpcFTB6iCJ8XP0x+gynn6AFSH+EEAqi5wZmiapKXxgcEpUpAnQMVdy/8q/7fccVU7+Vw4Qqs99aBRcROfHdu5MFEvRlb8SwZ+9W/FuY3L7UfkfC8O1HZEFiYuvhmzNu9TLlSTBk8NoIdf9zm49v2Ay/8W8sJzGIAqeAYCqO5AqX41JUjXE6Ib9qJ/4z70bdyPvg37MZnqvXIPOte8j84LX0fHWc+g/ZSH0bb6HrQeewdBeaPmOlVBZYETCUgVPLmOcGyhs2ymA20+ns5z9W2cUqtvR8sJtysnOnH5dRi/cDPGHbMJY4/egDGc1jP1rzlyPUbl98MWUgSHgE6HqMupTUMIwyC60uCgAtiC87lNIdyuYqb7JQh3F9NRFsAenIfgI3Iw8jc5BGeeuh1T9fNUIkCZtqfldmPctPPQS2fcdZzcWXSzNqKS9F6QtHX5jQQnZUwFoh6AahAd1oH6yQxOpUDw9ABUGyjZA04TQDX3qcPzMACqLnI6ODXp7pPnMBw8NYCKK5bjyP+pudBJR21CeNwEDaAO6RNa83lBQVuNXpKs+FcM4Pn/HR9bfa19RI7qvhQRORrdZzylOVATPP37fgaCmlkCz78JQHk8X8kdSSZgyrxJXnBq8Bzg/yDqJzw17Ub/lZRMzVIAPYD+TZ+i/6rP0L/lC/Rv/QMGrv4KU67+GgPb/oS+zZ+hd+NegnUneq94B72XbkfPRS+j57xn0XPWY+g78yH0n3Y/gXQHC/m1mHjUlWiYfTHqpp2F6r5TUNF9IoqbVyC7fi5GFfYgIX0iYpPHIDaxHjHxcrdTJSHI1NpF4DF11+DplQDUq3JdMi/r5fZLSf35PgEv3aU21ZZ5xHRdnKek7cnpLSgZuxBVLceirvtUjJ16ASbNuxIyLKA8e71Dbo1lSt+16lZ00yF3yX3vAlZ155EGUwUtAdZBAGoA05ABTUMaODV4KoASkAEBSqnU3QxQBVFC3KTAVSw6QA33KTKB0weg6px1gBLMxgVDenMk5Q0wfS/VWuQdlT/m509ZyGL0b1ppsuJfLlYtPCci2l31lAA05NdpSM2fisHL3lH1nwZANXgeDkAFmJr+JgANAE4PQAPIB5xXaul6v9R5Srq+iYDctB8DhOTApo8xZfMnGNzyKaZt+wxTryI4r/gQ3RdtR9f5L6Pj3BfQRsfZdsbjaDvxfkxk4Rk9cw0quk4iAJehcMIi5I07Cjmj5yKrZgbSyweQVtyD1NxWJKY0IDpaWrVzEOrMhNuQIwMuXU5bBuGWruS0ZcKly23PomSaqafvOhg94msul3UOvhZ51sn2BKgA005w2oNlBKV8NZXGIi9ENYA6bIWwBeUqiVu1h+Rxv3mEcQHCwssRkzAGKdltyKmYipLGpajrPZ1u9QJMmL0GzUdtVA1w3dK5XepMBWoCU4GZuFElqYfUYaTAqUHNDE6PFDz9ACqwNGkIRP8igGp1o8MB1HCfQwGqQVRuXS1sXKVGqBeA2pxVSEpvu2XBudbz4v9lY/ToOU3hzvKP7SM1B1raegpmbjK7z6EAHQo7X2h65AFqoPcEkA8wDfmDc4ePFDAlPd+4G4OE5NTN+9VUGoukbnPyFe+h+4KX0HTCfRjHgt1w1FWonb0WlVMvQWnvmSiYuBSZlVMwKq8JiRn1iE+tRlxyBQFSQhDmIcydCkdQNOy/DYdjRAQVRcVQcXCMTKASuT4JzqBkOENGwRWSQhimwS0iLN0OE0Q9ytaVo8mRTbBStiwdphlM3/NUem4LIQQJO4ek3q5yRMaOxaicXqQXDyK9aArSC/uRlt+LlJweAq8bqXmT+bofmSUzCL/ZdLiTlJNVMFVA1aFqM5RPEZ62XE32HB6PCskmXDMREpSuZOfyULrjiOgK5ZiTMicho6QPBbVzUdq4GNVtqzGm/xxMmLsWzcdsJny0R2rIXVxKhKK6KUGAaZYBTjp25SxlLIPldLd+6jBJQdUMURM8DwZQmfc0IOkA9UDTT1pVg0BU9inH4LktvQGjBy+GI6wWNlcFRYi6a16eMeMYt16crPhXi5TkluMdQXQrBKiLBapx4Q2YuXmvBlDC6ZcA1ANSXd5lgd5jkg8wvRJX6QEnz0eTPCNHxorcB2308r0YWPsuus9/Hq0nP4jxdDtVA2egYMIxyCibjIS0eoSHZ9INJiLUEa/ktsfRhcXSmUUTfpGEYAQBGAlncDQhyGWUMyRGyWWPpxL5niRqFMGYquTyKI1KJzgpTt0iuyblOGVq5zaUk/NK3MZwoXZOXa5cur5iREZXIiauBnFJdYgdNQFJ2Z3ILJuBgjELUdG6moX3AjQJnMQRKSAZADEgQvhIusmC3rbsRrQx3RY3VdN3rno0RWJmJ6LixyM0vFpBOWRkNoKDsglITbZgAScdKQHq0KXNcx3hbiPcQ4IzKEI1OE0T/4eQEAG+/C+Ef2gBYuLrCPMWZJcP0r0uRm3vaRg/8xKC9SrNTRKCGlTpWgWaSjpoBY4CSRk4WR7fId3N1NQPoLLtXwhQ6eMpn4tHHnBu887r67RxRbX9yvHkQXOxaR16HWildKjfU1TZU6cXJyv+laKhbdCemdZ6u30kUzgWpvCIKnSf/axK36cRVtqoSyaAEnaHA9Ch68yvTfLA0jcVV6L7nUoXOU3csIzKw3OS5f2XvYmO036PcQs3E5RnIX/ckUyfW5CYXoOomFy6OXGGYQRjOIEYSbBFE2yxBFucLgKUUxch6uK2bgJVIOmU11wuYNXgSgVznnIEx9O9ieg2g0cpp+kUkDrSCWQ6SiWm30rZCCUQw8OLVL1mUlqjgkl6QRcyiycjq3QAOeVTkVczB0XjF6Gy/QTUTz4TYwbPx9jpl6Bx1uXKxU06ZgOhco0GDgUQAnHZDarjvgecHskyEddTLSJCVI1nKXWWMoLScXeq15OO3oLxs9ehnlAtbzkeBfVHI6tsOlJyexCb1IjwyCq43Ez1Hbyo2pni04l6ocmpgiVFoNpFdk02cc28MISEEKpBqQgaOQpBI5IRzKmDn0t4ZAliU8YiragHxeMW8PhnYOKR6wmmqxUMO1fdwnO8DR3H3oIOzsvo9Gqq5glRkXwOCqAaRL23chJwJhkA9bxWywxpabxHhGQTwWlIg6hXLQZElQSk1yC9fI52W6ca3q7s29SsidYAy/+K0djSnRwXU7fDIandiCwkZbQrmE2TAUOGA6g/BJV8Aao5UG8rubGdeZmS7jJVOi7OUoApnffpLKdu3IneC19Eywn3ouHIdShpXU431ov4UVUIC6PzI/icNrrFYKbVwUyvQ+ggQ6IIQ7pGR6wGSF0KmEoEIl2lI5jukm7TwXm7LHeNogPMQERULqLjChGbUEwXWMZUvpLHq6GLlaHsmpgWT0Z+zUwUNRyFsgmLUdWyElVtx6O64wTUdJ1Cp3UG6gfOxbiZa9B09FWQUdbN/Rw9LomFXnNdAgJCQQGBIhCUu5J0dplsJxAQeUFgzMs+VC8AH13vKwXRG9WgwG3Lb0bbCsLo2NvRRZh2H38Xdae6O0sahzoFtHIMusQJcy7DmIFzUE24lzQuQVbFNCTltBGA4xDN9D0ilpANK9IdqYA1XTlQBVYFV+N1mlJIcKoCafCIJEI1ia53lHKurrBCxBGqmaV9KJmwEHV9p6NxzhqCbSu6j7sVPavlPG9H57G3ar0DpDeAP0DNTlz/bAxYel6blvkAVMHz4AD1uFBKpnLskknHy4AiyoVKg1J4VO0FAKyBRf7Voix/aq0zqPSPTqkXG5GJ3PqFmL5ptwZP1XhEF0jAaRoOhN6U3R+cw0m6GQ3qsFQjjm/6iMveQ/dZT6KRP/LKyWcgu3YGEjLG0Llk0/lFw8Y02y5ptqTXNh2SSgJJukQuUyJEVWrOZSr9djD9diYjPCwTsYmVSMmZwALbidzqqSgefzQq21bRDZ2OhqnnYdyMi9E4ew0mzLsCTfPXEYIbWKgIQrqkTrqfbhbkLl3KMQl4qPYVAqebCD1xiZQCl5aeKlhKQZYCPUQC1aFq4/Fal4j42g+iHiAoBYKoId2VqvPQU3oFUumeJJKuSnp3JWkI4lQApaXJdIScapJ5/g+LCZij12Pi3MvV8H51dM1lTSuRWzMbKQXdiEttRFhkGZx03zY6UgFksHKiKZymIGRkqgKpUgjFdQJSAWrQEQlUooJtWEQhYpLrlVMtnbgMY2dcxM/vanStull1ZheJExWQagD1fs4GRL2fj/czk8/bcKYaQAlOP/dpli9EDSd6tTpeXf95cIXXqcYkrUP9mHtrxvdb98X/K8Vq/Op/ZSQ3n+IKLvxRAfSIDKbEF2PG5r0egHrgSeAZ8NQAagbloeDp7Zc5deNubYBcArOH7nLSqltR0XuKasSJo9MLc0vdYALsIwnMEZGcRsFOt+gIYWpNJ+kQSXpNUNoJSVsw10uK7h6FiOhc1fAjDUEZJV0oHDMHFU1L6KKOxeiBszFx3pWqEKg7XQgUgYW0IIv7UpLCKa3KCooyvUnJqIMzGjM09+OVpNWBCrGPfKAp8sLSLE9fyIAAFfG91OEA1JPWewBqSAOp1q9T5Pc/8f9Q4v6lZbydMqaapJ+mt6uRnK+47OYFWwjXdaoqorLtBBQyTU8v7Ud8+gSEx1QRrPkICkojMAlNAjU4mFBVQE3h96hLlnucaiIhOwp2RyYdbwVSCzrphhdizJSzMIkZiXyPqt+qwF/+L/k/1f8t/7/5M9I+M8/nxvP1caDDQHRYgHL/4/l/hsWMV485lg71YRG1O2orOvL1omXFv0Ls2nXd/42JqL3TJR2smcJLA9KklXep9Hnahl0Kol736Q/QYaRSchG35z6mbtqjoDm4YSf6LnsTLSfdg7pp5yNvzGwkZdYjPDQZzpFMv0fqDTiSWgssQ+IJzVjlPENEXG5jqm2nm3SFpiI6oQyp+c3IqxtEecsyBUhxjk1HrVdur4upqgFGGdKuUz0tUgOGjJ6uxELnEcHoLw8w6cBUWu0noxFESS+4PvA8DGAa8oLT0HAAFen7pwKB05AvQOU8dYDKvDp/fV6Xqj5Q4NQcs+pWpJ/LEAlIdBl3ExnnrjrB87iqlZyvm4++CuNnXUaXfxYd5VJklE5BdHKDamyy2aVuNU05VJXaqzrTZOVObXSpSoSswFWWi2N1urIRFV+JpJwW5NXORnXnSarOWEFevi+VCUgGIJ+DL0Q9r3leZicqIBVIioYCdKuScQea+j55rLj0TgQToFIPGmSv+Cotd/w4vWhZ8a8Q40cPZkY7q7c7gwvhGJGDuKRJ6Dn/FUzfLABlek3oqQe2eQDqhehQYIq4XpzrJrrMjbvQc94LaCLAqiefipyqfiQklyEiLBmhdjrGoHC4giPg5rxbUm2pmxRnSYjaJF0P4jJ3GiLjSpCQOQ5ZlYMobVqKWqba4iTFcSjHeNzt6Dn+TqVuqdujoxVX2SmgVCIMdcl71Ly4T5Fp3V8EUAM+hIUXoDrcfOApIvgOIgM+HmgpUA4HUe5PVyBwGjLD0wegcu7m89fl6zwpz3np0PSXQNMs0zqtztcAq+ZWPX045X9YsBkT51yOusmno7xpBfLr5yGtsAdxKeMQFllKZ5fhTf0JWKlTtYvsMpU6VVku9aiEq/SbDStCfGojcqtno6rrZF5ML+f/xP9FYMrvUMsOTABVMiAaGKCaNHgqGQDl++R3kV01TzlQfYT6H7NzB5ayWFkd6v9Voiyvpy/SWfVHefKm84gsZJXPw+D6jzSA0jlO2/iReu662YVqDT4fMB2XlFx7LU5TPX5WXOZFr6DxmM0onrAAKRljECWNM0GRCAumbNEIc8QoKYjaoug06Ty53OmIY8HJQmJmA7II2/LWlWiYcRHTqy2qvrH3xHvQe8Ld6F19F7qPu0O7K2aV6FbdaWodupUkNfeDp0jdx+23zEcsFMNCVAq+IQUbAzzi1rwyw81HLKgBocnCaJaRJnfI66WED6dDASoy9m2A2yxfcGoy4GkCqCH1f4j4P6j/5zABeigJPBVAjf0Y0vavRsLi8YxBkuVZVq0LrsI4fu9V7ccjp2YWErNaEB5dSZeXR1hlqnpVaeWXFn87wWlItf5LdQCBK93CImMqkVbQjdIJSzFu5iWE5Tb1Pbbxt+HjTHk+Wud6AlSBVIeoIXGg+rwCKP8v+dxlX0Xjl6tnxdudVVQ14pNarm5rK7I61P+rRGpS46pQW6l6dLGTDrS882zMvOZzT99KDaB0oTpENXhqmsJl8pyaaZv3YfLFr2AiC0DR2CMRH1eMSHsiwkcSlnSSEUy7IxzxCKfC6DTdIYQmwRkRkYa4UeVIK2pByYSjMWbaOfxhM/VeTTd50t2YfOr9mHzKfZh88r3oPuF3BKa0HOuSVmMBp6qzNOCpA3T58AA9qFggAoJTxPVDAWrAxl8maJplBggB6C8FzqVeyVNDpQuToVZ/yT75efnWu+ryQHM4gPpBlOsDAtQ4P38w/mLJPgLLfyxWD1TlFlL5/xZtUfWd9f1no3DcIqQU9CIyYTSc7kKCVLpUpROeXpDa7QSrwDSIMKWDtdO9ul25iB/VgMKG+Rg95RwCcTPaVtCV8n837o33TeW9IDUDVQFUZQQaQKt7zlDpuwFQh6vq0fm984/Qi5cV/8wxMHD0yKyUpmvcIcUIJUDD7MUYe8z1mHn9F5i29QCmbtmHqXSVAslBOkypw1Sd2KURSO702bAbHac9iqqeU5Ca3UhoJiFsZBTCQ2IREUJo2hIoQjOYbpNpeZg9DrGx+cit7EV192pMOGotOo69GZNPewD9ZzxEYD6A3pPvQ+9J96CHbrPnxLspus0T7tK7suiuU1rAPeC8CV2G4+QPWoOhFDxNnpTUX4SMJj21NEQHJGo3y3iPEreX9+jygEYclZ+GOE1/GeAkDBUwl4kID6pzOS8ky7mcy9oMcRtf8TgeCTQNacAUIHrgqUA5FKA+FwUR3y/7Uv+n+l95HI8IQhGBaIybOlReEP418oGvfEYe8X8lxCbMvgK1Pafxgs0sp6AHYXSbNkcOgqU7leo2Jam+gDQDDkn7BbJSj0p36nbnIyljouqGNnb6xZqj5GckPRa0wZav9sjjSs3i+cmFS6oFxs+5Au7IejikM71LAFr9Zk/Poii9iFnxzxzVY9qSRsWOfjs0pAju4AJEhdeg44ynMP3azzBtmw7QzdK9SG6PpCRF53JpCJJuRnm10xAdkUmXyZSc4IwIJjgJTHGc4SGE5shIRNgTEJ9Yhvy6GRg//0r0nP0kBi54EVPOfwaD5z2B/rMeUU5TgZNOU4OnBs4euk6P5DXVq8Q0nql8j4BVSbaR1/K+e+le7+OUkqmubqqLy7q4vtusEzR1EdgecT+d3G/natHv0Hn8neg87g7qdqUO0bG+6qQjVpL6V12qE7hH+ghHeouxIekW1blC6yLUSUh2LrvaRx1LmXZKGs+pr2SZQFSkQ5Sw1ySw1KWDVHutgVNz036O2pCCp/liYYaXnwzgEaoB1/vIe9HRxGXG+4fIBE+zCE5tfFZOuZ2MUt8p/zdfT5q3DrXdpyGnaibiUsarvqXGXVICUbk7ykGgilQ9anAKHNJdKiwfyVmTUN68ijC8nBC9Ds38vIaAlMf3ygAot1u4BXGp7bDThQpA3WF1+yuLuhr0ImbFP3OMGTNQFeGo+DJURuUJzkN80iQMSL/Paz5WANVcKFP5bZ9g+tWfoP+KNzF65oXIyG9GZAidpXKbMTowY1W6HhYky+KQSGgWjTsK447ciO4zn8B0uld5rrzcEjrlopfRf/aj6D/zYfSd8SD6TtXSdJWun8bXpz/M9Y+j/5ynMHD+c9z+RQxe8ioGL30dU9e8gWkE+NTL39Z0haZp697jvt/ncT7EDLM2apq+cYemDZqmbdzpvVFAqiekOkIk9blSRaE3kE1Z976mte/66op3MCC63NDbXl32FvUmBtaYdOkbmMJzF8n8wKXbMYX/zxT+X1MufoX/40v8X59F3zlPUk9oOvsJ9JzxMHr5mfTwM+o+hbAX8bPq4oWmixeTzhPuRMfxAvXb0E44S1rpASkBoxypmjcgqskXlgSavwzIeSSQNKQtkzpaqWaQNPvQMlw+57lvQ579+wHULA2gGjzNMtbLeQhI1SM/+P+3HrMZDf3noGT8YiTntMMdXkKQai394kQ1kGaq22k1d5oKpy0N0fHVyCwbRHXXqZjEffjAlMdR8OSxRDLmaysBKuO+phXPVPWgDqbxLnftN7nZXfP1ImbFP3H8W21575JwW+kPCqBBucisOFJzn1cLQD/G9Gs+w8zrPkffmtcwetr5SEmpVeCUus0ITpXbJDhDgyIQZotFYhKhOXYeJvGKPUAoKGjSwcpD6bQO+dqdTFMJHgHHILcZvOR1gnE7BhUU38G0tQLCDzCDmr6e4NOBp4nv5zIf6fs07s+ftn54TRVxG+O2UbMMcHqkQ1XTTtU45i9VpfELZH6vgrfUH4vk8xFt3DVEU6T6hFOpQjHGMvVKG+PUM6DK2g8J9XfRT0j3XfQq+i58CZNFdPyTz3+Beh495zzDLOAp9Jz1JHrOfBzdpz2MrpMfIIjvJojv0B213EpJBy1adbPez/JGqGHtCAwFzSXyPCmKQNVEiPmL23VKdQTfo0ToGPIFaWCABnKf/gDVnmmlHV8Tj8f9dy27kTC9ie+9Rg3NV958HEbldCAsoozAzFDpvDhRJ2HqlJGxKIctla40BS5nNmIT61Aw+kiMmXqBqvsUUBrw9ACUy9pX3YSiCSvpQKUhqZLTSsQkjTldL2NW/LPG9dev/j9pSY3XCDzlOTiukdko7TgT02/4A2Zc/wVmCDjpiuqnnIW0jLGIDIpDFJ1llNRrcqrcJuEZH1eEvJqpGDN7DQvlE5h51W41hqg8gE4AaganR7JMXKBZ/tv5AJIAHEZeIB6+jO5WhxSP7wtSr9Q9+vr0cOW7Dx2iCqSapiv5AlSqTgSixmNIAmlwwx5N0tdWSfrd6trE5R5JdYyf1A0N+wji3RhYt0M94qRf6T30X04Y01H301H30TX3XfKa6mHRdz6BfO6zmMzvu/eMR+iQH0LvKXTJp9yPnpPuhaq/VvXWd6Bn1S3oXiEt7DpEPSAl6HR4CgDbCWNNnBc4+sBSnuGvPcdfgVOXB54+kv1pkqd6tsvjiFV3tRvpdK9Dw9SL6EyXICW/B1FxNQRolnKgks47HTLwi0CV83SkMt5BRHiRGr+gquMEutKrVF1yC12ueuKAuHheYGr6zoYrtEal8TZ7FeKSGzc+//wV/08valb8M8a61ecGR7mqH3NJ/ScB6g7OxcQVt2PObX9G78Uvo7ztWCTFlRKaiYRnPKLtyYiyJyE8KBYxYenIKevF+HnrVGGSPqEzBJpXfaSNG+qRAUA/GXA0FGgbQu5QUkDksZWM14eQub/qoTSV5+YLvaEaCkavDgZPf4Aa8DTkAai6AcEApa71fK3Ls2yDbGeSB6bDSYAbAK4GUDmvaY9X3F4Toc5jTFGuWB/pXxywkta1TTTA70Ue4CfVGf0Xv4p+uuG+C15A33mE7zlPoffMx3T4PqAaCruOu0P1rJC7wGQ0fM+dXwStesyxPI5aPdtfF6HaoaS7YRNIlYPlezTJ+6U1n66RQBU1H7MVE+ZuQE336cgoGUBkXBUcjkyCVMZXMMZs1dJ8J5fJsIPiSksmLMbEozagjefWKtUFK2/EmFmXITyqAXZ7GQFKBxo/4YHGuvZIvahZ8c8Y3eP7C2JCq991S/oekof41Cb0XvQixs7fgOTUMYgITqTbHEVojkKkLYmv6T6do1BQPQ3Ny24gwHZgJguYKvCEgoBQUu7hgfhLFACQw8pvlCfjfX7ygvPwADoEnnTJSuZ587LDlgmclAZOX3gamrbJC9DDkg8gNU2VGxpEMq/kdaZed2pypD7iOg8wDccbuBrBGPHfA1Qlrle9N+T/kPPzlYyspe5UU9twe6lrpuudctnbGLz8Lb3ueDv69eoIBV663p5Tf6+cbpf0B5beGdIrg25QgVR3pvLc/7aFomvUs+q159VfrT3IToapO4avF1zLZYQqwTpuxuUom7QSo3I74A7LpyulA6Vc9kyCNItTGQBbG34wPrkB5S2roPqVHnszJi3eisjEJths2shMDlflWzbbqGy9qFnxzxgFeROnhrlKv3LRfTpDcpGY2a4q0CP4gwkPSUEUU5koRyoi6UCjXWnILZ1McN6EafyRy2OOA45Qb9Q3epb/pTo4QLUGnmGGxzPe56ehABUFhmfA1N0fmv7y3z6ghjpPzX36gZNgEXh6ACryd5hmqW00gA4HyuG1d4h8IMp9KIjqx1IQVe7XF6CHI+9YrgcRPxety5whgawOW/U/6tCVbXkRVxc6+S6l7veC51R9rZbiX01oGhKAeuGpAdRX6umbi2/g/FaMnX4p8uqORHRCPdP6HNiDJbUnRJ2ibDgIUZczB3EpjShvPR7NBGlK0VSEhJQQoJUYGZy//z//01auFzUr/hkjNbVplVseKmZn+m4vgMuWC3cI4WnPQqQM3GBLRUTIKKRlTsD4Izdi2loB526tXpOQUZAjsASoHoAOkT8YDy2tEccEPz9AKniaRro3Bi/xbGN+r65fBE9DBJ4n/R4CTN8GIQOMqlCb5AGnbGOAkXBTY5uKrtLGOJWBW6abNE3X1M37VC+IqZsPeDTNmL9KlpvE1NuQugFCTTXJSFeHlvF+/bUPTAWiBrAJMQXRXwZQ8+fy18pwrQqslNEQJ5/nALMoadWXu5+8ANV1EIAqLRCXynSfIG1fehOajrqKTvNYJGY0E5rZqvHJqUCaQ6DmwMGy4nDk07V2ITmnGyHiQO0VBGjBp//5n65KvahZ8c8WZ589+deZGePXuWzFHoC6HQUIdeQhjD+McKYuiXGVqOk5CwMXv44ZUtgJAW96TjgSVocGqMgXkAeTtxXcBEAzHCkFTAOgHojKcq/M7z8YONXoUGqEqKHSxiYV6QWX/79qSRcQqlZzDVLTRQTYDEJtxtaPMXPbJ5qu/gSz5LXAkC5ThulTXZ+kUWbNGxRT00tfx8Alr2HKGumetR3TL38DM0RXvIHpV2zH1Mtfx5QLn6NewJSLX8LgpS9j6iWvYuqlr2FwDd/H6QBfT2aKO/ni19B3Mfd7KdPey6SLFY8n/6+4XAJx5tWfYta1X2DWNZ9jhtJnmH41tfUTpWlbPlbSYKwBWasP1QFquF0Fz8MHqBl8fwupC5V8Dx6IalJ1xtJX+bI31E0VAQFqguiwANWlPYlTbs64hfPXoKrjFAVSl6sAMoC005mnSx63kge7vZgpfIm6Lz7YVvan1IwxY/TiZsU/W0zsmhqal9X2kDNYnspIgDoKCU9C1JaDMLrQnPJp6Dz1Ye2ZSPLjJFA06VAkpIaIy83gMssMyYPpLwHoFA9IZZ1JfK+SPj+FUyVPYwcLOCUDOCtJekgwelLmjZoDk9tUp9MFzti2HzO3Sp3vh+i/+BV0n/0kOk97CG0n3IPmY2/HpBU3o4kFt2npdZi4YAsa5lyG6smno6R5GfLGzEVW1SAySvvUQ+dGFbQjWR48l92CxKwmxGdMRHzaOMSnNCA+eQwSkhuQmNSAhKR6REWXIiqqDDExFYiLrUJsXA3iE+qQkDgaidxOto0fNR4J6RPU/pLzOphO9iCNx0ovn4LM6unIbZiPktZjUdN/NhpmXY7x8zehkRCZtOwWtBx/F9pOfhCdZzyuniwqjnnW1gPqIjCDF4FpvAhM3SLOV27tpUM1ALtJg6tRPyoP7jsoQPULkEfmdYEk3436fnwVEKCEp7qwiQO9gA5UWt8JPTWYiQ9A9bpQAWggiOrLDYi2LLpeuVF5nHH7spv5+lpUdpyMhLRJdJ/6I0/oQB0sOzZ7EVVMgJYQoBXfN9QPTtaLmxX/bFFY2FUfFzNmt9R/igMNleeJB+cgNqEBo2etw+Dl73g6vXsBp0HSA9AAUx/wmWSG5OHJ9H7u2wtPXTo4p6wlEP1lbKNSZylYu1nYeSEgCGdsYUrLgibubPKlb6D3wlfRff7L6DznWbSf9giaVt2O0UeuR/XgeWow57KOE1DUvAL54xcgp2YmUgraEJdah+j4UkRGFyIiKh8RkfIcI3nQWhbcoRlwu9LoSmQwiySEBMUheEQ0FUPFIWREAqeJCJEh2dQoQ6kIDk5Ttx8qhYgyNAVrU23wDO0ZRDbVGVyTzNvktkVRkPb4DBk3MyRI9s1jj0yg4mEbIYqltIffqQfeyTOc7Ol0U5lwhWXDHcH/IZr/S2wJokfVIimvFVmEb37dXBSOPQolTUtR3nUiqgbPxeh5V6KJF4yuMx5F7/nPqTEQ5EYCuQCpAWgUYAlXVW+qQVWDn36h8rzWYajLvFxJMoBAAFXwFMl3q9eN8vsVeA6ufQfdx/+OAGUKL7fS+sCT0qE6bBrvD1DdibYSpMZUHuUs9aSV7SfzotdC10l4inSAiguV4e0yMnrXXnLJJb/Ri5wV/wzRPrf9N8W5ne2R7ppn3fyyVfpuy4c7JBfZlfPoqJ5gyknQSJ2SOV0fRtICLim89zEeJuDJeo/M7tIMSko1AgSWB5gmaWk3HeQ6PwdJFyTOUQqSNL5MYSrcc86T6DjlfjrE2zB+4RbUTDkHxYRBVs00pBd3YlQu3V/6WEQlVMDtzoQ9KFYN4qzEeQcBKM9DMp6L5AiW1/IIkUQ4CEiHLVmTfZQmh1d2JYJUZJdO26ksXCLCjqDUBsHIJCRFWbo4z/RQFMTXQQJOzodwXpMOU49kHyLj0RnG4zO044lU53BKnt3ktKUQoHILI89JZOM5hiRze5GMBE+4i4JlEGO+FggTwCGEb/BIXgT4uYQcEcXPJ0YNeh2fUIZRmeOQWd6HQl5kqvvOxLj569Esg7yc+Ti/g7e1JxuIk6djVXWynJfGLfV9mYCqgVaqTKT+WQcmIemR7jI1aHK6gduufQ9TpIuUVGMwI+g67nbV11N0cIBqGg6g3nluo0t7zr23K5Q82rhlwTbk1y+A3VXKC56A1JvG2x2Vn5dV9Mx8/frV/0cvflb8T46amgnOxNjxZ0c4qz8J5RctHehDQ+g6nMUoaz8dU+jKpC+n6lrDH7IG0GHA6ZlK/acGUTWlZJkvPEWBAakkAPWDqFZHKQ0wXqch9VsyPqk4z75LtqPn/JeYdj6JltV3Y+zRG1FDd1TWuRq5dEyjxCmOqkZUrLjEXISGZ8JJoNlG0okRADaCQM0TkiK7gNFGd2ZP0pXsK4d3uUOJkCR8RApCSoSTU3d17gxKnkyZpSubyqFyuTyfKqTz43cQXobQyEqEx9QgMn40ohPHICaxATFM30XRSWPoCrkuthqRsk0Mp2q+ChGclyHewqMqEBpRBndYCR0w9yv7d8lxeDw3j+vm8V26nPI5yK2MOtAJURsdqSiEEA3hxSCE/0uILOf/Ix3MNQgTusZFwq7PC3QJWXG5IUfEKglwnXy/m/9/RFQh3foYZFQMoLTtWIyZdTna6A57zn4afRe/quAnDWkzeMEWqPae/zzaT7ybuoe6F+0nP4CuUx9Cl9wpJVOqm+o86X50HH83Oo67E+28MLavugXqcSRLxR3qMgCqA9NfAkMFxkMC1CwDpLJfSn/yqXTSr+o8lQ5+DIKCBKIlVKmS2121b8yY3iXLzpg5Qi+GVvxPjKm9RyelJ7Zc5baVfRvKL1jBc2Qu4qJqMXrOVeoKr5wCr+q+HeD94emFpBeWgZYdCqCStomLkMr/3aogqbFHCXApUDM2M/274i10n/0EWk+4GxP4Q62fvQ7lPScjb6w8fbMbiZnjCZNiQovw0kFoo0u0G5LR7G3xBEACJY4xUUHQIaJ7lBRblvtKW665S81huggMtyudKXoOIgmF6LgyxMRXUFWqY3Wc1FmmNWJUVjPS8juRUdiLzOI+ZJUMIKtsCrLLBpFbMY2agdyqWcirno38mnkoqDsKxWMWoHTsIpSNW+yjctF4qnGJmpbJ/BBxnb5t2diFKBlzNAqZcufXzEZutRxrOrOKqchmKp5VKs+H70NGcQ/SCjqRmtPK852IxLRxiE2uQ3RCFSL5f0XElCAsqogpPSFM4EvHcnHMZtAKWJUIV1kuFw7D7cogx8rZBvM7CU7i9yGATaBzlaoMuUiNQnhkAVPfscjkuZW1r8aY2Wsxid+v3NnTtupGdV9/23F3UJweS9HNykPwWuV5U3Jr5jJ5npOuZd7BUYx5NWC0jIVKgMrD38wPgjOmGkAJxeEAaijAOs2Jyr40N9ombnT5zRg7fQ0SsnvpRIvp4MWJCkTL+DnW/DE3v/388rxJEXpxtOJ/SgC/+rfOznlVKQmND4XaSn+SYevCCM+woFykZnaidfX9hBbTKwEZ3d7B4ekFqBmevvIFpzwHSUncJN2j1nVHWq73KNc5sPYdDKx5HT1nPYaJS69F3YwLUdK6Cmllfcq9RMaWIiwyn+5KHpk7CsFMqUOCYpRsIXEssAks5HSGSuIUKQJVpKXSdIse8bUzhY4sjcpAKJ2hQDGc+4+MLaHzq6ZrrUdS+jik5DQjnaDJKplM8A2ioGoGCqtnobB2DiE1D0X186mjUTTmGB2CAr4lKNVVwte+IuB8tEibNhhaEFhjuW9OS7ntwSXbUOM4ryTz2vs1HcP9ybkeTQm4Dcn/MY//0xwU1BLuNTORVyWwH0RO2QCySycjs7AbqbktSMpo5MWiDlFxFeqBb266aXmshsPJ74aglfvKjadviqQjuixzyIAdMoK8XV7Ls4/ocEcmEqhSR8uLFrdzOXO5zxLV73JUXjvyeE5VXaeooeKaF25VYOyQgbPVqFhM0wlVGTjFH6RegEqa7QWoj3QAeqQvFzgOKz+4mgGqPYtfBmS5QVUTFDQsVZ3pg4PFiZZDBhmxOaq+T0pquXpwcHmsXjSt+EeP9ut/9e/jxk1rGRU97lXNdWrwDB2Rhcz8AfSc85yWPknrpQFOQwqWgeWBJdN2aRH3TAW6AuENlOxT6iMVMKXT/YdM0Z5Fywm/Y7q9STnJ3DFzkFraRQdUTYfHNJGOUaBoC+ZUKYGvpV6OTkZE52gXEYZ2ptGaxFFqabUXoALJDBbIPBb2UrrEKsQTxsmZE5GW10aH2IVsurFcaSSpnoEiujYBSYkPWI5Sji6QFIRGizR4igwQFo8RacuKFVx/uUrM84SegNQDyMOQB5hUcQPPU6TOm7AcfaQCpq/molAkDUYCUqXZCqgFNaIZ/Jyma6KrzauYilw666ziXqTTcYubTc6chMRUutnEWkTGCGCL6bykdTqbENEfb6ymhvjars9LXa40jAXJM5GokfIETxHB68yn0ydUcwjVmrmopmMdP/1CAmwzuo67ldLGhpXhAuWJqO2EqQwaLaPxq0cXm8Fplg88JR2XO5ICQDSAAzUkqbx6r2pc0iGqWutvZEp/BiLiJig3ardXKBGiP8Unt/6uq2tmnl5ErfhHjbM3T/51XeXAjPiw+g9DlevUBkyOCClAbuVcyHOKxAV67ojxB6hoCDhNWqdLWuklBRdISl3l2ncxcMnraqAJ6dpTN+sSFExYiKS8FkQlltNN5sDlkro1ptsh8oA4ptkOptYueUhYinKIIml4sTF1thGMRt2cTRplZL20crvTWUAzqCwW1nxEM6VOZFqYktNE59hB59SPvMppCgAChaL6IwkmQrHhKJRyWsppiXTtUeAUHakAo0TIDJUOHxH3VaReC2gFTF7geWVAK9C6XyaBaCBQHkwGQEsIT/mfzW7TB5pK4qpFhKYCpwHPmUoCTnGleUy5cwWeonI6VF6A5CIkTjWHn3dOaR8/9z5kEqwZdK3p+R2EqzjXiXT2DfyOahEeVQ53eBG/v3x+l7n8nnP5G8jmd2xuKMvSlqnl2YRqJmEqz0YS2MrvpxgRMTVIyGhCdvk0lDQuRV3fWeqBcs0y2IcMIqJc6U2HBqmsowy36g/J4cX3+gPUDFJCdNystYhL61ROVI3UpEatr/w5Jm7s0xMmzGyYOXPm/9aLqxX/SDFj/qq4wuz286NclZ8JPMPFeQblITa8CrV9F6jhztS90VLfaSggQKWu0gRNeS3dRwx3SWD2XPASmo7/HcYcuV41FGTVTEUyIRYZU8p0TUu5VdodTGdJh2m3J/CHlEhI0jW6KEm1PdLB6UyDIzRT1cOFM4WPSa5FQvp4upAWpOW3I6OoE5klvSzAhCQLtgCgmABUQDRgYYYfgSEq4bySbKvkhadZsi+PTPvxwscLUQFrsYBUOVJD8lrOw4CoKDAch2rotqUCUHGhHunLCMjh5IWn7E//TDwAnaukuU4DnhpAFUT9ASquUwBKcBqSFF8gKgCVi5U4erOydGWXTFbVIFnFol5kFfUgkxlAGtP0lOxmwnWCBlem7hGxVapRzeEsJDxzERyii/Mh9jxdnJfXBGlwcDaCgrII1kzOZxHKJYhObMCovG7k1s2nCzyZEFtDyF2txkJVjzlR6bYGTYGfAVCRepxHQFgGkpHCewHaYpK8bifAm47ajJSCqZoTJUQdzgqlqLhxH+TktM9kcbVa6P+Ror1psCwlbtJ9oSGlP4Tp8AwfmYukhEY0Lr6Z8NujdQMhND0AVfA0QVTVf+qNPfKa20vr/NT1H6gO5K0n3oPawfORRWcSl1JPV8FUjQC0EZICyhBJvyX1lgYZSbel9ZtOUlLwEMrmYNrN7cVFuulIw6X+kZBMJCRTcplis7Bls3DmseDm00FKoS8mHJXEIepAUPBTLtIPgAp4GjTNKuEyA6ClJvm/X+QPTyXuwwzQYpEHombpAA0I0l8q3YEOJz9wmqUA6oGnSAe/AiiBqTtPcZ0eeCqAEp5UvnKfTN8NgNKBavDUAapDVKsrDQBRBU0DnL3IVCJAlbisuEcBNauoW9WzZuR3Ij2XYM1qQWLKBKbuY1TPg7CICgVHm6OIF1fC1VGAYHs+f0v5XCb9LwsI1TwFWwHqSHGswZlcl8ffVzni0ycim/9DZRvT/5lr0HzMFq2edNkNasBkA6YCxiYDkAFSdrO0OlANlP7w9EB08fU8DiG6YBvSy+awHBCehKjTpUHUHT56X0pK25EL2tqsB9D9d8fqK1b/v4bK2V2JkXWvhdvKEGEvITyLEE7nmZrRiZaTHlL3N2t96zR4+kBU5hVAtZR+ug5NaSzqPO33aDjyShROWIzErEbVUdwRkqDJRjepA1E5SMpml5Zao0sMxVTcKal2TBGik6qVm0yRjtplfciTOjbdzWky5mV6JAu5FHgdXASgWYHAp8T3abA0yQNQitv8MoASwJTnPJS4XJ2bLv18DYh6/5+jlLwwFZkAaXau5uW6PHWvhKVZ/iBVy/3h6QEoz0nJ+Cx9AeoDT5GAU0nqPrX6T7mYSZWIj/v0AJRpfCkhWiIQpQSmOlA9ANXdp3KgHmngFEeqVKArvwtZorxOpcycDqRltWJU6iQkJI1DdGw9oVrF31QZf2/FBGoRXSqhSglUNbiKc6VLDaFDJUxHBqWrqTOsmKl/C/L5XdT3nY2mo6/S3KkMb8eUvOmYayiC1BBhqWkbwSnSAUq3agaoF6ICY2Neqg+476U3qmnR+BVwhVazvJRpECVQw9yjP83P7z1u+elrgvSibMV/dcybtzyktKD/lBh3zYFwWykiHKWItBchMjgP2cUz0HHWs1DPMyIgtdvotKn3jg4tLVcDWWz6CANrtqN19Z2o6DwBaUyXY+LL4HKmwq46kGuNNGYJPFWncYEoXaUzLBth0UXKnY7KadbSbRY+5SYFMpJWqtTyaB0yAsp5mupMMpbp8hb+uQTOPB8IHlI8hgHQUkP6Og2aAlZd+nYKmiLPsQ8mE0zNqtM1ZB3/b7N8oCviNjqQSygDzCUs+Fpdrg5Iqcv1OExNRl2vPzzlYqCdqw5QEzzN7lODpw5QM0QFoKoe1ARQNa/Xg6q6UK+GQNQAp4KmWf4AJTQpBdDcDmSKspmZZLUhM6sdGZltSEtvxqiUSUhMbkRcwlhCdbSCqsNdRudJl0pXGqxEmNKlhjhkSpdKqAYFZSiX6nCzjDDlzyidRnd6AhpnXUGgblXwa154HaEpMJVHGmsA9YB0odaAJFUBvim85mS90kFKeLYskd4CN6Gi41SERY2G3VbCssOU3l4Ot7v6q4z0zsvnz58fpxdpK/6rgh96eEV+1+WRjqpvlPMkPCPsxQqghaOXoPfi7doAuHSWSgqglKTxhKqC5tb9mLLuXTQfdwcqek8i9CYg1J0Gpz2RwJTO46MIUIFlqg5MSr/Dxin9IyPzEJ1YqfplphO4uVIvKS3bOgC8zstboP1B4YWn1MuZxMKuySj4wwHU/3UAyXsCyACmWV7XKcfj1DNvSF4L2PXzrCWExE1XE0BVhE/VDMLGgI5oOnINVUxDDp1cTjlFAGVT6rWPZLlMuS3fb8izDx5DlFdtSLogzSboBIC6VF2mAUYvIJXM84bU+8zO0wRPw4GaAapLGpM8APWBqDhRvR6UAPWFpw5Ns0wA1dxnhwJoFh2oAVClzFakK7UgnW5SlJbRjFRCNTl1IuITBahStVQDd1gF7C5xqYUIViDVZddhGiwONUvVq4bF1GBUwWQ6xWWo6z8XE+dv8sCwiSm7F6QaTFUjlN6p3gec0rhENXO+2QCoDJO35Aa0rbgVtf3nIyJmLLO3YriY0rucYlDKf8rKbL5j0az5KXrRtuLvGaux+n81Nc0sTktoui3CXvl9uF1znhFM2yMdxSjrOBO98jiG9bvQf+UOz0C36n5lAnPaVbrTPP42VHatRmphK6Ki8+CyJfBLTeJVMZVKg0tavCVlF3i6M+AOz0J4bBHiU+uRmt+CzNJeFuSphIjWkKNcjsfp6FIgpWS9xxHp0rf3Ok8dSGYJpHSZIeYFnsxTsswsYzm38QJTQCpuVHednn1IPSn/B6qIcBFpQJxBYBBkemNJFlNU1UAirqpoMjIKe5Be0I10AkCJAEhn+inde0TSsV6k5gtEXUNFoIjSzZJ9KvUgldO0wl5enHi8oj4l6agvyqDSZcp16VyezvOSOmQlnm8GQZZBqGUwzc6kZKrmCb4sUZlMpypli+R/NQE7R4BplvosDGhq4MwWKVgaIjQVOL3wlPpOb8o+DEBF/JwyJW03AKpDNDObztMAKNN5L0TN0kBqVkraJCSNokul0wyPrmF2RIeqAzVE6lOdBXxdCBun4lKlwUrm3ZGViE1rQk7NPNT2CUw3anBcQmfqgammZun+ZJJyrjLV1byYjlaqCAjQZjrR1pW3on7wYkTFN2oQVQBlWk9lpjffPq1rcYZezK34e8Tq1ZX/0VDZ154Q0fBamK0S4Xap86RCChEbXo3KKZehh9CcTHj2rdtBgO6i89ytBnmQp0m2rroFle0rkZxejzABpT0JLrpNN1NwAaeLcro0uUMzERFXjLjU0QRBGwvYgHIrRQRTEQGkQVEgKfIFnCYNopobNUNUn+cyWX+4ADVDtNgjDXzFAnFD+rISk4oJxeLamSiioyqkSy6oHER+xRTklvUjRwq6FHACTTVmsOBqd+u0IDmTziajCUnpXiWnTURS6gSlRLqeRE4TUiZSjUgYNR7xSVTCOKaXDWqAlti40YihK4qKqeOFqg6RkTWIiKD4fYWHVyEstAKhIreoHKGuMqUwZymnJVzGKRUeWo7wMLMq+H7+BqgIEQt+RFSVJjqqqDgeM360UnTCGKUYOrQYnl9cygSK50xQJKS3MINoQzIBNSq7Aym5AvdeBWvjjioFTRE/s5xycZuEJZVFWCrJhcVodS8hNEU+8AwATLP42ZsBmhkQoITncNIhajjSdJNS+f2lpE/CKH5v8Ul0qPxcwiKrCNRSBdRgBVOCVGBKKZgy5Ren6ggtRmzqJOSPWaCc6aSjrqKjJBTpLhUwFTS9QPUqMECbl95EiN6G+mlr+P0QoiEGREsFoj+np7XeM7t3SZJe3K34W8aVV17527FVPfNi3XU73CEsYHSeyn2GFCElowsNS+9EJ4HZTXBOXk+XuWEP+i57B+2nPMAr6en8IbchLprpiiORBXMUC26aStelb6ZLB2ZYRC6i4ytZmCbQyXTTYQ6qlE8aHQrqZUqHJrAMJBPg/KVaw8XpmWSsU/VxtXI3zHDicWUbk5RLFBGKBdJiz9Qyr7xfjZyfK/WuLLQ5hXQy+e0siG3IzGUhkzuMspuoSUjNnKA0Kr2RQGwkDMcjMYXgSx6nCpm4FoFfTBzBEzMakVH1BFQtoVXDz62an1slP0NNbifBx3TMzQuZy1ai5KS7cPJ7cVAuXtxEzmBfuUzyLi/QFFQAV1A+HMF53A/FqSskP6BknZJsRzmCc2EXyTiVHuXDbuO2tgI6H+7fzmNRLroxF7MWt7MEbsLa7Sa8CeowgXOEwJggjqlXn0Mc4RufLJ8TLx50d8kEVmpOm+rzKTcoKAksdan+oHTest5QBl+blWlI4KkD1NOARIBm5rYjM+cwACoSgPpJOVHC06w0AjWV0yRe8OR7joqtZXZVAQcvUsqh6kC1E6Z2l7hTgWm+x5lmVsxCSdNxGDPjUkw8eouCpMBy0jHbvCJEJwlEBbR+AG1edjOaV96OuumXI3ZUq/qNuAlRkctR+nNmWuttzY0zcvRib8XfIo5ZudJdldt9foSj8ktnkHSMl5Z26aaUj6zKo9F03svo3LAXXVd+hF46zo7znkf9rEvpEjoRG5WBSHcywl1UWJqSAc/w8GzEJJQjKWMsf+wdqv5N6sLUXSh0m1oDA+cpgaeANCA8DZmgGUjiGj2vlcv0QlJJ6vJEnBdJHZ/Uq2oppLT60vmIuxHXQlecIZ3nsyaqkfPTqbSMRmo80tLHI51KSxuHlNRxSE4Zi8RRDYTjGIKRjkzcGR2h1JWFEhTu0Eq67wpVuS/plMuhS6BoL9dlmrcRmB7xx891mko9EJUBq9Wg1TYWEBNIzeB0EZYiZ7CAUJMriCCkZKoAqkueXeWVwFObunWQGq+duhwiBU2RQJPHEmj6SJ5GwHVKGlRlOyX9PQ4R12kq4nJddv5PAl9XKcLogCOZJsvnGpc8FgmpjUjMmMgLMR17FiGW3UK1IpUXstTcNqQRjOl5BKPIgCeVJfIBqFEHGgCYw8kAKDMIgaUBToGmWWnMJlIpSfVTJJPgxSGGbj0iuhqu8HLY3UVDnal0mVJ9Uvl58yKTlNuDkkmrMGb6GuU8BZqTjrkaE3WINjH1bxLAEqBNS2W8WA2gTctuIUTvwNj5m5GU08fvgRcvulC3Q7KOsp/j48Y8k55eXaEXfyv+mli0aFFMaW77BldwyXeOICl0MhhIPiJYAHPql2HixW+ifdN+dKzbiaYznkR59wn80Y5BZFgKwt1JTBfTlMLCUinORxKa8WXKZUoruQw8IQ0P0q1Ia4TQWmILxN1JA4PAUwdo0WgBaABJmmySvFZSbtFXmnMUMIvzFGhKI4bchy11joOqLk0cTDrdY5oUOLrG1CxxjROVa0zLoHtUoNRFUKZSowSSSXSOkrISjpFRdIwRdItMld1hlXASkg46Rjsdo11aQVXnZum8rdVBKUk3Ew84NWC6lcRliug6qTB5basgvLguhD/8YLpOXticQQQL3aPIMYLOb0QOHEfkcj5XOUo3YRlKEKkBXQggUZiTovMxFO4qQjiXRciUCvNTqIjrZSBseZqAAiYBaw+i6xyZjZAjshBMhRyRiZAR2bBxmVpHV+ogZJ0hAkcNoG6H7If7UxInqr12ecTtKKeI56oBVoOnyMHXDpnqgLUTug7Zlvtx0dG5w7QRpyLo8qLkwiXuXgaAlmqQDLpYwlWqSzIIS5FW96nDU5ynwFMHaLqSBkZDGUp+ANXXpWVK45IGUH94mqUAyvMZRYgKSFPEYfMcxZ1GxtQSpmWexiij/lT6pEo/VOl/Kg1TYbGjkVo8iMqOUzF+7gZMFJguvFaTguj1OkRvIjxl8O1bqFvRRCfaSPeaUTFXQdTl0EHK32JsTN3TqUm1VToGrPhLYt7qJaElOR3bQkOKf9TgScdwRA6iwqpRPvVytNJttm3cjXEn3IOCSYsJj0IWsiSEieMMJzR1RcbkIn5UJUZlNyKrtJewnKEBU1yewKuar42WV4GnDtBC5UI1FQlA/SFqgqUHnIGAaRb3K8eRVl1prc1iqpchsGSKnUI3mUJIpmQ2IoVOUkCZyvk0/XUy3WTSKKaSiXSScaM1FxlJQIZXwaUAyVSMsosElISeDO7ggSanDjU1ZAZnKaHAqThJuspQKozwDBOXKZCk6xeF2UoRxf3HR9UhOX4sUlN5ISIEcgn9/Io+FNUOomzsTFROnIv6jmPQNLgK3UeegsEl52Lmqoswe/WlmHfy5Tjq9HVYcNYGLDrvKiy7aBuWX3w1llCLzVpzHZbqWnLptVh8ybVYcNHVOOb8bZh/zmbMO309Zp54OaYddymmrLgAvQvPRuusEzG2dylqWo5C+fhZ/F6YVVT18bPmRSmvhen3eMQm0oFHVzELEadM6AlcVTWA5l6Vo6VzlXVKuiuV9F9VARCWRjWAWQqohIxHfI90drdxe49kGyePK1UFkVWIjK1HbNI4utYJSBbgiWtUzrGJF8hmfvdaKi51map+0+QwNYh6wekBKNcLPA2ADgdRtU4BlCI8BaKjeB4KpKZlCXSnUbF1cEfw98SLg9aqL0DVW/b1zvx2LotObkRu/TGon3IxAXqNSt+bFt+ASYs1B+oDUNGK2zGRr3PqFioHalSpSL1oVGTtywmRtXU6Dqz4JXHMMYOxhbkt653BxT84RvJHLPViv85AXPx4NBx/L7q3HsCEk+9H3ti5iIsjOJ2JTM1TdKeZSveViZjEUqTlNzE17yMQZyiA5ROKhsvUJND0yriNT8HTBFAzRFU67wdGVS/J7T0t2fr7pTU7T1pv9cYacRrpBE4a0zvNVWqSNFwcZgrnUwjOZBZ0eWRFLGEZyR9veIR0TWF6FVqlOUkFSx2aTL8NeHqkYKlJA6gAlakZASnDjUl/PNUnj2m3XPFDQ8sQTqcaFV2LBLqPtPSJyM1vRXl1D0ZPHETj5CPRPG8Vuo4/D9POuxJHrbsWi7bcgiXX3IkVN9+H4+94GCfe/ThOfeBpnPnw8zjviVdwybNv4vKX38cVr3yAta/q4ut11JVKH2D9qx9i/Ss7KE5f3YkrX92l6ZWd3H4Hp1zHqRLnZfmV3G79azux8fWPsOmNPbjqTV1v7OayXdjAbde9xOM+9w4ufepNXPToK7jg4Rdxzv3P4LTfPYITb7kfx177OyxZfwPmnb8B006+GN2LT0XTzJUYO3kBqpuksa2T38k4/rakgYppeqik65orleoBcbU2OmzbSErmxQUTuirlNwBK2QlMJYEn3a8ohO8PCdYVImCli6X7crn5HTBriI6pV41wklYnC1ipUfw+NBAKSJuGgNTzmlLAVfA8OEBFHoDShSopeBrS1qWKuC+BqdSRhzPNd/Dio7pIqc77IoEp03y51ZQwDYuu0VL85tUYN28jJi0hQJm6i+RxKpOW3YpJy29TmricTpSv8xqWEaL8HCSll6n0rgmteyHGPbpex4IVhxNlZRMycjIm3eYKKfnRLinhSLoDpmTJGZ0Ye9rjmHj2EyiceDRiorPokhKY0onrTEEo0/bImDwkptfTafYwTZ6pA0/qGQlL0TDg1KS7TwVQP5lA6oGrv2Qf0ldQurKIs8yls5Q0jelaagZBSaVR6YSkVnfJK7w8z4cpU2zCGF7lpQ9frQKlU+Do1GTXp04Rl3vklqkZmjJwgwwjVkZXUIqg4GKMZGo9gho5spgFtZwpJZ3rqImI4vlFNUxHYu8xSJu9AlkLT0Tu8Wej6PzLULHuKtRedTUarrkejTfyx37r79By573ouvchDD74OOb8/kkc/funsPD3T2PRg09j6QPPYMUDz+JY6vgHnsNq0YPP44QHX+D8i9QLOJHTkx58Caf8/mWc9vtXcMbDrxK0r+GsR1/H2Y9tp97AOY+/Rb2Nc594G2c/wfnHXse51HmPb8cFT7yhdP4T25UueJKvqfO57Dy+lm3Oe+J1vqae5DbUeU9tx7miJ1/D2U+9inOepp59Dec88yrOps545hWc9jTP6ekXcPJTL+CUJ5/DKU88i5MfewonPvo4jr3/QRx98+0YXH81Os9Zi+aTL8H4ledi9FGnomryMhQ2zER6cTeSslsQl9qIyLg6grAIQYTqSMJ15Ei5xTJPA6aAkxmUAU4DpjYBKKXWyWvC1G4AVXoihFYgIqJKVcsIVJNTmJUQZh54msA5FJ5egA4HUS9ADXnhqcBpFrfX6k4nKajLbzaCoHTx4qs68IsTpTx3QwXLACm5COfvOrP6SNQMXESQ0oXSdU5aRnASmhM4bVxKLSNEl9+BnDHLFDi1OmYNouHu2u3R4eOtB9UdTiQlVebFRY251xFS/LMjmFdx/gjdtPVZjSsx+uRHUNR3JuLoLAWcYU6m6u5UREZmIT65km6zGbmVA5ojVC6RUKMEpFqdpiYvRDUZ0JThyzSZlnnep61TEKarFGcpLeB5Aky6y2xpWaWzTKezTCMUpa5SwVIBU1o/NYBKq3dC8jjExDfwx1fP9JtXc6bfkmrbxCFyanaPTpEOTAVIHY7qOdycF/fplHrOyBpe9evU6O5yjPLKyWhrn48ZM1dhwZLTcNIZa7Bm0w3YevdDuPbRZ7DtmZdwzSuv47rX38S1r76Ja157A9dsfxPXvfEmbnzzTdz85lu49a23cMc77+Cu997HPR98gAd27MDDO3bh0Q934aH3duD+dz7AvW9z3Rvv4p7t7+K+19/BA5w+SN3PZfe+/i7ufu0dpXtffQf3vPo27n6F+6PufpXvefU9vud93E89+MYHeOjNDzndgQfe2In739zF6Qe4b/t7uFf0OrflVHS/PpXlcty7RTz2PUo8Ll/f+ybPQfQWt3+b27/FeU4f4Dn//l1ND7/7IR57/0M8/sGHeJJ6agen/B8f+eB93Pcuz/Gdt3D/++/g4Q/fx2M7d+Cxj3bhkV0f4ff8DO59dyfu4Hlf//R2bHnoeay98zGcf819OOXi67Bk1YWYNft4dHbMR2lJGxKTaulixeUXq/pUcatBv83GiN9kY+QRhOyIPC7TYKrgaS/WVaJNbfprAsXtLidQq1UVTiJT/1Ep/F0Raird16UBlDAcRmaA/nXSqgmMFn1pgHK4i5UjNUCqDYKiwVSqAJLz+1DRcw4aF91IgN5BcN6BcUtuo27HuKV3YCzns+uW0IUSotIQyc9AqpXCXbUvR0fUj9YxYUWgsEfkloWH1jzltJX8LC2eDrrP2FGTCM9VyGk5AbFpYwnTUVQyIsIy+aWVIy1vEqE5RUuvVUu4F5zDAdSAY2B4Die5I4WpuPT7y5cW0lZkSLcgSb8VLDUpd0lQptCRqMp4pjxR8WMQzrTMHUmHQnfpYBpuc1OEoreOUpMHnka6TVBqI30X0WFXIjFtAt11t6rja597MqYdfzGOPGsDlqy5FsduvAVn3HAvNtIZ3v7CawTUG4TQm3jo7bfxxPvv4bldH+LV/bvw5id78M4ne/Hexwfwwcef4P2PP8N7n3yOd6l3PvkMb1Nvffyp0tvUu9R7HnH7A5/gvQMf413qvY8/xgeffIydn36Cjz77BLs+PYCdn+zHrk/2YdfH+7Dz473YcWAPPtj3ET7cuws791E8h48O7MZuLt/L9aJ9B/ZiP9+zj+/Z9/F+7OF+93E/Bz7dh/3UPq6T6V5O93C6+9O9Sh9x/iP+L7uUeEx5/dl+H+3+/AB2f/Ex9Qn2fP4J9n7+qdI+nq/oAOcPfPEZ9lF7RX/4HPuo/X/8QpPMK2nrd3P7PZ99jP3c5wHuc/8fuE9Od312AB/yHN7j//DG3r14ZedHeIIAv40ud+2dv8eZm27CcRdswoITLkIvL2xV46arellJi6ULVchIgofZVgh/93bpBkaAsCwQIJoUUAWmpmXSjzKMv6fIyFrExo5GfMJYJDH1V3WZKvPRYCrA+/tAlPujOxVJii8wFWcaGiHVTEzxFUh5gVDKocPOZrZUiLiMNuRPPA61szcRmnegYcmdGLP4dowRiC67E7ljV7Gc0xyEyGcgMJW+wXXb46LrLCcaKNwROeXu0IpnHHLl0Vs2BTpJhT10VXX8ANNp59MRHp6LhFF1yCrRU/Qx0slcd5xKvvAs5DZGGu4DURHBqFL3an3QXHGV+rICvi6onqZ1OC/tVQ4zM1s6JxOSGY3aNFPm9ZZxgk3rCsIrccxopso85/BaArOGwKRkquY1gDoIUFWHqcPScJVq+C8WEIerTHUGz6vsx9jeJRhYfi4WXbQNJ19zF86582GsefQFXMG0VOlJ0Su4/MmXcfkTL2PN4y9hzWMvKl36OMVtLzZJll0i657gPLVG12X+etwkz/IXeYwXcQXnr3iczovTdU++gPVPv4gNBMWGpzh98kWs5/L1XH4lte7/Z+8twKu41v3/87/nnHt+97RAbEdJ0OAuCRKS4O5QCgUqtLTU3VvqUKS4uxQo0FKltKW4E6IEdwhuFSpUvv/vu9asvWdPJkLbc+8pJ/M8n2dsja291mfeNTN7hsNTJS2ZTmZsTGGaFMxS7NCwCT3bwHFhFtc1l+vVpGEuo+Y57M92IOk0Muyclsp1mrTp3v4sSWMxeyunc92z1DHo45Dh2ds4b5vMy9BweCbTzrTG52zLxBwZ3pLJ9JlcLgPTN6czT9KZZ/I7CBnM2wxM4u8jv9F0/l6ztmVzXdmYxN9i+Aer8cqC5Xh8/ALc/uwYdLj1WZbDW9XjZmEsAyLSYEaoIlePtMis69ZOZLpCbsSEN2G0m6T+tFCWZagCWzwiVCU8ClVdUnJI8PfgFbPV/Dc3o2IrMXgo0wxhjLzlDVEhoXUZJNRjma/H4KAOW1v1WLfboHrTB5F01ywK9CMKdDlaUaKtn/wQddo+T4GylRXE4wpuzONXkWha5TJFN5b8uubN+1QvVarlRrkTLE2VMPUISUOeleWuXDzH66Mkm0Cx1dqhdmJ/xMkdcBFnKyPNvAQq1y4LEKglT/3aMjbH5d85DUWYN6FWnW6oyYiyBgVZo3oHQmGyX4VN5EpV2qmbLaXZlIoq1QLhlGSYkqMgf52zKGlhxi2BhlCcSpqMLOVOuDw/WCO+J5I6DsJN97+O+96cjlcWfYbRK7dj/DrKkJVyMivgJEuQ49dqMTqZuF5IxSQyhWk1aYrJFlM2CazoUtm9MEpywnQ+UjWUpzCNwwqmc6KXtdKTKYIIV5HCfSAUqcIan7Rxuz8btvOYU4j0CccnWEzkcnqeEyutF1mvnBxSuJwNGVfTNX7z1HxO80NONpqJzD/DBAv7NGES82simcQ8lt9Lw3GTRk5wAoflN1Vslt+Wsl2XhnGrtmPIslV4hCfMvk+MQIueD6F2o96Qj+1JMz44gM39QDb3JTqjPOWRM/MEhcYnVCNYafqXKtUc5SgsE6FWo0jlhpT03cSYL3ks4xWp92ZUR9YVucbfknW4CQMHeTUfTwbh8ipIS6QkqlQyqifdj+Q7p6O1RKRPL1eRaK1Wz1CgbI0FNKJAG/O4ExAZ3iy9evWWRc+JSvf0kIfL1q7VbTEjz1+1PElYQ55F+eOzHxnVBBX5o9RmMz1eiZNQnApLnP74BKqa7oJdmmrcijQpTflLnvxHuYa8j1MiTNUEpzAZZQoizGoizMptUYZn82jrJo9EjyJB1fSWSJIRZRiR13aFU5SCEmZEU3giJK18H4YFgdFBeMlklGfhatz+bnQe+ALuHjINz875EK+/vwqjvtyGcevTSRrGrt2BsWtSvIyzGL9W2KFxkegES6KTWUmVMB0inWrJc5rAaMyLmeYQ4jTKQGMTpx9pjKz88S2v0/iEymjUhSmKFKvPaYxEJ3PcziTHeG5kmYKZ5AZF6T+NJyEvWop/LJSqEqzIlHKWFgF/O/V7cljLlb8ZI1YR8IjlGzB4/sd4YNgsdLv7JTRufReb/u0oRpY/uR4ewFYbI7VwnpT1nyBErLYIlaiWjYyzzEbyJC7/LpN/mslLSEyEqqUqMpRrq3Z8klTz80OeGLDkWUUuJVTtwPVrYiu2Rumy8jQJW1oUqXy6RAhjNBpKkUaXaYGqjQei8S1voeUjSxiJfoBajERFnp5ALsNjDAlojLIxrVfdfPOD/9n/nX/kkcFBtap1n8Uf9WevPC3kQeQyFduqB8uVGO3RphGoi0SVOJUsKUkverxesrwQQj+oLg+pV1I3deQxEUaVVduzGa6FqaLMKm0ZYbZCGXmYOCoZwdLMZsEM8rAv1ybVDR9i3fmW13OFyTWb0CQW1ESEyA/OHzuSspX/i9dp0getej+C/tIUn7gAQ9kMH7NmO8ZJc5oVRIQ5hkIcvXo7RjECGU3GcHisHaYXlEiNRK1K5xSpbsKzoopEvSK1EIESnzCd2AVIWOEFEWBueQp5CZTzSEHyNBhxGmTcLkgRqFOi7lLNLU07/qJ0wy7Pf5VAtSAny7BEtiwHCuvkJ30lUoHTJe3ULZmYti2LeZOJyTzJjvhkA56ctAR9HhuOpA73ojLlFSmvtZPmPqNUTyClqq4hEkuioSy7goeilS9nynV2hUiVLaXSZVurd4/K3X4lQBtV2QLTOOTqJ08j0I5amow+DRKJVqos626v/vQRU1qeJGnA+mNJVGTqqcvIuS7CwxqgVGw7VG/2CBrfMRHVWjzOY2FdE4kGUqKBjVGudLsld97yQElLJ/9ZXUrKwL/Xrtvr0bCQhCsedWFcrv1Jc7aRerhY/ksszW4dUVpNcSuy9BOoTaKSRiJM/UgSm+VN5W+Qt6vrpdXj5FMKXSjNDoxo+UNSkvIIkUScNWrJnXJp0rRXZ8joGEaYbPIEs8AF8uweyDN3EIdlXO58eyhLDwtfCH9IT7F4hN4Yhwj2YxgFxPKsHp/UF217P0pZDscj4+fjpcWf4K2VGzBpKyOK7Sz8WzNUc3AcK8lYilCiS5HlGJGmwSlPg5Eol9MSJetyM0EhlVAqJKXASmjQUag0tQshT4FpjUCdmHmuyylMWp8o/bAJU7HFxxSRKJms0HI0EnWi5nvT2uA2Ci9QuzRd4LFMVDBq5DHbcRNknnB5w2Tp2+fxtxGhGsxlF5luhuU6t0SmU7ftxIwdezEr/QCmbs3GsI/W4nGenG9++HU07/kg61APREdTUqxXIRRqUPH6CCnBpr+UW688WZaJfEEz2CIkLEm1pEqWaqFucIn8JIqUS1eVGWiYYX+xikxtws1LnhYVFfLehVYUqbTc6AARKGUql+ykH+phEz+4LiKjm6Mio9KYCl14YqBwGZgIoSEJP9Ste9PLOxfv/M/7PEjLxL4dI6Oan5DrOAoKNLp0C/Was7gWd1GMvrvn5hqmgtOMMBta/QYiVUlLcao75RJlynfAGWVWphgryb945O+O1dupf/bUqNUZtet0Qx0KVa5vyo9ZumwLhEUmKlEqaXKfgrhPChkWePYLKt4QwcXqIzyoHsqWb4pqDdgU73MPugwegoGz5uLFL1ZixJZtGLud4krNwOS0LExKycDErWmYwArtva62gVGjQMmJCHMJ1I7MszACVeK1MDJ1wwjWiFRdH1URjUSihBXYft3TiE8LVqOvmVqwUvuw0tmxlvHhECjzwB/Ok76Rpg0jwUkKLcqJLiiJWun85CnT7IKUZrrBOa6maVFOdDAhD3wCtQ9rJtjwm8c8MdhFKsh8+V1UVGphxhXMb2k96KZ9BvOI0ei2bEzdvgvTduzBzIz9mJlFmabvxbjUbAzdmoqnPl2J/hNnoPUTL6FO1wEo37ArSlZoSWE2RkDxeARSpnItPoStqxD5giblKQSHstUVJk+KyPeamqNM2VZskbVWl7IqV5WbUnaRulAogWqJSj+WEWnpMvLXY7nEwKDEIyKNI3LjLI7RJ6NpCl8uUxiByqWLqLDmRxMa3PWfdVMpKalzQGRE8rshbGLIXUZ5uWrl2t0pyAFo2FqizLs4LBiB6nERpGAiUZGpuY5ZPb4XqogwVZRJaVbT0qwkf4OUCLNuV9Su3xN15PO+8inaSow0y8i1yqYsKEkI4j4E8QcK8jDapCwDAuNQonhdBMgd0JB4REQ0RLVaTdCkV0ckvnIvmi4aifYbF6HXvpW4+2waHj2RhZd2s1mVlorRKYwst1GMWwlFMJ5MMNELK67vpgbnUWoiuXGUo0aGKT1reKzACNWv6S7SVXBc4LSxa0WqlKywehtGK7ZyeCuX285tbMcEppvI9EqgViSqJejepDdSNOmmyDKyLCXsxVqXFxU1+ZAbSP4CFWFqVHS6xeAvUBGmijhFnETJUvJtE4/Di4z7izTfCNMpTCVN+7BPoEaS4zndi4yraf4izQXnSxo31M0oK51PqHpcz9cn2IksG1I+7Mg0ac6raFREujkLUxh5Ttm2iy2b3YrJKbt5wt6F0RTo65ksk7uy8Py+TDx1KBOP7N2Gu7asQK9PFqLtzLFo/MxTqNt9AGLZCpPr8nJZKjBY/oCRgEDKVEu0GfvE05TN/GaIiGymXktYPralkmkV1jNBS9WI1R+fRKX57sPIs6Ia5jSmleHyFLw078MjGWWyKe8JFXlKkKWl6RUokaZ8lYo3Txg4cMo/Lb1c/91D9z4dHxHR/II84yh3ocuWb4OENvoFweqvkJRmg2YUZ1NNnK0vbz6Xt5zLy2yrx99EYXZCheptUb5aa5Sr2hqx7FeowbMkp1et1w1V47qjav3u6s045Sq1Q0l56Fz9/1tfE5K7lvrFGY0hbw/yBNRBeHBtxJZPRL24jmjf427c9eIwDF70PkavWY9xGzdh3A7KKiMdY1NJCpviIkpGO+PJBFZIJUlTaSUKskNZCJOt/nRGphkHT+LwifM4cvI8jp25iBPnLuHUhcs4c+lrnL1Mvv4GZyxOf/0t++Srb3H2qysWMu0K513BKQ6fvPwtcsjJS9/iFMm5+A1OXPwaxy98hWMWR89rjrlg5h05d9nHWR+HhTOag2cuYb+NA6cv4gCPYb+ghi8wjUaGD5y+wOm6Lxw8fZ5cwCHOO0KOnr2AY+TIqfM4dPIsp+vnTg+ePsf0PvRy5JSs4wL3hcvIcuzL8CFuX6Yf4Hzh4KmLnH6J8w2XuS1iOzY1TNTxnb2Ew/wdhEPkIMfluPbxmPZyfdJXxyl9i/0ynezl77hP4DFIX8YNMr6f0w/Y4fHsPXUOu3m8u3MI+7tI1omz2HnijCKbw7vU+FlkqzSyDNfHY5RtSp4e5D7IcR+S34Hb+SRzH8au54lX2MCTqJyAeHKauI3y3k5Z88Q0Yd1WjP5sA16cswx3PT8O7Xo9gdrxfVC2bBv1tq2wANaNwERCobEfFtiErS/9Rq6osESUKdUUFSq2oiDbqfsGVVRfI9PkJTdOcfphSVfk6e0zgpU/g1SgVOWabKQ8BijRsVwDJdIPCU5AsEVISNLRChVu/s+5oVS1eq+HQkOTfwyWZnFQvPpnTkJreSGHNMfvQbwlz7hkRpw25D/l6i+SIsZazOSazPyazHDKskqdzoxAOZ2yrB7fE9XienJ6V5St1BYlYxhpyo0enrHkeTJ5MNf3xiFNmNzECq6Peo174r6hE/EKhTnmy3VsHmVg6g6e6benYxJlp6+B6UjSCHIyx+X6WIFY4pzMptUkCxlemrEbH+/ch4937cfHu/dj+Z6DWLH3IL48cFj962fz0RPYfvwEUo7nYPuxHOw4fhKpilNIPXEKOwQOy/SUY6dscPwo07GfxvF09tPZzzx+WrGTZJNdVl/GzTT7eBaXEdJlXUfIYe4D+zvYl+G0w1w/keHUI5o0iwwuk0myyE6SffQUdh07jb2Uwj6KQNgrQhBJyHZPaLJ4TNk83uxjJ7CTx5x9NIfLa7KYH5lHCIczuQ2NXr9sx2xLwenZ7As7ue0sIn1B9mU3tynb3kOkL+ylnPaL6NjfR7ToLOmLJC0JHuL4EUpLTnqGo5x2SOaRwxS8jB9lmiPsH7aQeQcpzEM2Dpw6y+1JXnD7PPbd/D2z+XvJce/y7j+Pn8e6U46dZBw+znw/hnRi+jJd8kfSrcjaxxbHNrIdEynRSQYZJ9KfvJ5ROyNbaSlM2yItjlSM+Hg1np++FANfoFD7PIE6cb0RHdEU4ZRpaADrDwWmoERDKTB5J2xMdFOUL8+otEobHYkqQVKejDK9WNLUYhVxClqcflCeXqp38D2cH9lUyTOYAjcClX5QUJNv69fv9h/zgP1fQ0IaTZYL2EqgbMbL214atzICZdNcCVRLU/5bXkfegcnmd3X1Wjc2CyjOKrU7ohpFWqPBTaSXF3nnorwdXR43ksc5QlXI39CSpw/17wYRJ/uly7ZD3XaPI3HQeLS9ZwieGj+XBW0rZqTtZPOI4mTBmkjxKShCwT+ylPEC4LJKoJSwQYQ8aVsaJlCiCg6PFzh9HMc1aRjL/hguO4bbGs2oYTSbqnZGsTmr2LgdbwmMNkZu2KZZ789bNkZZ2Kf5TWfle4sRyltrCYdHsm9Q0xRMkwvuwxr2ySiOK2R4DffRTF9t2Kp4axXXy/G3Vllw2shVPA7pc7owQuC84Uw7fNUWP0Yw3QhOF2S+Gl8t090ZaaG2o7bFcVmPjeFfkpUctpBhNY2M+NJajry1RqPHOV+W9bIVw9g3vLlqM4Zx+TeJd9qXmy02+for2V8p/U0YJnDacDKCy49YxT7TCSMt3uJ6JA8lL32XbrYywtxGHAIlSqqWRPU0itSSqUh0Osv9DAYNclll4trNeH3xh7jn1dFod8vDrK8dWKdYtyRCVRLVIg3zMCqNTGL02kJdIqtYWV6Iwn4lefa0jSVRLdLcArVJ0yZP+7BEp/LNp7DwZK885UmCoJDE75s2vauP5ZfrvvtrYGDcfDlwHYE2gHwGopEVfTaQl3Iw+qzf5DbUiu+FarUZWcqr3ZQ4O6jxGvJNIoqzZsNe7FOcjDgr1eyM0uX1WSqUUrTL0qCun5hxechYRaKNIS8Djq3aAw36jkCz55ei2X2j0POBV/DMlLdZCDdjSooVhaZkUnhWJGoJMS9UpEnxKpheEBkrWDAn58EkGxOFlHRMIONTKNXtlCkFO4aFWhi9hQIlozZTTOQtSlShREoJCZSoYIQ6gmL0QjnaGe4YH0FBjlhLWZDhHLaj5wlcTy62555GaWq4DCu3D67bKx0tP8MwkSXTCMPU+FYKSCSUD1yXT1Z2KCQbw/JCCUwzlBIb+oWwSTHEYqgSmy2dhW+caRS+ecIQA5cX3rDx+sqNCj0ufYsvdH8IGUq0ZDVKqtxnwZwMlDyZx2OZ1+OZ7yJPI1CnRHOTotmgrz9PY1mbmZqBmekZrAfrcPcrY9Gk7Z0oXaY165AlT0uielikKkGJ/L00iemaoVxsS8SyiV+hYmuvVH0C9Y84vTeg5G6+jcrySJRJIxEpm/YqGuV25AU5QcFJP9Sofc8dll+u++5vQUFxi+TRCfnrYqAl0MYUaENGn/LXyZpxN+lXu1Vvh2psqtes2xm14nqgFmWppKnEyTRssstnKKJKNkWYNNGt5rkWaG6JeuVJVARqCVRJNEhe9NsIZSp1QfX2T6B+75eQ0P1RNL/5UdxEmT40aiZef3cFC+ZmyjQT01KzMI39KWziq0hSJMkC55WmxRS7OC15OsklUArTjkjUK1JKdNy2VEalItEUhRIpI1MTiboJ1E+klKcPRk2UZb5QlF78xrm8K4wcDazI/nA5VnIfFLTCX6wyT8nTJlSNT5AKEaZNmgXjk6WRjxORqIKSNChhUqbSV9NMmjxwCtvI1S5ckewQA8XpRIRpx0jTLk4dkTICZR5I9KnlyeiTv4MRqJGnFqglSUuUdiZvlBt56Zgul614gn5r+Wo8O20Ret7zIuthD9aXRISUYN1R8ky0yC1QBaNDeVQqPExefpKsolJ5rrpi5dYqCnUK1E2cBi1QDtskGlO6BcWpBRrsSfy+fv0+/zER6N8CA+vOUwdOycl/v0uXa82Isx9qspku78OsXL29ej9mrbieqNuoN+om3ILajXsrcUq0WblWF5SJbYNI+T851+FhRuofzl2eJvL0RZ9anuZfGkKEpxFpiAj57ERgfUSGSdO+pfqrZoS8Wis4DpV4Fm3coj+63/ks7nlpHJ6f/g5GfrJK3VGemboT08k0RqoKEWzaTsxIz1ZM57CMq+lkamqmQqJbYbIDJc8d7O+QPgVKTCQqEh2/XUt07FYtUQUlKoy2mvOjKNBR+QqUoipQoGza+sFpBQg0V8QpWGL0CZLr8kOmmXkaN3kqgTK9nzhN3wslJqzOA9v84QKH7fjJ0AiTQvNin6/QUvNFhv7CzAsTqboJ1E2eat1svgtmX83lCLmEMIqMYZ6PYf6P48lrvDTfKU1B/v4qTxpMZvN8Kk/s07dlkEzVn7E1A/KHiFGfrMFzU9/BgOdHoX2fx1G3YR9Ey/scgqQ+UYZOaTIICvPoaRKJGnlKffSoeqmRP5XII0jy//wyqnnPKNTcsVd38fMXqMIWhcrz2/LQfzC3Kc+vhoQmXkls2r+T5ZfrvvtrcHD9KUqglFgQM1f+VlZFHjmSTJVHIizk0aNa8fJBrh6UZleUr9xe3RCSv6LJD6NEaaRpMNO9+EeeJp1ToOrNNhRoeIjIMh7yXZ5Q9UmK2ggrUZvDteG5sRZC/lmD1ERE8bqQzyiXL90UNSj9hGb90KbHfeh25zO45aHXcfszI3HvkMl4cuoivLJoOd78aBVGfr4BY1jBx1JC49lEkmhzesYuzMreizm792PWrn2YsXM3pmftwrTMbLITUzN2YkpGlmISm1IT0zIwgYxPTWeTPpXoR6bGGJGyKS8C1RKlQE0kSkZuoJi8AuVwgQJl5XQTqMEpTTsFCNRci7RPyy1Q63qnDCt0c99PoHlCsVno5aSvsc/T87WMvAIVKDiFXZ4iMIVtviU2f/xFaYRtn1ZwFKqb7QYjW3+JblJ5OHINBco8H81ocywjS3m+WP0VVB5F205Jpsi/l9IwQSS7Yj2GvfcFBs98Dw8MmYJ+jw5Bu16PoF6jWxghtkcpikk+4+IJkPsG0jprgvDQRPY1XoEqeVoiVQLVElUP6DsEalD/zpN6x6i0ZFQySpdqhvKx0qwXmVoSzQOvPEks08s/p0Se8i/AkLDEyx1ad2ho+eW67/6/CpXavuAJSf5J/hIZLBnOTJCQXiQq0afIU2Qqb2SXKFDexh5uSdNJbmG6I9dl/F+44LwLz6aJuhMv8qwPT/E68BSjNClQkaeSKQmzCBexMk0Y04QKNwhMcyOnCxwOu7EOIkrUR5nwRFSJbYc6tbqjQYM+aJJ0K5q3Hog2XR9El75Po8+g13D3c+Px8Juz8fiYt/H05EV4bvpSPD/jXbwwaxkGz/kQL83/WIn41aUr8MYHX+DNFavZbNuEMYw0x8vlghRWlHRGwRLtWkzj+NQ0ypfCnZxK+UoUu0NHr+MoXRW9Wow1UawdE9GqcX3dVd/I8meURC+bpC+kUNpyOYHDjHgMoy3GcPpYIv0x9ulkrIKRtYLLrU9l1MymJKWgUDfHTN+C0dVIzlNwfJSgom+JxDXmOLwnF7lmbKJ09r3RuZxY5GaZ3DyjkOTG2SgZtvrOm24mrf1EIqibb9wvtS/Eu7+yjELvt1yHHs60Ci7nheMjBFmH5A/lN4ZN67FbMjCOUpzA/kQyaTNPpBtS1TO/Iz6jaD9cjVeXrMDguR/i6SmL8cioObjv9Sno//hwdL71GTTtcA/im/RlXeuIKHl/QyAlKf+hF1kGso4ESZRpfTSQsowITVLyFFHqZy71c5ceSatEaiFiJSoKVfJ0F6gXK9BRrUIj1JLJ6hM18l7RCvJ8KH1QSZ4dZZRqpyKnRcU0N5Enm+9NKOIW+1skdqls+eX679q2GtglNLTZ1yoTBMotphRDe55ZKFd1VpIXHShp8keRu235/ShOWbphF6hdnPJ4k+/lC4xQg+JIPTY1mqIsiQitj6AbqiPon9URcmNNKyKlQBV1NQH1EBFQ30YcIgOFeEQFCA0QVYIUb4CSgvzts1gDxNwYj+gbyI0NUCogAeWDklExpDkqh7VAlfCWqBreGtUi2qB6RFvSDjWj2qNWVAfUju6IOqU7oW65roir2AMNq92MJnX6ommj29G65SC07/AAOnZ9GJ27P4ouvR5Ht95PosctT6Nnv2dxU//ncPPtz+PmAS+g98AX0eeel3DLoFfQ975X0e/+19HvPiL9B95A/weGoP+DQ3Hrw2+SYV76K4bj1od89H+Q04SHpP8m+nLZW+4fgj73vaGQ4b5cV3+uqx/p+/BQ9H1oKKP1Ny04/sib6P8ot/EY1/nkSPR/ZCTTjUAfbkv6/cmtj7yF2x8jT4zC7Y+/hdseG6m49VHOe5xw2f6yvPQ53o/9fk+w/wTXx3XKawFvfWaU5lnd7//MW+j31EgN0/V9lNsTuKxmmFqPGe/3mKxXr7sv97ffI4R5Iscl9OdxqGPk8fZ9gMco+XD/G+g96HXymqLX3a+i510vo8edL6HHgMHoccdgdL/9RXS77Xl0vfU5dWL10udpdOJv2OGmx9Gu+yNo2+UhtOpwP5JbDUTDxNtQO663+nZS5codUTG2LWLlM8yUUanopoiOSFLfuApn9BdG8YUHU46sU/JRwEhKT/VJhB2RpwiR9SaYZVfqTLmK7dC86wNs3o9DtTo3qRd6hHuSvPI0AtX1tACBOgimnIMpc+mHcDwsvIn6O7W8vKccXSDfAFPfASvfClGMkE3kqb75xe1WqdxlaZcu/YItvVz/3a19nq4bFtrigvrrmBKolmioehmHkab8GL4fRD2ywEIgGez2Iwj+0jTNdkugLAS62WEkKuJkYeLZL5LIpwM8lF90ySZshj+L5+Xlt3Pfw4PDp6LnoBeR2PYOVK7RDlFhcYxK2ZSnTENuYP8G6VOsjELDiklEKp8foVBLUKAl4lGSZ/donrljuO9CKR5HaZ7pS/PYypCyhqBElA1kP6AJypXQlC+eqIgtJiShgkVF4cZEVLCIvZFpSbli5EYWdukXk76mjJfGmuIcdqFs8cYoy/ll7cNcTo9z3wTuV9kSSSQR5bhvgtpP7qNgppn0ZQQuo/pmuASPv0RjRanijRQxPLFoGqJUCaERyvxTaIiy/9MI5Uj5fzZG7A0JGh5nLPetPCmn9k+j182opDAwr4VSAvPeEGMRzekKphVKct3RArej+hYxPI4YCsVQSpHAYxC4Th63QoYNXEdpL8wLUkpgngsxHFZw3dHsl2QelWSeRHHdQiRlKMgXUSNZziMZyQlRLNslWbZLsh6VDEtSRIcls99UERUqJFOeSQr1ZVV5JEn+Hy+vjJNoNLghIiMSUb1ON7Tp9TDueWk8Xn9nuXrnwZwdu/DSzA9Rq34fSpR1icL1i0BZj3UzPnf9zAsRp/xNWolUDWvkJnOoBDcUqly20wEX/SCOUKhP3fxcpUanpy21/Gd07ds/GBse0fKkFihRAtUSVX1Lml558gfWNFYZXTiJ2gQqzQRLnF6BqsiT8mTzWt2FD2uMxi1uxVMT56u7kVOkWcymqfTl4vsYueb0ySo2pT/AA8OmMZoZhq53PYtmXe5Bvca9IJ8Yjo1tiTKlmyImioVXrqeKTG+oi4gb6zP6ZCTKKDSahTSGBV/kWSaYorEoF0QJCoEUkRBAMRoorApCcYrTDTOfSFpZ1k45A9dbjqIuF5zkR3kbsXYYEccGG5pyfjOUD2mGWEbJQoVgHxUdqOkqnaR34GmqKG+jXEgy4f7YqBDYFBUDGJWTSl6aohKnK4I4n1Tgvsn+eeE2ZD8N5Qwef8oaKJWyodLXlLEobWAaoZTA9ejxppoQ3S/jSfZSluN+MI0Pzmd+lrPDfC4XxGMmZW2UsVGaZUQoxd8lhtKKZr0RlChZjhWUjBCtoDjDkwmjUBJFiYoww7kOaaqHshxKRBodkYzyZVurT9EktLwDPQa+gAeGTMZr8z7A2BUbMHVDKmZtz1IvkVZ/7d2YxuFMDH93JZLb3s/WGuXGsqwFat1Eylegck/CGma9FESagWypBQcZico0wjTevriBAvVwO3aBRkS1PBLffMB/1uePy1VtEl2qbIeMEBYEyRBnJKqiTQMzMEQ+iCbXa5hp5Sp2ZtO+KaebH4I/mhP+KL6bRXKW9JenEaj8gyKMP6hcWxnwzEhMWLUF01hQ5A3s8pCxPIQsdzK9dzM3yH+urQfnt6RjirxdaUuGelHHiOXr8fKi5Xhu9nt4YuJCSnYGbmdzscddg9G258No2laaW33Vf/GrsjlUPkoqEkXKJlIZFp4yxeJQ9kYhnlFjQ0V5EluMkZdwY2NFrEWFG3zEWpS/UafTkSf7HBfK3sgojusqw/WUYSRThpFMaUYxZRjdlGG/LCknMGJSka8g8mWUqeVNSZFYyqu8hQwbZF5FInKrGNCMcFogRalgGkrOIJcpFErImnKqb5cJCZQTg6wzGZW5vsoc1nC8OEXKvlCRVBBkm0wbKwRy/YJaD9dPynLb3nV75cXpsn0lb6LkRwlyWChtYFqNiCxJSUxDqbEMl6bs1TyenIQylIpGhglPXEJZHlNZ6TNvBe+JTWCeCyqClqhUolf2TSQaLZEoKUlUBEoiKMEIRmpeWCfCLcxnqMNZxiJZ1ktFN0fV6l0R16Qfktvfg079nsStjw/DoyNn4ZW5yzD20zWYwYBBZCnInfnpLONamqmYRnwv06ZEt2Vhwpdb0eue1xEVwWa1RK6sZ1qglhxV/bQjTXSNGrelK1mqDcIjW1rRp685L1+QFXkqgYofbAINkd+qTKflQyY+HWip5T+jGzhw4D9r1Og12cOC5+FZ0RuJKon6zmAhFItEkaXKtkPNxrchoeOjqFavN+Tdmyo6ZTrzo7nhladByVNHo+r/8CGN0LBpf7y+8GPM3J6pXios/8SQZ+LkmTkl0LU+iSrWC1qm6gUPLFDqLToU6VR5V+P2nSQb01J2KyZty4a873PMmh0YtXI7hn22BW98vAEvLv4Cj0x5FwOGzka/V6bipsGT0enFSWj13AQkPzkWDR4djbqPjEHNh8eg6kNjUPHB0Yh9YBTKC/eOQLm7h6PMwBEofecwxPR7AyV7v4qoni8hqvMLiO74LEp1eAblOzyNKqRah6dQs+OTqNv5SdTv8iTiOj+K+u0eQN3md6NGo/6oFtcbVevehCq1epKbUK0mqXETqlaj7Kt0lWtM7MvH8rqgZo2uqFVT3mKlP5TnowuqC9VIFY5XbI+qFdqiSvm2qFyuHSpLXw1zGserkmrlNVVjNXKjrUoFq8/pNUitcu1Rs6wFl6nJaYLMq06qxcp2OqJKpc6kCypzP6sIVbnf1bqhcvXuqFyNVO2GSkxTsXxHVOA6y3N9ZUlprrN0+fYoJXegK3RADClVqSNKV+qEMqR0ZfardkSZaprS1TqgNE+4mg4ow2MuV7sHyte7GbFxfVAhvg8qMz8rMz8r1eyGilW7oALXE8t1ypvgK8m7Niu1ZZ/IVzZjmSfMK3kBcTXma7Xa3VGDy9aqfzPq1O+NuqQ+1xnfqC8aNO6L+Ia3aBL6oVHy7UhsdReat78Xbbo/jC79n0Kvu19A3wdewa2PDcGdL4zCg8Om4vnpizFkyQqM5kl+/BebMGntVvXY0oxtmSz3lKVV9vXLYyhJwSZMrzgNTDdtUzolm4kZW7Lw0Juz1MP1EtRIvVP110+gPnHaMfM8QQ1UMFOmYg/m8W2ILNcToREtKNEGhMGTaaH6RaBJbNa3/KZm7YG3W1r5z+o6JT7SNCa6/S4RqHy218OziUSY6v2EzNQIaVpUvxk1kx9C/daPoHrcbYiKbMHMlsjSJkrKUGGfZkM/MM8+hWsenheJyuuxaje4CcPe+xyzd1B6m/XbhtRDxetFoPIQsr881b86RJ5EvxnHJ9CJLFDqDePyaQYy0WLC5kz2M9nPwvhNWXhrYxaGklfXZ2Hw+ky8sCELr2zdixHph/BW5hGMzj6BSfvPYPKhC5hw6CLGklGHL2HEkUsYxv4wjr95ULiEoWTIgYt4fe8FvJZ9Hq9knsNLqafx4rYTeHbTETy67hAeWHMA963ejwdX78XT6/fipW0H8VrqEbyRfgxvZBzG4B178dSmTDyyZhse/GIj7l+xDoOWr8JdH32G/ss+xs1L3kPnRYvQauF8NH1nHpIXz0fSO28jaQHH356HlvPno92ceeg4Zw46z56FzjOnofO0Seg0cSw6jRuF9mNGkOFoP3YYOox7Ex3HDUHnsa+hy5hX0FUY9wq6jScTyKTX0HXy6+g6kXC4+5Q3cNPEN9BzwhvoMWEouk0kU4aj69S30GXaaHSZPhqdZo5Dx9kT0XH+FHRcMA0d355BZqLT27PQceEsdCDtF8xGh/mz0X72TLSfxvlTZnH5ueg2YyF6zl6C3vOWod/8j3Dr25/gdnLXgk9x98IVuOdtMu8zDFqwEvctWoP7F67FffPJvHW4f956Dm/itG146N00PP5xFp78dBee/mw3nvk8G88sT8PTH23GY8u43NLPcceSj9Bz4WK0kzxbMAfN3pmD5ovmMl/nocOSBei+7B30/XApBn7yIR5asQLPrlyFV1avx5trN2HMhm3qvQvyzgV5hlOYxtaPRImzUhgx7tDMJDNSKDUKUWENS3Agspwuz3tSlOo/7yzvIkr9tqwdFKTBX5pOprEJP53lfTrLunz/acaWTMxJycZjb81FTKmWXokKKgjKR6JKngp5x2d9tjJrQz7jXKZaP5SpOwgxJLJiL4SGy0PzTRAk67SiT3rjh7Jle01t32fIf1b0abrVqwf/rUOHJ+pER7cfHhBQ7+OAErU/K1G82vuhoQ2X12p0z5H6TR/7pVq9u1CuXCeenShXJU65SG1B0RYkT/nhpB/mafJ9VETz06HBjX8RgcrfOKNLJeHJifNY8HZCv/9SXu/G6JPylL+1mSa8P5ZAJUJlWpGnem8jC5JGy9Mu0QmbMjBWItAN6RQoRbp1F2ak7seinUfx6f5T2HL8Inae+Rb7z32Hg+d/wOGLP+DE5R9x6qurOPX1VZwkp77RyLDmR8Vpi7MWZ4SvuOzl73Hi4nc4eu4bHDj7NfaduYy9py+RC4o9p89jN/tpJ85g+7HT2HHsjB/bj57BNva3cP6WnLPYSNZw/NPDJ7Bk70HM2bkbszJ3Yoo8GrUtFeM2p2Dshq0YvX4L2YRR6zdi9EayaQNGblqPEZvX4c0tazBky0q8vuUzsgKvbVtOPsYbKZ9g6I7lGJa6AiPTVuKttFVkNYdX4fXU5Xg9/VMMyfgCb2auwoisdRi9azMm7N6OSXt2YMoeRlF7KREyey8r8p4MzCML9mZh0b4svLNvJxaT9/Zn48ODe7Di8AF8eeQI1h3PwZaTZ5B25jyyzl3ArrMXsfvcJew5fxF7z1/CvvOXFfvPafad+8oGx88KTHfmIrmg3sqUybxad/A4vtx3FF/sPYqVZPWB41h76AQ2HuHvfOIstp46hw0nz+ILbv+9w4cxf/8+zNy3GxOyMzE0dRte3roJL2/aiFc2bMTrzMc3KM83121WApXX6U2Q8qnKXKq6Pu+PfkhefX9KoGwN+vWBPmnm5loFquWpBMoyLiKfm7YbfR4cgmB7U14EKpfgFGyCB8o1TX2jSDXRvfMaEpEoW5yBdREaUBPyRvrIsi1Rrl5/VG7+COpIK6rhrccCA6qtLF68xpKI0GYP16jRNdTSyX909zfy/2z8T+X6/RPLlev6eHzdDq/H1es1v2Rky+3M4GOekCYXQ0OSr3iCE38ICU666glu8hOb8j97ghJ+Uf3gxKuhIYk/hIYmfxMemnyqTHSr1Arl2s2IiWl1V7Vqve6ndK9Is13ezt2wRX+ePVkY5GysCgcrpIo+9f+CTRPeVZ6WQFVBZiGazLOwvGV+Mps0k+QZPRaq8Sxk41jYJCpdmLYPn+2TNyqxwp2/ghOUY85XP5GravjE5Z9wXOA04VheXL6Ko0T6/vzo49IPiuOXvmdf+I7DwhUvR8n24+exfPdxrNp/Elk5FMhJCuSUSJbSoHAPnPkKB89+g4OU8KEL3+LwBS538Xscp+BzLv2oOCFwm0KOxUnuz8lLmhwe08lLvzDtL6qv+VmRY3HysmDNu/wr+5pTnCZ5cuySHPfPHOZ6hK9+1ahxruMrLm8j52sL5pcZPulF8vwnnec80Zy4zHy6bPLHyiMZJye88GT0FTF9hZ6Xc/kKt3kFu5lfX+4/gc/2HsNK/s6rD+RQpjlKnFt54kk9cR47ma/7mJcHeWI7YnH0wnc4doG/FzlKDp3/HnvOfIM0/h5bjp7DKq5n2c6DKoJUr6JTZU7f3MwLr0AFr0AteXplSrzpWO6l7NvwCTO3VKX57pOnJVCWeXV3fvYH3qBFRZ0hCd9WqtBxdcXY9p+XK9VmXdmYtqvLlW79ZZno1qtYN1eXLtlydZmSrVaXjWmzOrZ0+1WVYzt/Vrtq1/fj6rRYWqlS8uIyEckLy0c2mVsuvO6oyvVbPn//Y081axnW8gY6Qt5A/1+kqCuoGzr0qRIeT51y//x7VM3w8MT69erd3qJB/QF9qlS4+b4G9Xo/kZzQf3BivVterVOt0+Aqlbo+0jjxnj7VGtyeFBHRoE7lsvGxnTp1KibrSWjYp0O4J+F7+XRIUPG66HjbE6r5I9eC1FlYCo9DoAbVZFdY8pTrpFxGok6RphInUQ83k5nbd2JJxn6sPXgS2RTREQpNKu+pb37GCfZ9krQE6B23YBrDcenb54lUvNglKvhL9Kjie4rPqrAXr+AAK/EXe09iYeohLEo7go935yD1OKOwnEvYTYHukYp+hlErI9cD575VHKI8D3P5w7I+rj9fKFV/KP08OCZYx6JOIEqUGjmpnPiaEqUUj1N+uZDpxJ5XJr9UnrlMO/4NxwVG8QrJf4pU7zvzLE9sJygzjfkqUt156jI+3nUMH2QfxSe7RaI5lOlJ/vansOHwGWylCFMpxKzTX2EP83I/pXlIYH4e4gnpEE9IwkGrf/jijywvOt/k5HH4wo/Yc/Zbta55bCrLJ0CmsNzJlwTkCwFuEhXcBeqTqE+0LPf5StQG06vmu59AtURnp+zE8He/1C1Duf5JiQYF1dtepXxclRaNOkU2rN20VOO6LWKSqrcpWa9qk+i6VRrHVCF6uEVMXFybks0a9I/q2vWe0Ecf7RDSvEvz4OoxgwLbxA0unpKCvysZFHV/ePf//WUwz0Q9//JX1c+n69Wj14Cw4EY/yrXPgOK10eXOZzGLZ3bzYbT8BKowkafAtOp7Now6JxER51QK9N2sA1h/6BSjiK+VME9TmCdJjoiTHBccIjgmcLqg5ltpZHqutCIMwZKOFz+5GnFpgYq8j7CiHmWEJVHkZ6zk87btx4Idh/BOxlF8tCcHKYyM97CC77XYzyhoPyvtofNcRio11yeV+oiIT8lG+nZ+yhtLlnlhjsEI0aCicu+xU6RezDSNyj8baro9LwsN150LrlPwnsBkf7VEj5MDbE18vPMEljIfP8g+xpPRCawQgR44jXWHzmDT4XPYduwCI8pLjEC/xl65TMNIUyTp46pvmHmcC06XvJeTTfaZb3nS26P/okm0RLUIjTRzC1SEm59ABZZ9h0RdBUrsArVHobMYNIx8f7X6V5F6Aia0CQIDq65h1Suua2BR96fubu3VbSAFejU0OB4BxWqhywCfQH0RKMVoroHmIVB1DYoFUclTLshvy8JHuw4j8+RF1cQ9RXGeYpSTw75Em15x/hEYQYgsRKTeiu2PiQaVPBXfK9bsP4M52w5g/o7DWJR+FMv2nMQXh89jIyt7CiOmTEZL+ymFI5SijoZk2auK3MJkn0I5KtvLD5U2b/Q+85gM5hi9wxSZK9Z8t3y6Zrg+V/R8bzSrItarlKfk7fdYuecUFjEv3808jg92UZ77T2MthbmOrD98FttOXELmuSvYRXafvcK8lahTn4gkj/PCTaKC5Hn6ya8wi2VOotCpPHHrb1X5xFmwQDVqnkor10413k+bWKjnoRU+gdqb8HbksSa7QOXtaEEBVdez6gXoGljU/am7fjc/cU9YUKOrnqA4BNxYE13ueEY976ajz0IK1JLnRIpzIgvN0sz9SD1xgdHSj5DrasdZwI9Ln5VN46yoeWOi0FzRqBuWPNwkqqUlkvMJVCKmzUcuYM7WA6x8h7Aw4zje330K89Zl4MVRc3DLHU+gc7eB6HXLg3ji+bew8MM12HPqG5z4FkpyUqmd4sslyvxwLmtQ863jMEK0S1Idq5GZG5xfAM58zY3beg1WGpXXlkCZF3L9dPORi5i/7TAWpBzBu4xCVxw6h2U79mHE7GV46PmRuOO+5/HwM8Mwdua7+Gh9GnYxqj/C9RxWJyT+NlyPzld/eQqSJpdELUS+qw+epDx9Uaj+6FxuicpdeyNQp0SNdPU3oSQwkJuiUsZl2PS1SL0CZXp51Ek/xmSD65vOFtiI91chLDyBzfhG6pM5QQFVNrLqFQn0eug6d3jtXolAtUBroPPtT2FWir4DL4VACoicbfVjTLnlqa95yic90jB3RzY2Hj6NIxe+g9wI0s06HZ34rr1ZFU+wKmLhKnRu7EJwordhtimVXKSkK6Y04UWeWae+VpV9xuYDmJd6DDNWZeDOR15HvXrtEBNRB5HB1RDpqY6I4OqIDKmOKhWT0LvvI3hvxWYtN+IvvcLAZRQUsHOetS6ZfoRphKPqOHzy0sNyjL5p7pi80MO+POM6bOO5kfn++K/XWl72i/tpBHqc8tzNpvQ7O44xmj+MhenHMW/jbjzw7Eg0atgJZUvWRWRgVUQEVEZYicoo6amBmlWTcfMt92PBB6soQf4mXKc+yVl5YX4vC59I3QT6I/Zf+EGdvKUpr6+D5iFQIpGmiDT3PJZ1b9SphemGzFORqKzLgfrgoIVEw28u+1ILNJQCDUugQKsVRaDXS5fY7ImHtEDro4QRqPUIU26BsvDY5SnTmU4kKgV3z9mvkcMCLhGnkae3OUuJCU55/pH4pGFNkwop25XtK3QFlChUmuEfZJ7g8R3AHFb6Ee98icSknqzY1VEytAYFWgvRJCKkGkqXrIOKZePVvPLRcahbsyXGTVusosBjX/2i1u2TiX17bhiBiiAlitXTtTT1fCNPu0DzE5o7Jl8s4eU5bsd/OwazTu80la9yDNYxWb/353vPYNaWw5ifdgITl29Hqza3omRQFZQMJp5qiAmriSielGJj6qND696oQ4GWo1jrVG+G4WNm8cTGMqN+L6vMOCgoEpV5KTkX1TOdBQnUjgoC/MQpUafp55anQea7rU8hT5oQ+SPJkHdXqsgzrEig11cH4L/atr3l2XBPo589wXFaoHc8jdmpu/SDxZSjeqxDCpM98pTmvEzjPPnU7ce7Dqs7qNJM9975ZoH3ykQqhVXp/pUC9SEV3arklkC1rKQCspJyP3cc/4qR50HM3HYEYz/ZhsYJ3RAdWh2lImspecZE1EZkWA3c3ONOfLZiFbZu3YHb+92nKn+lMg1VpZ+zaDlyrsB7rCYqzVuiZp+YxotNTAXgJzEb9ulGdr4TiUyXvhm2j7vhW5fBu35rn9UxqOPRJ0g5XrkR9A7FOXv7UcxYvwdtOw5ADMVZinko+RrNk1JUcFXUr9kMS5d8iFNnz2D9+i1o1+ImVCnXCDWqNMHEGe/gBLejT7QO/PLRPxI95EXftX+XJ3O5Ju8qNgdOcWpp2gWat0Rlvts6BVU3ZB82U6BLHQINrLaW1a9IoH/2jgL9a4u2t7wa7mn8S4glULkLPztttyVQnsmlEMg1UCsCVXBYFRIWoE+yD6vIwR51qiY7C7oq9Cz8RhpecbhW3N+Lf6UX9DZ98jwskScRiS7PPs2TwyFMXr0L7bsPQjQjpFLhNRl11qQ8a7LpXg0tkrvi0KHD+OXXXxQ7s3YhvnYLJdHy0XXRNLEzUnYfpUR/1ccleCVqJGNtXw078uEa5Hmt+EeggnPYDTPfnzwFyjwV5PGzHSe+ZtP9KAV6BLc/MgQxkp9KntWYtyLQ6ogMrow5cxbi6q8/44effsQv+BUL5i3lCSkOZaNqIq52M6zdno0TKj8dAiV++cntynVPn0B/UMhvu/7waZbPwkafLNsOgdopSKCybO51WgKVf/BRoK8v/txPoIFFAr0+Ogr0bw0T7h4W5mn8qxFo17uew+z0PfrvbepaEguFFBQRqIiTw7qQpOD9rP04fOF7ypMF3KpMUsCVPL2ScOBacf8o/Cu+V6Dcr8MCK5pcK9t3/nvMTzmGGVuP4rZHh6KUSDOczfZwVvQwjad4eTz1+Ev47ofv8P2P36n+le+u4NZbBqm0FUrVQ+mIanhr3Cyc+p5RKLfjPFbdVM9HoI79/eOQdRuc09zSOOf5Y6Ja73HxWI1AJW8lIlx76AJm7ziOFya/pyLKUhRmjIo8RaDVUDKkKkpHVkda+k58f/VHxU+//Ixdu/eiSXxblGFeRnsq4vnBw60Tkpam/dlVP4HaolC7QOUEmXWGMt+eRcnl08QmuZruZtgFN4GqKFXNN+vyZ4IIdFM6Xl20wivQcCXQqutY/YoE+mfvVmP135o26DeGEahXoN0GPm8JVL9IQQmUEehkJU+JPHWheXvHTvX4yQkWZq88VWXiuGAkYXCtsH80jspvVXZT0eRGhVSw1JxvMCflOIYuXovKsY0RQ2FqebISh1Vlpa9KgZbD00++jB9+/IEC/V4J9OrPV/HM068gMqQyypaszXRV0KnDLThw9huvYNRTABZOgZprmlqgjn39w7BdA3ZMLxh7eh95CVRFgRaf7TuHqev3Irl5H5QSWbLJLuI0yHVQydfVqzcwH3/Cjz9dxc+MQY8eO442zbvxN6iM6JAKaNqkPTIPn8KJb/X28haooH9Xu0AN77EZn5dARW6mb5ekT4bOaf4C9UWmZr5Zlw+5tCVvxS8S6HXcDZwy8O+tW980UV4iYo9A54hAt4lAbc/TSWEUNqdCHjjeduwccqRSsSDLA9+mcAumoilcK2p+cPlcuKVzw1R6Pe4XgVqVTAS64dhlRijH0f32p9jUrMrKy0pOGfqojPCgWDRP6qia8L+yoos8v73yLe7oPwhRnkqMpmSZyqhTLQFrtmXh1HdQ8vQ+SqW2TShNfUNIKrzZJ5lv9vW3YD9e57A9nR2TrjD4llPypMzcBaoj+oPkk/0X8My4d1A+qi7lKdGniJMnIyGEeUrCSjCqf+xFnowYslvdhg2bUaNSA6avxPyswOZ8LSz5aCVO/WCieh+mfBl55iVQ2S/5u6eOKrXQcovT4JNkftjl6TZf479uI9DXFn0G+bqDFqh6jGkDq1+RQP/snQi0ebvu08L444YEx+sIVAl0rxYom/HeZ+NEnlIw2H8vax+jzR/VQ93ea502fps8uVy+uC1jx1fpzTQ/gXJ/tUCvYvXRr/H6glWoUrEJK24VRbSHERCFaCipJFoefW++AxvWb8b+A4cwYthYxJaqxSi1MkqFy3KV2JSviXeWfYYzP1oClW1bx/+vF6gbbukFt7T5oZfzE6hMV8ckv7NEntbjQ2RxxnG0634vouXGkQhURZ52gVZGZGAFlIuqjldfHobNm1OwfPln6NzuJkQFl0epsIrMzwocLouhIybidB4CNeI0aHnmFqj8y0nKrZGZlF2DXXJ5i9B/mlegjukak96+XptA3/lcRZ5FAr3Ouio9e/53couBs+TfESFBWqDd734OczP2YMb2LCVR/WCylqj6l8aWNGw5ehYnKQDXF3woOdgrYmHgcoXCbVmDTxRGUgaRl4hTVTRpbh64iH4PvsHKXokVVyo5pWkXqDVekpGmSLRGpXg0qt8CpSKqsvlegWkqajxS6Sti/JR5OPsTBcpt+wlUhOmVp0Og1v4qQdlwTvMdlx1zzAVxrekN/vtgBKqRY6LMmI8iKokA93N86ucpqFO7jb7zTnmqyJ7iFKJDGF0yr0sGV0Ak81OEWS22PmJjaiAisCznxzIvKyiBhpeIxsOPvmhtk/ti5ElUHqrt+nATqFyq2X3uW/W2eGlKi8yMOHOL1ClDf4w48xeoYNbnQ66Bygt0hixZiQj5/IZ84VYJtFqRQK+HrkrPKv/dOHnQXK9Ab6iJnvc8T4HuVQKdwaapNOPlPYvqnx0U6JztmTgoN44oA395yrglB4NfpcwLEWNhcVve4JOFkZQX7p9XoBz+bM8ZJCTdxIrOSFJd8/RJ0wcrvEVEYCxCA8oiMjgWUXaBEhHAa29OwJmrWqBeeartaq5FoAqRhzfqc8Mc87+GXPvjhxyTEZl+quHA179i+PwVKBddzyHPygqRZ3RwRSXQKEui4czPCCIyLakEGqsEGlY8Gnfe9bCSYF4CVTcELfwFqvuyrLzd6+0d2ZSelttvEai+zvk7BLpRBJqOIe+uQmSEfGjOCLR6kUCvh65KlSr/3TBhwHz5qJwR6E2DRKB7MDNlJyW6U99MMk15siRzL06IAFiY/ZBpdmwV0h0uc024rUOjKrYlHRGMqmzEK1AZtyrbYY4vTz2CKhWaUJ7ynKK+5umUpxd1bU6GdcRpos6YMEavnB4VVA5D35qM02zCm2P3blcJ1Kr4Ct88ve9aSv5ytERlCdTgn8Z37P8anNvlNNlnCxWByvEwT0WiB9gaeWHsAtV8L63kqcUZw8hTQXkqgQbxBCQnIS86GhVEoKXCdAR696AnlJh1Xuptme0pcXql6YaOQuUG51KW1YIFaschRYdAc813xbc+JVA24Ye+twZRUcmWQNWD9EUCvR46LdA73rYLtNd9L2KeJVB5/Zz3WiijUHll2Iq9R/0EKpJQ0aetgilyVUonTkEWhNs6dJPZyFPduWWFN9GKT2Sm8v3I8V/w0bpsxEq0FCrX6+RaJiu74JSnH7kFKv2yEZUxfc5SdQ1UV3gHzBuvPO0CFWyS8k63xo3A/EVm8B3/H4lsX/6XbvbDuW9e1O9uCfSrqzjw1S94+o1piArgScUbeVrydArUK1GfPI1AYyjQiIBSeOHlEepZUCVPQeWfbrL7R51uaIEeYCvpg+yD1rtC/QVq7/twipDYBOo63xXfOvWLxeWvnGu1QEOKBHpddeXL/+Uf8Y1EoIkUaEMEUKB9HngJ89L3YlZKtvpPvDTjp2/LUM+FyvXQNQdPOiJQGSYyTXCpmLmxi7Ew6OVUk84Fb0XnsAjARHymwqtxq/JJus82ZaNSdB2UdgpUSdRflv6w+a6u1VVktCTpKqBKmdp4d/lqdddYV3gRjE8ydmk6MfnlOs86Jnd8x/5HYbZrBKr2wTbsh3VsRmpHvvkVr701B1ElGEUqYVp4JcoTDolm872kyFOugxqCyymBxohASRmekKbwhHTye+Yn1+/dVi55+q555h4nF7/Hij1HKDEttWsS5+/Ctm7rn0jDP1iHkiWbFQn0Ouz+0bDR7TaB1kLfh16hQPcoeXoFymb8DEpUvjcjbwQ/wYhDR59aENcmT8FNkm74L2cE6lqpiZZn/gKV8e17T6BOpcYoRVkWWqBy7VOgNEsZgbLiN6zbFFt3HUbOd5ZAvfliJ/e+FoycEHz8qwQqJx337eeDdYIwd8JP8NjnLv0cZeV52iCRpRanyFTD/FIS5clHJOoVKOUpWAKNpkxrV4nHZ5SeRKDym2mJWtGnV57kovWy5TwEKu86WHXghFegBn+BOuV3jagI1Tndtn5LoCM/3oCYmOZKoBFh8jq7akVvY7pOun80aHTbwjD5AmhQIwq0Dm59+DUKdLcWKJvwM9mEN4hEd+RcRI4I1Hr289rlKThFmRe+ZXRTXfelEhtJaow4DXq6V1wmnSXQfWe+Qcc2vVEyUGRok6dDoDFeeboLNCqoLHp06c+K/b2O1tQ2zT45kfnW/qj915hhM92HNJ1/4UlBY8bzFmjuPCssubddAOpYeEzMT+HEFWB1ym7E1WiGkgHlbeL0F6hXpI5IVE5EpSjQkkFl0KndTdhz6jLzRE54cpPK6tvlmQtLnCJUJdbv1Y2kDeovnf5Su3aB5pM2l0Bt65bmO5GnVkZ/uhGly7SyC7QoAr1Oun/Exd/2jhZoYwTcWAe3PzEU8xmByqcIRKCzbAKdRYGm51xCjlRkViAFK5SgBOeomPljKnxe+Kf3CpRIJXbKyR89PZdABbWvv+CZZ95EZEA5JVCDPNcpAhVx2vHJlBGUV6AVKeCyeH3oOPVXTldx8iRz2EJPM/vj3F8i04k8H2pkWTiBuuWdYE9TMGq/CguPxS5QObYDF75Dv34PILJYWZQuQKClJBKVk5Fc+5ToUwmUUg0sjVdfH60iWhGmHXdxGlwEyv7WY+fUtXvzKJPwWyJQvYyW5UQ1zVo2P4EKSqDpGPvFFpQr3xZhwSLQRAQF1ij6L/x10v0jvuGAxaGeZAQHJaDEDfUw4MlheNsS6GwKdPb2LPWmb00mMnIu+wnU3ORw4lZJ3Slcxdfy5LqJVGItHp+YfJhplkAVvmmCXF9b+tFqVIyppaJLn0QteVKQXoGKLJ1QnnLTo2q52li5KU0332XdIkqvLH34BMp9UgIy++nbbyMnk392idopvEAN9rT5Y/ahQEyequPVl0aOf/srZi34BKU9VVSEmVuabkg6IicmNt9rlK/D/ExXv3HB0nTik6iJQFNOyKvtMnI1433Y5Zc//jeTbMv6CdSO3sbUrekY/+VWlK/QHqHBDREeWiTQ66n7R8OGd70dGmwEWh93PEGBZvgL1KAFaotAWZns0hT+FdfpBK9AuW6pxP6y9InIPs1X4fU00z/G9ew9/TV63zQQkSXKUopanrlEmSfSBC2LRx99Qb+JSu0P152XQG3DRkB6XO+zdz+JyUdXeQp+eWsXZX7452We2PajQMwx8XhFoDK89/Q36N1rECKLM08dsiztOm4JlM15EegLLwzl+vR7PQsrUF+EagnUkqgINPXkJczYmpmvQHVEWQisaLPQ6RWWQFduQZlybSDfeg+jQEsE1pRvIpXQVbCo+zN3f09Ovm+iJ4gCDUxgEz4eHW95AgsYgc5RAvXJU5BmfMqJC+o/8Pb/fF/b3xJtFfYaMAKVdUgF9gnT4BOSkKvC25BnRCVq/OCzTahctp66HqcFmpdEK6G0EFYJZeTaZ0BpdGjVDSm7j+AEIy8tEh2JGYnam+5+AnXZX/u+FV6gbqLMj9x56o9Zt16/fZ/MZRr7NIU6HjlefezHvvkVK9ZnIL5mU0RRok5pGnEqGN2XZuRZmgKNLFYKvbrdql4iItvxSTFvdF5r9DVSm0CJ/MU0/dRllln9Vqbc8tSIEHNL0Tdfmu+Fafab7ydpfMtMS8nEiA9WsemeBE9QI3hCmsAT2mg5617RR+Wuh65t2/vvCg5Mvhoc1ASBJRqhXGw7DHv3c+s6aG6Brjt02k+g5ts8/hUwP+yVtvCY5rusw3e33Y67kNwQgQrS7Bw6fCrKhFeGPGKTW6J6WOQp4pR+dGBZJMc1x+rNbLqba5+WQIxAjTy9qH3TqO3b99exb4UTqJsgC8I9X32YdWvs+6Sn+e+nQvLaHIt1/CLRWQs+QmzJWogOKO8TZi55ilBjUTKgDLp3vAXbdx227rwXQp7EyNPgjEJlPRmnL6tLT4UXaO75Rob+EhXyl6dJPys9G4+OnIOQgIYqAg0Oaoxq1bqMqlJFfcO9qPuzd0lJj9cqGdn2YFBgIkICKdHiDdG8432Ysnq7bspTnPJuxTnqhpL+0qY8Bypf1dT84sVUfjumQjrHc1fg/LCWF4FSIkqgBq+MLCFJpZbKTfKKnIxAZb37znyL5wePpESrsOlZxhIpK7glTgUre3RQOZQMLINWiR2wfNVm9SZ6bzOWGFnah+2YdM4I1L5fsq9++STiNMN+mHxxSjI/zDJ54b8N53655aMXOQ513FqiMvz60EkoH1Wd0WVpSrIcYoIY5UveMtqPDiyHyBKlEUOBDrjtAaTtO6beAaplqAWZn0T1iYpYj1GpO/ZqnlOg+kud+QnULsK8pxcOLU6fRKX5PnNLOpLb3IOg4nFKoCHBja/WqdXlVqv6FXV/9m7KlCl/r13z9uc8Ic1+CAlKVE35IEo0seVdGLaUkWjabtWcF4nK1zrnpmSrptFJyswp0LwkqrAiyDxhmvwqtlmHkoqt8uaWqHWdkaiKL+uwxv2XYYWXtFyvVMapc5ahXateKB9ZDRElyiCSkZEQEciKHhqLpIat8cLgYUjdn+O7aWQwkrRE6ZSmHSVQtX2Nfb/0/vokljfWcbmKMi/MMnmRezv2fSsQHos6bvm6Jo/zEPvvfLgK/foMQsOayahYsrq6WVSWJ6o6VRuhb597MGvhhzh49lslT/Osp4omBYc07bgKlML8bQIVcs9X1zvzQN04Emzy9AlUS3Tq1jTMIH3uew2eQIozsCGjz0aIiW6W2r37nVWt6lfUXQ9ds/Z3R0VGtFyqr4U2YXOjMQJvjEflqp3x2PCZmEeBikjnsi83kt7N3Id9F7/DKRb8HEpNmvQFitQuy3xwq8gGWY/0nZXXyMgpJRGDerTKpLXm5ZIux48zosw8eh4L3vsML738Fu6/72ncd+9TePrZNzBl9hJszT6iKrqk0+vyF2OhkWVdyEti7pj0gpssndjT50Xu7bjtZ354j9E6ecjjSAcvfIf1O3bj3Y++xLxFH+GdZV9g9dYsHGH5kVfWyWUg87C8iWBNBGqXqHeaRKhWOrtE3QVa8DVQL5stHOPqy5326V6cAvVNm56SgckbtlOeryCMTfaQgAbW9c+EH2rW7P0UsPpvVtUr6q6XrlhIpQoeT+JHbMb/EsIoVAgqFo+I0CZo1/MRDF3wCd5O24X56bvYrM/Esp37sPfCFZwUibKyGbwSFSGyrysjKygrijcidMW/8haEWwV2YrYpw05xaYlaFd7iOI/l1I/Aye8oSopHyLnyi3pRiDz6pLdt7a/L8ropa2HbVn78lmP35ZngJkwn9vRuuG2jYHIdjzp2yQeNvkzys7pWLHl49ipw7ic9rJ7ntacVCdqE6SdNQYlT0PL0StQIVC3jL9D03yJQmzTl3Q8a2zSmNVGmv0B3YAojzllpWXhjyXI0bXcPPAEN9bVPyjM4sPGvlWI7Lnn9mdFhVpUr6q63rlhwxYqlYtrO9gQnfxvEKDQksLFqfgQVj0fFCu3Q+57BGL54OUW6Ewsyd+O9XfuRcfYyo1CfREWcBiVQbwXTFc43bg1LRZR0vwXbuv5IJBJ2Hoc3iraGZftuy3pfgKFwm+8j1/EUGiO+Pwq3bRQSxyWVvJDfyuSh2qbkj1eecskj90tCtDgpRxGlHUuadlwFeuoSZrDF5BSoT45m2D6NyOsbbci4M72S7ZZUTNmWjuk7MjEjNRPjvtiAu54ZhSpVuyCYLbhQRp8e1iEGJb+WKd3t45u6Pl/TqmpF3fXatW/fJzC5Qb9by8S0XRUSlPCD/EMpNFiaITyTlmiAMqVaoFXne/HEiBkY8/FKzN22A1tPnsMJRmryWQtp0vsJNJ8K6pWSwZrmllYw831pdMV0q7C/B1mv/meV/zYNZtuS1r1JXgiB5pMvBaP38Y/DbRuFx5wc3ZDfx+DNPzVuF6iWpFOgSqKc7idQhzgNbgJNo0DlPQ52gfqJ0olDnH4CVWhxSn8apTkrfScmrd+KV99ehr4PvYbqtbohVIKOEg0pzwRGno1/Cfc0P1ax3E0T7+r1eDmrihV1/wndfXc8ERkWlvQ2C4FqgoQGazyBbJaU4Nk1uCGqVO+IFl0HYeCLb2HmJ6uRffIiJfoLzrGpJs01ucYlzWFfFCeVVSPCVKKleO04hSoV1FS8gjAV1Vlxrwmzfwrbuq3pShpMJ9swd/PtwsgLs7z/eP7HZ+Y78ctHg3pO1gVbGrOMD+d6C7d9Ie/5btsx+2Atp/KgYIHmikAd0rSj0joEmioCtf8TyZKnmySnbE13oKdNluHtGZiemoWZFObM9GxMZ9Q59L1PccdTw5HYcgBKxzRHSHEGGJRnaHATL2HByXsrle/favDgWf/PqlZF3X9C98DgwcXjGt3RqnR0x5VGoEai8n/eMEak0vcExLPgyOMZDVAyOhkNE27GnfcOxrgZS/DZhlRkHDyBIxe+xfkfgYs/A+d/ssRqXWfMURQs0PwwldKX1lF5GR35p5FpFo60dtnYK7zGGud+GYEWFud2NLn33w2VRrZpDetlnPtJ3ORpx0rn3Ae3bSqs/Be825b9kOm2eU7816/x7aeVRp10bAK1JOkU6CHrmmdB8hTU9VGnQHlCl79ymneC6ujRijT9ZGlBMcqD79N3ZLFJno0Z6bvYz8KEddsw4uNVeHbKItzy0OtolHwrypdtjfBgRpmMNsNEliGJCq9Ag5ogPCT5UO3aA7oNGDAgyKpaRd313PXs2fOv3W++uXbVyjdNjQhrcVruxss1UHURnFFnULE4Rp9CPAtPIxaQxhYiV7lgHoeAYrURUKImYko1QnyDLuja4148+tSbGDl2DmYv+Fj9+2ftjj3Yefwcjn31AyPWn3GGkap8EuOMCJailWG5aSM3H+ROrtzcUZWXlc/XXLQqocIhLAtdYX0V2P6UgLnR5UWldccvHZF1uYlC4dgH53yzL87pXknlg9qfArZv1p/3duzksx3HNDdMOl96//U798VgF6gSoCVQHUVamGkOUeaFU6Dy0cNtJy6oiFO9TETEKe+03Z7J5ncWpqdRkGm72AzXzOSwNO9HfroGg+ctw2Pj5mLAC6PR5Y5nkdDqDlSp1gmRoYlWIMEyH5yIcE+SD8rTw2a7um9AgXooV7n8FeZpcblChc6zExP7VbaqWVF3PXbly5f/R8WKXe+ODG+2m4XgVyVOeXatRANKsR6io5qiRaf70evul1GzXg9EhSdSmPEqEo3wJCAilIXKQj5dIFFpUEA9BBSvgxIl6iA4OA4R4Y1RKiYJFWJboVbtLmjatB969XoYDz08BC++NBETpr+L9z7dhFVbsrEt+wgyD5/GnpOXIS/HPfn9Lyp6lY+3mbviJ7//lYI1lwh+UhVT/qNvxOqsyCcYifmwSZGV31+g/hXeLy3JN6qzy9NFoAWTW1R2dDRamDvrvwf7Nguab8c/nTOfvPll/T65BKoiTi1PP0F+bcOadpTDwjEHx7/9iS2Zn3CK5SX17CVMY/N7AsU4du02vPXFRoxYvhZDP1yFV9/5FI+PX4A7nh+lJJnYdiCq1+mO2AptUbpUM0RHUpAMDKSMewIaqFZXhKeJ+ktmRKg/EnFKfSlVqjVKlW7Fcs+Ag4hQlVQ5Pyaq3fpqlXq0tKpbUXeddX+NreHeJK0AAG39SURBVNT9rtDQpmelyR4qTXYWmqBi9VG+Qjt0u+M5vDhtKWZsSsfcHbsxfsUGPD5qLrr0fwZVa3ZRBc0TyOa8FLYgfX1UvjUfJjIloarPM7dAucp7EUNlGYlaZTm1bBxC2Y9imtiyLRBXrzuaNbsVHTrcg963PIF7H3wNzw8eh5Gj52DG3PfV25Q+XbsdG9L3IPvIaRy/+A1Of/sDzl65irPf/4SzP/yM8z+Sq3JN9lec+0nQlxFM/4LFOXnEhpxhJCzXbeX1dIKWNIdlmlzPpbAFfemB4pbLDiI0SsIrDkuc3mjYTHch35cZm/kO9LL6ZKEkxGFzwigQZ1rHunPhtl8Ocp8kKHm2GASTT9KSMHnpxeThd7+o52vlcTjhFKfJ7yC/hzphEvl95Dc8++MvnPczTrPVcuo7SpK/9alvf8SJr65g/5mL2LbrEL5gGf3gi01Y/PFqjJy+BH0fexPt+j+FpA6DUC+xH6qzXMVWbqffEM+Tv5S50CCWV4W+PKVaV6rfGJGUpkSekWGE/XCOh4WIGEWQ8nKQBFSr3QM3MbB4ZvJiPMttdr/7JZSNbcfgoYEVkUo0moCoqNbb23d5uq5V54q666Vr0KBPi6jI1oc8LDBynVMe/I1khNnjzhcx+uO1mJOSjbmpuzFr207M2prF8V14O30v5rI/eeUWDJ70Dm5/8A20bHcPatbuitKlWTg9DREYUFdFofLNeRGovEw2IpzRKokMl2E5o/PMTsFGyDezreg1LESenROxyuWC+gguXg+BxesyGq5HUTOSZdroqCYoU7opKpRvgerV2iE+vjuaN+uLLp0H4pZbHsDd9zyFx554Gc++OATPvTQUrw55C6PGT8f0OYux4L1P8cHnG/D5uh1Yx2PalLYH2zMPIDX7MNL3HUXWwROU8ilkHzuN3SfOYu+p89h7+gL2sZLuY1Rz8PzXOHzxCo4z4hHhSlTsRS5F2DASsE8/LVAKduT5U4XI2j5ucdLiFJdVgrekbp+n5lt4pzGNIcfCPs2LlTav7QtqX83+E+8x/kR+tuCwpDv+zVW2HCi2s18x/y5iV845ZB8/q/J055GTyDqSg4zDx5G2/yhSdh3Etp37FVsy9mADm9lfbkjBJys3YPGy5Zg8fT6Gj56I14aOxrOD38RDj72EO+9+Cr37PIROXe9GYnI/1K3bA5UqdUDZsq3U29+jSzZV5Uv+/RPEVlSwyMx6JlM1wdlq0nK0BMm+ijClNWVDJKoCisAGqm5ERzdFpeod0Kj5bbj5vlfx9IQFGLN8PaZvylBvfhKmb07Hm0s+R6sej8IT0pjy5PKUbghFWrlyt4UPPjig6FnQ66WrWTMpoEK5zvP1mZWFhQWlZGQS7h48HvN27MEcinMmJTOT4hREoLM5Pnt7NubsyMZHuw8j5eQl7Ln0A3ad+RbrMg/jneWbMGbau3jkmbfQrddDiG/UE6XKJCI4hEINrMMCVZcFOU4RSrmGhsilAOJhU0m+XCiytaQawXEhXMRKJHINpWDlEyQaRsrc5wBGvyVKxFnUR3FSjOItVqwubihWm9TkcHVOr860NSl37kcITxRRSShTphUqVu6AajW6oE69HmjQuDcSkvoiiRFw85YD0IrNuzYdB6FDl/vRsesD6HbTo+jV9yn0v/MlDHp4BB57bgKef3UaXnpjFl4dNgevDp+L10fOx9AxCzFs/CKMnLwEY6a/h/GzPsDk+R9j2sJPMWPRZ5j5zueYveQLzH1vFea/vwYLP1qPxZ9sxJIVm/Du51vwnvCFsBXv8US1jLxHqbzPae9/sY3jhPOWrdRIOjUu6b3TrXRfbsP7Cmv+Z5vxLnnvc6LSb+H4JixZvgELPliLue+u4v59ganzP8WkOZ9g0uyPFRNmf4RxMz/A2Bk+Rk1dhqHjFmHwkFl48vkJePDx4bjtrudxU59H0aX7A+jQaRDatL0TLVvfjubN+yM5uTeaNLkJDRv2QL16XVCzRntUq9IGVaq2ZYunBUpGM8LzxKnfqETxWrjxxtqkPmnI37Axf9cE/o5NUCJAEyDvcAhMRFBQEoUpyF+Sm/AEnMDyZd0RD2miokdBi5LINJGplHsRa2BDhLIcSVQqLapwBgHlyrVC/YQ+aNPzQdz+xDA8OY4yf/dzTNuwQ7+xbFsWZmzOwLSNaYqp0t+Uph7gn7Y+FX3ufx1hDBxCJNqVVllY0lcJCf16WtWvqPuzd81bD2wYHdnqrDRdVCGikPo+MhTzGJXNZoSp5OkQqLypfv6OXVh38JT6fKz6H7NCrs2xScZmmDTTpHm35/Q32HHwDL7cvhdz3vsSQ8bMwcNPv4letz6Cpi1vQe36HVCpclMW1ARGDSLTOowYajHirM2IU6LOuqwI9VXkGRpMwVKgPpFqPBYhcrZnIQ1h5BDMCqJhZZI+owxNEkJCkxESJn0LDytdSDKCgpMUgayAUimlchb3koAbizfWFGuouOHGBvjnDfH4J/vFijdiZW+MEqy0QkAQK3ZIIgJlm7KtiCR4IpMRFpWM8JLJiJAISWBEExndzEtUTAuLlhYUCvvRpTQxpVsooktxOvsl1XwZ96XRMJ2kt1FKKK37MWp+c39imnE5wv0oKfsi+xbVFOHc7/BI6TdFGAmNSEZouA8P8zOIxxoQwOMv0ZD5wJMZI74SJZgnzLcSAYkWSRbJPgKl35T9ZqQFAoJbIJAEKZpb/RYIDm6pCAlppfEYOI14PC1Ic5aDZoT7GJKkkBs68kxmiPwfXf0ziJFoiXiWK5YnnoAlWChbpiUqVWmHOg16oHnHe9D7vpdwz+DReH4qT37vr8LEL7cwwkzFXJb7uQwatDTTOU1Iw3RLnn5wuoh1JiPTbgNeoNAZwbJselg2Y2Laz2LV+x9dA4u6P3XXtOn9d4WHJF2VZo0Uqpr1u2Pimu3qWqdqslsYgcqDySLPlOMXcFyEefkqjnpvAvgjQlUPmst1sW/lmiGbidY1MHl1mch3+/6TWLl9F6OiTZi1eDlGTV6AF14dj7sfeBm9GMF06Hw3mrfoxyZ6N1Sq2BKREawAQfUQUKKOukEl/UC5WcXmvSKgPolTEWmAikwbUmaNFIE8xkA2o7RUE5U4pfKHhjXXhGs8HBZCwpppQpsqgpk2WN7eL1C4waygQSRQEPEKahqFwnX7QVErKHN/EhBIArhvClZ2jX2YaShlIUiGBR6Hwow7pks6TWNG6Dxu9r3rsNaj5rnB/QjiyUjDkw+RfojKMzv65ONhfiiYR6EKSswL81LRgmkFLbxgJb/WpJUaDuZwsKeNIiiEBLfmPrfk/lKqAc35Gzdnv5nqCyU4XKKEIAJO4m+tT3yBcqz8zYPkGj6DgQieuGIrdkCt+ox42dRPbncXOtzyGHrf/wrueXEcnhozD6/OXoa3ljHaXrMNs1nG5YU58t4HeRPZrK0ZmLWFIqQw5R7AjM0Uo8hRho1ALYm6IbJ9ixIuG9tWR6Gh8nvWK/om0nXS/VfXjn1eDg9O+EWu7wQWq4d2fZ/AvPR9fvK0C1Su8aw/dNr6tDHlKXe95eURdkScpm/D/Edc33jQd5TlzUZy7e0MMTcO1EsmuO6DFOzek18h+9h5ZDDa3Zp9GF/wrP7OR2swkYV+GJtTr4+YiRdfm4THnh6BQZRu3/6PolOXgUhuegvi4rujRs0OqFy5jbrzX65sC5Qu3ZwRVjJFnKAuFXhCGrLiUbIiWlJCkCgqgNFTCUZUElUpGEmVECTK8iFRVwDT6j6xJBUo71dl9BMUzKYlozO7MKUfHKqj4pAwExlbUEg+tIjt00RcIm6DrDtYkPlWNG2i6hBZvyU7SeMVnwyLEL3oaR4u4wdPGPoEo9Hj1roVsj5rX3jyUFBi0pQONIjYGGUGCFbUWbxEIoqzGV6MTfIbb4jDDTdI85xRazHmGaNRT0gLhIe1Rnh4a0RFtUOZ0p1QoUJXVK7UDdWqdkfN2r3QIOE2tO3wEHr1fQ533PM6HnpiFJ57ZTJeGToDw8fOx/iZ72HK4s8waulKjPpwLcZ/tgmTv9yKqWu3KxnK6xnlGv68HSJLHVUqUVKKSpZeUWq8orTwCdQm0VzIujIwedV21Iq7mXnDKFQEGlBjE+tekUCvg+5vndvdNTIsqPGvHkqkxI110GnAs5gr34VnAdMflfMJdMaWLMxjoZMPiB3/WoToj0+WFKWdr/VjLr7nBd0wd3FFsDqdflZTHlP6Vb3UQ+7cCqe+1/ju6BJGt/JX0tOS5lvuw6Ur2J1zDil7jmL9jj34YmMGPl65De9+sg5vv/s5Zi/4CDPmvosxk+ay0k3EE8+OwMOPD8EDj76GQQ++jDvufhZ9b30CNzMK7tnrUXTv+Si69XgUXbo9jI6dHkDbdveidZu70bLlnWjatD8SEnqjUYNeiI/rgfr1uqFe3W6oW6cratfujJo1O6J69faoVq09qrCpWLFiG5QpQ0mw+RgSysjf05ASakDiGaXUJ/UokfpsgsYhzBOPyLBGiAyn8MMSEMZhuaambsARPU3PE2RaZITM08M6TRO1jCaRlZjNWopcmpMeylzeki6XP4Lk0bPgeE2QwGhfXbvjethsj45pgbLl2qJCxY6oUrUrqtfojtp1e6Fe/d6kD09Yt6BhY+ZF0u1o2vwutGp9D9p3uB9dmWc9mX+9ej2Om295Er37PYG+tz+OAfc8hXsfep7yexXPDB6F196cgZFjF2HitGWYPudjzJz/KeYtXYX3lm/Gp6tT8eWmLPVbypcA9py8yJPsj+qfb3Ln/qSUD1VGDL9i76UfsCTzgCq7culpJk/+MxlRzqQojQBFlk6kee6LMn0CNU1zg0wzaf3FKWi5SjNe3q1bo053NuPjmfdy4q1eJNDroUtKSvpbj26DxoQGJfwqdwqLU6Cd73wOczPyEmgm3s3Yz+jzqn7e0g+fMPWjPP6C9D1j6Y89jZZnXuhHd8wjPLngPujvNGnkeUORrt9jMRbyV1N5fEn+HXXpFz18VqLg73/BGamQFPDJb67ixOXvcezSdzh64QqOnPsWh899g0NnvsGB019h38nL2JtzCXtOXMQuRsi7jp3DrqNnyWl1B3+X3MU/nIOdwqETyDxwDBn7jyrS9hzB9uxD2MhIf9XWbKxYn45P1+1QLF+9DR9/uQkffr4W733yBRYt/Rhz5r6HWTOXYtqMpZg6Ywlmz/sAc3kCmLfgQ8x7+33MfXsZ5s5fpoYXLPxAMZ/T5nN83gIOM62kn/O28DGHl+Ptdz7HovdW453312LRsjV4m6J6+91VWPDeKix6fzWWfLQOyz7djI9XpeLzDVlYvW0fNqYdwtadRymwY0jfx2M6eBJZh+V4zyKbxy7sOsp8UPlxgXlziS2ISzhw5iscOvcVDp//BocvMB8vfoujzNcTX/9I6f2M0zwJyu9ynr/HBYG/h4K/k/xWZzhPfkPzeJmcPOVZXv1bS1m8ynL3o3p4/shl+RfSDzjG4cxTX/GEv5siozCNGF0w0vTKU8glz1TFVBsy3ZueGGnamUFhT16zDVWqd4Y8rifXQUuUqFIk0Ouhqzuw7t/btXtkvLrILgK9oQ66MAKd5xCo3FE0Av101xHkiMRcxKnlmb8wnfgLVOA6HPgvo8fty+hx2bbAYUu6Jq3BPDBvR02XSwkS5Vr9kxbyvlMNK60dRro62tX4jbOCFwYRgkEuWbih5os8LIEISvQctz8eJYho/GAaJ/aTiGDWmRd++2P2vaBjlLxg3w8rf1RLgcjb/AW5Dm5aGHKN3P5bGXy/k/k9iXWSVA/TK3lepTRFnlqgh4nINDXnImZv3YlpNskpRGyCc7oduzyJkeYUCxnWN4r8JaqXdQiUJ8XKVdszAo2jQOXSUOXNrH5FAv2zdyLQFi3unSACDQ5sSIHWRtc7nsZ8P4FSnhYz2PRZtf84BSqydI883SrBH4H3n0Au8/zmO1B/fXRMU8gyeaDW9ztw7lv+2MRQEHJpg+LwfU5FcNsH+zJ54DLf/8RjyGs/zXQf3u078tktbUH4jsU+3b5tPazLoF2g+t9MItDNjIinswktz2UqCpKmA688yZRNFKdgk+g0N3nKcoJDoBUqtWWQIgKVa+wVt7D6BepaWNT9abu6dev+PSFxwKSQoCaWQGt5BSqfNPYXaKYS6NqDOeq9nzoC9cnT3BzyFXYLViKFczpxRpHOeWbYr0Ka9dnQ033RjIpsVHTjv5yQ1744yW/f/ijs29DoPPTeaHPBOc8pP9+JzQ39W9mXzx/ukx3H/rodU/5IlOkeaRaG3NuW/NDHpl44YhOosPpAjpKfFpqOJt2E54+OKv3lmaZeojyJ0hT0C5U5T9JZy0w3qOWMfDlvayYmymeNyzbXj+N55PGuCltZ/YoE+qfv6v7l73ENb5sqXwqU59SKUaDdBjyNBZl71b+P5GF5Eah8xkMJlGdTJVCpTFIRrcooldrv7rrBCMshLXtFsOM230zzE6ANP3Hmwiynx537kR/2fbDjlva34F2nEZPJPwuTp26YV+g5l1HLWZL0Q6bbcFvOVZRq3Cxnxq15xO24CsYuUDNcsFhle3rf7fsg+2UXqE2il35Ql5uMQEWGQu4o1DTDLXESk9ZPnpZAJzsEKlGowlrGjiwvL3SWJwCiY5KUQENC5A8fsdtZ+4oE+mfv5NOqtevdMitY3jpvCbT7nU9jYeY+9cCwSNREoSLR6VvTeVY/gRNSgFkxnQI1FU0VektwbhUhL/Ka71yHH0qM/uLUYvVhKmhh1+tMZ8ct/W8hr3Xp7TjzVD4f4o+ZLvnvbYY71uXEfhx23NIKaj5/T99+6Ldh5bmc7feWzxs70fPsojS/iyHvdcs0vX3fsSuUPHML9OCF77Esc7+SmESCRoZGqBp/cRp5SjqDiNIuUBOBqnUxvZKoLb1BbU+eBWW9GbNiAyJLspUXJE9XxKFEsfIprH5FAv2zdyLQGrV6zg9i8z0oMF4JtMddz2BR1j7MS91Ficr3j0SgmYoZWyjQ/TaBsgAbdGGW4dwF314hzLjbdLf5/1vktX9OTLrfSmHWI/OdonATqMn7guXJdAaznBp3S+vDbT/Udq153pOkwbacO1qYBafTONPmKVBnBHrpR+w7fwULWH5FZEaeRmxalpZErXETSYoQTVojT69ALcw0LVKDLOOTq2HG9ky89clqhEfId5HqwhNcv0ig10tXvvxf/lG1WtcFItBAS6A9737OEujuaxOoVGqZZhX4wlaSfyd+zz47j9lvXFV8f7zLOqaZZdxFIfLUwjDTTf5rieZGRbOCld6JWtZs17YPvn11X85vf/9ggbrlh0rvtj9KnkagOvoUss98jdkssyZKtEvNRI0KGbaYYkun5VmwQN3QItXrmZGShbc+XImw8AZKoPKcb4lisdtY/YoE+mfvRKCVqnVZFBTkE+hN9zxPge7HfD+B6ia8XAPVTXhWPBZcU/nkTqmRqLPQG+wV5HrEeaz2YTcRqa+C2jDTzbL2tAqbPO0C/b3YBeo2vyDU/uaKQilJ69KKK16Rmmm+ZX35pfFbv1q3mWftgxKovzzlrnxazkVM5wlfSZGobx4ZwXHYiNUrT0t4Oo2/PAW7QO3Y07gxkwIdsewLhIbGUaB11J8kigR6nXRKoFW7Lg5WAo1DsRsp0EEvYNFOn0DlL2/yn2D1AgUWyDUqAvUJ1Dxq4hSo6RtkvDBcS9p/J9z2W31xlJXdT5ZKhDYk3+w4IkY9X26USPo8BCrjFt75CscyHPdbjjgFmle6vPH9xiYP/KRoF6fBm94+bMs3lWcaM02lsSRakEDlwfrNR864ylOxWUvULtJrkaYTk9a+rGEG687wdz+jQOv7BFqifJFAr5PuHxUqd10aJC/akAj0xpq6Cb/zAOan7cE8Eaj1UgURqPwNTt+Fzy1Qaf5JgZZmlin03oJvwz7PTmHT/RnQFdxR0fPBt6z7fO8LkImfEGWeyM6GSNl/3H8ZjTXfWr/8juoEaMe2DnvaXGnYtx+7+v28ovS/OeSMJO3LCeYT1/b8U8vZ4fJ+TXk5Hvv1T0ugX/JEr6QmcpRvITnElh9OMV4r9vXITaQ3l66AxxKoRwRavHzRc6DXSfeP2ErdluQSaJYR6G6fQIkIdJ1doMRfoL5C/++KW8X9I/EJwKrgBWC/maOWd0mj5an7OnLVIlTT7ZJzwZ7ejpqfazsWtuUNSrqcJ2+Pl38cyT+KRJIyzX78vqhTjsknUK881XRfejsq36TvmC54BUr88leOx3ENVAT6YfZB9TVOI7PC4hShffxaMOubRoEOWfKpm0CL/ol0HXT/qFip62J5bVlgUDxuvIECvUcL9G0RqDTjU7LZjM9SaIGexEmr4PoJlDgL/b8bBVXgP4rCCtTIU9D7lDuNtwkv8lQCNQK0plnjftMVXM4adqaxo9djbcs+T0nJQDlRSiLNbdlHMWzUXDz30jis3JKtHhuzH4OfKE0kasdK+1tR27CG1X7LcdoEKtc/1R341F3XJFA3Cf4ezHqnbaVAF1OgHhFobQq0LgUaW/RXzuukkwj0naAQeUehFmivQXITSQtUXQdVAt3pFej6QyJQFl4WWhGoKdD2gv1via1imy98/tF4j78QAnXKUy+bO52O/IzkKApLcGqakZ0L3nXIsGOeHadAve9ytfoGiTw/WbUdiQk3IyyoHkJK1EHf/k9CvqApYvQehy2fc8nTSvd7cJYxc4xGoBJ9puZcUDeQfP8acscuOn8BWp9B/h2Y9YpAhy79zE+gAUUCvW66f1Ss0u0deWN7YJB+kP7me1/AO06BshkvApWXy64/lKMFyoIqBddUfoO9cP+RqPX7VU47zorqlkbjtu4/AvvxFyYCdVsurwjU/PPIi5Jebhn6oZbJP51Zj3dbXmH6/g4p0+StVstFno17ITSwHqLCGiEipAHatB2Afee+tfLV9jiUdTxq+A/Of+c29LVbORYtfRHoWp7kJ+UTfboJzw/zHfl8cabxjdu3NY11Zvh7XyBMNeGLBHq9dWzCd3snRAQa3IARaC30HkSB7sxDoNsyscFEoFYFtBdob6H+g1HrdlTE3KIsWJ4Gt238XuzHXpBA1U0bb3pr3Dbfjr0J751uCbCwaMFo1Lgda55K6xDo0W+k6f4D5iz6FPVqdUJ4UH3Ks6EiMiQet97+jPoGu85TF4E68l1hzfuteLdh1mXyxxKoRKEf7zqECb9VoCJPF4HK5QAnvnT+6e3bmkqBymdBIiLiLYHKNdAigV4vnRKovH08MLgRit1YG73vfTF3BGo14UWgG5VAWeFZ4VQTnsPeQm3hVvB/D3mt214xzTS3GxCCPa0Xl3S/FVmf9POSp7x5X754KX0lTSdM4y5RS3I2zPenCot3WRl2wSlOWb9812rvqct45Y0pqFi+OcKD4xAVquUZxuGKFVpg+qJPmE6OWx+D93dy5rPByqvfilneuw0ZN3nEfZY3MB248D0Wpu3GREtgdqHZJZcLS4g+MRpk/g5M2JCSC/e0GrO9KVsyMOqjdYiKkvdNmJtIsUXvA71Oun/EVqRA5Vs9IVqgt9w/OH+BHj7ldxf+f0Oggm/dtpsWtsppphVGoG7zfy9mvXkJdH3aAXy0MgWp+09pkV5htOyVjvR9IvUtRzG4oAWqOWxhHzbjPrhcHviJ8+urkG/di4w+WpWCW/o+gShPA8qzgWq2R1KgYcH1UbpMEp4bMgF7znyl3jWQS6B54Myza8G+DjUsv6WMm3ziPgs7uU8ztqX7SbNAeQqWDL3RZV4CXb/dJtCUQgl0zPINiI6RN57VVV8aKBLo9dP9o1yFbgu1QBurB+n7PviyEqg8xiQfj5OPa9kFuunwaZtApcL7CrcdZwX4I/A10+3NddP3zfemV8v4MNP9H173Tf89mPU7BXr8CrBg2Ro0jrsJVcq2RMum/TF+yhLszbmsXoQsMtUvPPGXqIZiMHilZ0nRETUWjEmvlzWP/Bz56kclzRPf/Yx9lM+Hq7bj3gffQLXK7RDOZnpkaCN9zZMiDaU8K9doh8dfHYPMo2fUe2Hl/aRm372/ve34Dc78KghThszyZt0K85tKGpnPfJE8kTK54fAZ9eznpM0+meUPxWfJ04tXiBoR6niKU7ALVEvUvoxvvUbgItDxn21GqdLJCLEEWrxIoNdN94/y5bt4BVqcAr31kVet50B3qwfp3QTq/ScSBape8msv3BbOCvFH4BOnE/s8W3oLM26eMdQ3Zn575XbDvl0jUYmW9525gt43P47QYvUQxTyOCmyAUqGN0b71nZg8fRnS9uWot8XLW+alOXxcPlVh+2yJu0D1zR2fQO3DeeFLI7I58e1POP0D8+vrH7B6+y4MGzUPHTvdi7KlmjHKbIgItkiiwhOUPKX5HhnZCM073YVJSz5Bds4FnOTxnvjatED8BWry1Yk9vwrC5KdZVq1b/c42JC33QQmUxyYnhA+yD2l5FlagRoBObPIUURqB+iRqj0RN1Opbry8CTcfEL7eibLkWVgQaVxSBXkfdP0qX7bjELtDbH3sDizL1XzmNQOV72EqgWynQI2fUy0SOK3nqgm2eA3XirBS/l9zC1H3vw9oqjS29hQxrqRlyV25BN0V9yxcGb2UWbNP1+n7BgXPf4467XkV4QDxiQhNQOjwRpcKaoCQFVZqCatqkL555dgw++nyr+n6QiO0MI9PTSqhyjLJvWpwK6zMWSqIOjCwP2TDClPWcVB/j4/599R0yDh7HnIXLceddg1G3dndGmAmKkuFJJFHJM8LTEKGMPCvV7IA7Hh+K99en4uil73GK+ZTDfZITqSoDguQd+848dcMbYav8Fnz5Jpj8lGHvMjLdPk+myyNeKi+YJxTorrPfqDIr1z8LH4Hmh6/pbheoV6RegVqRqCMKFaZsTcfkNdsRW6G1EmiovA+0eKWNrHtFAr0Oun9El9ICDbYEescTQ5RAlTz9BLpTCXSjQ6D2B+nzwl45fg9qfVYFsuMUqNmmc/sFCVQorETNuv32xZqm0ljbEcG/syoL9ZIHIpKCivY0RmkKVEQq/ZLBjZRMY2OaKZned99rmDLrfXy5KQPph3Ioh+8o019VtHj6h18oQYpQmtwU7fFvKEYiH1aTO+ZKrhTbMcpS5Ku/YAqVJuvIafXBujET3sZttz2DOjW6IjqiKaNNipK/f3RkM01EMpvtjREWwkg5thU63v4MJiz9AulHz+EkI2OfPK3oU/LMwpuPKlK2jeeBaQmo1gDX68xPyUeT1pvnVj7rZrt1PZjylBbR5mPnMHXLtTTfC4BSHC/yZLTpKlDBK1Ff1Gpfhwh0yroUVKraAUEB8j5QEWjFogj0Oun+UbJkB4dAh2JBxj4r+pRvZtsEyib8emnCS0FmoZbme2EEascI6F+F2zYNJs21RqFmWef68sK7rIqQfsaBSz9j3CfpaH7HcFSoebOK8GIoTYlEy0QkeSkVloho/g6lIxJRp1pHtG52K/r2exxPPz8SYyfPx9zFH2PZijVYtWmn+hLmwTNfqS+FCvvPfI1dxy8gZfdxfLo2FQuXfYkps9/Hy0Om4o47X0CrlnegaoW2iAqhMIObUJLJ3I+mKBnRDDFRLUhzNteTEM4oObp8KyT1eAiDpyzB+l3HcJxR7GmJYClNkae67klyidNgHXeu6RZ2cXoFSlT+OQXK30Mtp34XnUbyVclTNdsNP+KTPUcYfe5Q/323S+y3wwiUYjSSVDgFakl04gaKUySqROpbhxLohlRUq9UVQSXqU6ANULx45SKBXifdPyIi2r6rBBosAq2L20Wg6XsteVoCta6DikBXytuYpKCLPK9BoF6p/F9jydNecd0qtZkmfdf1FAItErlW/BMOc3j5rvN48Z0d6PTYdNRuei9Kl2rF6LMxSlFaItCykcmkKcqwX4qSjQ5toq+bMiKMiWCakk1QvhTnxbRA+XJtUb1aZ9St0wPxDXqjftzNqFG9KyqUb4fSMc0ZTSYhkkIO4/KeADbFg+RGUCJKhlGcYRRneDKb6Yw2RZqMjKO4TNWGvdHp7pfwysz3sTr7CPdbizOHUd4JwStOg8k/K+K0MI9PFR69Hskz//Kip5vfwWzLX5yMusne81fU88pKXH+YQIUdSsrmOqfIMr8oVEei1rLyIpOtaZiyfgdq1u2BwBL1EBIsH5WrvYZ1r4SugkXdn7n7f+Hhrd8LCUmEfBepxI310O+h1/QnPbwC1RKVwinvBV3K6FSkkMNms5Gnv0B/tQ1r7FL5v0aiT/2CDXul1JjpChm3prutpzAc/cqS6GVBXzPce/Eq1h75GnM3H8MT45ejff9XUKVGD0SHsxnN5r1cJ5VItDSFWjoqGWWiKFRSmmItTbHGsIkdxcgxQkWLiaQJwgSP9DnuSVJN8ghGmEIUhangtEgSzt86jCdLT3AjeDyNEBPbFk26PIQH3pyNt9emIeXIORy59IMW59dXcZziPM7fW5ATgW6eG3x599vEadDryJ2HerpJp0QtApVxr0D1/99Tci5qcRr8JPj7UAK1UAJ1StTcUPJeC+Vy3IeJZPL2DIz9YhPKlWutItDgoHjme8L7rHs36ipY1P2Zu7+XLtNxUnCQFmhAsTg0SOyH6etSvM+ACvJtJBGovFxZ2HT0LE46BHpCiTO3PP+dBGqa7kaS3spvR+ax/4cIVLZnbcu8mEMkpD47zHmHuO6txynTVdl4/M2FaN3lUdSq3RPlyrREKQo0ikKNouRKhiVQnIkoJZEpZVoyks3tiKZKpBJFqj4lGUmUOD3JFGUSRZnIyDMBnkDC31eEG1OakWa9HmjZ83Hc99osTFm+HRsPnuU+SrT5i0IeUzPSNOLMLU/BkW+c9puw1uGeh7715iVQ+fvmygMnlOD+FQI11zZNJOqUqBGo72YSl2H0KQKdkZ6NO18Yi8Di9REUGIfAgLhfa9XqNLhnz7/81aqDRd2fuUtIur13cHDT74NZyQJLNERQ8Xj0HvQy3qY05VEmn0C1RCUKXUC57jzzNU596ybR3AI1uFWQfzVmuyrylMposESpKq4NrxDsWNffnOsuLEbYdpEKIiH1+M+VX7D3wo/YeugCPt26H9MXr8broxfi4afHot+AF9G24yA0bNQbtWt1RbVqHVGWzfeYkiJSNvHZtI+KaILoqCSUim6O8mXboGJse1Sr2hVxcbegRZv70OvWF3DPYyMxeORcTF26Cp+k7Me2Ixew7+IP6oaUeSTJNNG91zi5f05xKpG5TPvN2PLZXOM0mOk6HbdloZfV8hTk76SLM/aq65VaXnb5/ZH4JCqyVFGnhZKnmc/tC9PTsvDK2x+gfGw7tu7qI6BEHCIiEnNatOje3Kp+Rd2fvWvR6Y7IUqU6rQgObMwmBgVarAGjlUa49eGhmLMlE/PT5Z2gPolKBCrfiV+UthfZZ79l5curKe+Om2D+ldjv5vrJk3grriCCtMZNOjPfm+43SFQdM5vyPoEKFIElUIUIi+nUnfMfgJPfAyc4LHfTD136EXtOf4OU/aexasc+LPsyBQs+3IB576/DnPdWY9aSlZi99EvMW7YG73y8ER98mYrPN2ZjQ8ZhpB8+iz080R28+D23IW9N+onr/gWn5O78FTbRuX67MJ2o65xmHy2M+JzjZpp9vFDkyl+RqO7LNO8r/Nh3E6hEn2knL6nPzfhdf/yX4S9RH9Z0YUsaZqRm4aV5y1C5Wmd1aSywRDxpgIoVu04cPH5wUfP9euratBjYvGRky4NBJRohOEAkGo/QgAZof9MjGP3RGizI3EeR7sFsS6DCDBWJ7mHhvcwohhWeAiiMRN0k869CbdMm0MLiFKwd5zbywn7M+tKBtQ+yXmKPeo007Mv4PsvME9QVeSRJi1UeSzph4LQc9jW/KgHLf+11n8jjThSlXo/05bEzjd6eD7/9sbDvr5sw7Wi5+S/jls4N73IOlDwtjDz1Ppjo8wcK9EesYvPdG33+XtQb7PVb7L2XA+yodDZZ2tm8A1NTMjBlSyoefHMqKlXuiIAb6jEwacAmvLxHoG1KmzbP1LCqXVF3vXTA4P9qmNT/9rDg5NPBxbVEQ9iUD+aZs3LlDrjnudGY8NkGLNy5Dwuy9mL2jmzMYnNeJDpr205sPnZeVfocVna7BPLDTTp/NGpbv0mgVuV2mefcRl7Yj9UnUN9+eEUl8lIS81/GC/ffD04zy7jhFKMbRqC+Ex6Xte2T/XiNOPMTqF96F9yWseOVo3M5uzgtzHOfIs+jRKLrxRl7CidQVxna4DQtTx+5lrEwzXQFhTltRyamb8/A64uXo91NjyIsKAGBN7IOSUDCll1keOusDm0GdrSqXFF3vXUlGzT4n0pVezwc4UnOkR9dPfoi/eJx8JSoj9q1u6Lvfa/gjXnvY+52Rp+ZezE/az9mp+3GLEakn+07jv0Xf2CFZORjREph+MlAoW82uUnnj0ZtzxKoyMVZQf3wRlrOCi8V2ZfOuQ0n5ji90/zkqZFpCns6C18++a/HN435J01vF7H+VnLljZUHTmn68sfCvkw++Jb3rcuJ2paSpFnOjPvQaa/qf1xd+l5JNOv0ZfVRuFwytEPJ+YmRTWyFTZC55nnhPGLSKWQaI81paVmYmZ7N7afipdnvoccdL7CJ3gnBxRiAlGiMkIAEBJdo/ENQiSZralXqkQSg6MbR9dz17Dn4v9t0GdQq3NN8iyeQAiVhQQ0RTjzF6yO0eD3ERDRBfIOb0O+Bl/HSzKWYsGoz5mTuwdzsfXh71358ceQ0dp77loX8KnJYOXM36bVAdcXNH//lNG7p8kIt4xWoL/pzxZKDayXnfCMLHen5b8eOfT+d4ixInnlh1qmPRwQqfQfOdIVEbcPkgaDk6JIHROWPPW0e6PwS6VnTZFmbCNW4bb1q3fb5eaCiT/nLKuUpSAT6+b5jGF9Q9OkiyClGkM7pW9m3I9PZn0SmpjDKTMvG9B1ZGPvlRrzA8t/ngddRr0FfREc2pzQbMfBIQGhQIjyBTRAU0ATlY7uuaNXq/kpWFSvqrucO+Mv/d2ufB+tGhjb/MiyoEQuCJVCKVCQaEdQAEYHxCGdEGlqsDqLDGqJe/W7odtuTeGT4VAxZ9hmbMzuwcN8BfHzoONadOIfdXzEqlWt06toccOJb/TEy9VkN6ZtKbCNXRXcRhdtyduzL+aabSu6onFaF1pXUBUsKsqxdoH775cV3TK4CteZdC3kdr8kLM985XhAmrU90mtx5INOsNL8JW17b4bpdpztQ10GVPHXT3Qh07/lvMS9lp3qkSP3/3RWJMilBP3mm6/+os28Eqf4xRKZuz8RUCnJ62k4lyxkWUzlv2Adf4qERM9Dt9udQv2FflAxvhpDiWpphgfJ8bRJCiUcJNJHN9yaICG1+onLF3i8NuPnBMKuaFXXXY1f+L3/5R/WqPe4sXbLVLhGnlwAKM7AB+3EIKxGPiOAGiFRwOIjTAupyeh2U9MSjbKlkVK/VEU073okuA5/DgJfH4sXZSzD5szV4P3UXth07p+4sy8syTv0Idcf5+JVCSNQuKGua2zKG3GmM+HSFzi2IAlAV2ScE3/rs2/DHKU6DW9r/K1Q+qf2yjs0rUAe2Y7djv27qhyO/3aToKk+Z5oTTffK8ypaNFuiRy99j9cEc6+53am6BepvcWqCTKEpBS5TiFGFuozAZVc5I3YnZGbsxJ323+i/96JUb8MbSFXj4rVno89DraNPzYUaZvVGuTGtEhVKOEmmyiR5GUYZTmILIM4TCDCmRgKDi0nznMKNQkSj5sWypNu/0vaNvNau6FXXXUyeRZ+3aPW6PDEs+HRbYSEWdoZRm0I31Ubp0C/RjIepz38uoWLEdQkvEqaZ8eGCckqi8cFeIpEAjQ+JYmOrxbFyXBaiOegN3WGgcysY2R62GPdCs00Dc8+hQjJn2LhZ/vAFr0/Zh7+nLyJFXq33/q3qlm8hV+nK3We4ky7sq5TlJLVC5+SEV37+S5leB/efrSumtkIVCV2KvNLh9rxAdw05BeZvrdtzS/R+RS6DXgOSruSmVG2vdHJZ0Js/9xOjNVwsrTd7oZz4lAhV5OqNPr0QtYfokyYiSkpyWmoVpOxhVUpYzJLrk8CQuO+yjL/H8zHfx0LDp6HP/q2jR5V7Uqt8dpUo1Z2TZgBFmHIKLSwDBehGYwPLNqDIkkVCcQU2YhrKkMD1BCahetxf6Pjwc7fo8g7Cwpggs1oj1QDfnheoVOy67q+tdEVa1K+qul65z+/ublCrZaq9c91RNd3X9swGS296F197+EDNZCGfyzPzWx6tw94tj0DC5P8qVbUmJ1mcEWk99H0d/7kHeXK6JCGXkSsI8FC6lGkKZilCDSDjnx8QkolKlVohv0B1duw7CQw+/jhFj5uDdT9Zi447d2HngOA6cuoATX32PC5TqpZ+BC+ScJVj1rOQVfT1QVVJH5dbi1JXT999tqahSkf0rp9s0H7IOs05uyx4NC15ZGMw13rwwafyXc8rtX413u0rs/vnnxHcCsmBeuAvTiU5r8teHFqZdoDrad8t/g7yWT+RJ2N9w9JS6866kKbJkGZ2WIjd1djGizFbXMies34YxjCaHf7Iag1mOHx41E7c9MxxdBjyNRJbt6nW6o3yFNigV0xQR4QmUYTwjyHj2WQ8kkAhm09xCXsASEaIJDWqspBpCwcbENEdc0m0Y9OokjPl0PWZupag3puOJ0QtQrXYvJdFQNuflumhYSNLVWlVueTEpafD/s6peUfdn7zp1uqNY1QrdpoazUGh5NmDhaYDuA57DpDWbMWt7BmawKTSdAp3JJs+cHSyoPHO/tuBjDHxhDFp0HoRysS1ZOOJ4Fq7LM21dFhZGoSH1KdA4RIhMLUScYaE8mxOPoiFCPI0QHNIQwYxmg0OYLrwxKldsjcQmvdGp8z247fan8AwL/ejRMzF/4Qf4cPlqfLE+BZuzDmDXifM4wuZczjc/4SRlekred/mDfpemIO+/lJcUy7OQ3hcVW699MxXzKCumvzylohp0Wq+QC5SnDZWGEbQDfRNIcKS34SY8BZdR++A27xrx3xaPLQ9ReuG4vzR96DT2ddqWY557RanEKXlsDZvpTOd925LKt1+Qc0WebdWoZ17VM63ku59x5NsfsCRzD8au244RK9bilcXL8eyMJXh09CyKbDx6P/Aq2vd+BEltB6B+45tRuWp7REUwEgyIo/TqE5ZVuSzFllZYcCOEhzQm+n2o0tfSbMz5cn1T7qhLJMryKa2voAaIrdgWyR3uxu1PjsTgmcswZe129SeTmVtYNzamYfom1pOUXRi2dCXqJ9yumvQiULk+GhPebn/dmv3jrOpX1P3Zu44JN9coFdn6iG66s8CwydKq2wOYwsI5c1sGpos82SQyzKBIRarzeKZfnL0fH2QdxKJ1GRi3YAWeeX0Kbur/BOLZXC8f24zSrI/ggFrqUwYSiUZQmCJIITyCBTYyCRFRTBfVFOGRyYrQ8GR4wuT1egkIYuEOYFQQIAU/KB6REY0ZLSShXLkWqFy5LerU6YKkpFvQo+eDuP/B1/H8i+MxctzbmLfkM3y2LgUbU3cjbc8RZB89ib0nz2P/2Us4dPEb5Hz7I8788AvO/virQoZFvicpWyVchVRmEa4dVnKRmFc8Pow8vFgiELwClcjTCDRXVKpxW7cX2bas022eF8c1ZVnGPm4j13ps8vSXpKSV/LCwzdPLWsupcR9y6UX+UWUe8Fd/BiByeUZhnexkvlzb3Hvma2SfuIS0Q6exJfsovty2B+99sR1TFyzHm+MW4NXhM/HS0Gl4YvAYtO/zMOok9EHFap1QtnwrNrmbIipSXqYizWZGkfLqOJab0EC2gii9cJ6kI0SUHk2EF7s42RyXS1esA0HF6rO8JqBsuVZs0vdE6+4P4o4nh+O5SQsw+uM1mL4hFXN3ZDOg0OKcvjldiVMEqtiUpuaN+mAN6sb3VddGw0KSuY2mv1Qqf9NrrHp/0zWwqPtTd8kN72ofEZz0nZInmy8Vq7THsA9WYhabQ0qYdnkKWzPYTEnH+1n7sOPEBfVXQ9UMFCkwCpSobceBU/hg1XaMnrYEgx5hNNDlTsQ36orSZdhM8tRFcFAdCpFRAAt7aBjPzBRmmBBOIkSklGokpcphNY2IVD2hTRixElYEIYgRRCCbUYGMDAJYYdQLGzjsYaUpySZZbNkWqFu7G5KT+6N9h0HocdOj6Hf787j/kTfx0mtTMHr825gx73288/5n+PCzNfh09WZ8zhPHKlaGTZl7kXnkJA6d/5oR7g84/d1PSrRnfqR4r1K8wk+6f04B9Y0jQa7j2ofNdd0zIgziFYgDuSwhN9Z8/y5ygfNVOhmWJxvYl38kef+dlAfmKQizjN+whd/+WPsqgvNemzbHYaGOT/pmnOmF01z+BE84+899hR37j2EdT2RfUCofr9qC91ZswIL3V2PqvI8xYsIiPPfqVDz0xEjcdueL6NbzEbRudzcSkvqiVu2uKMPfL4wSC6bUgvmbBjF6DLSQtxrJSdXDMiCEBjOaDGEQQMKJT5A+ZLp8rsRc45coNJiyDSLBlGxUyaaoymZ9csd70GvQS3jozel47e2PMOnLTZizLct6L8ROzOawSHPGFmmdGRwCJTL+NsvRC1PeRWR4c25b3obVFCHBjb5g1St6nd310CXUveOBiOAmV6UpE8Kzboe+j2NOarYuHIw2lTQNW9Ipzwys2H0EB85fwXH5RwgFelhQ/w7RzWBplqm/H7IiyUPPe05dRgajitXbs7Hwgy8xcsJcPPnCSNzc/3Ekt7wVder3YDOrIytMK0ozSUWegkjSQ2GGUpyh4YwuGJ2GhQkclnddWq9xC2UE4YWRhCeYkiVB8m+QwARGsBaMAkw/MEiWS0ZkZAvExLRC2bJtUa58e5SLFTqgQuWOqF6zC+rH9UBy01vQudMA9Ll5EAbc8TAeeOApPPX0y3jxpaF4+bUReG3IaAx7azJGjp5JKc/DpOnvYvbCFVj80QZ8vDoNKzfvwrodByjlI9i26zhS9uQgdd9JyuUUOY3UA+TgGaSR9MPnFBlHzyPz6AVkHSPHyYmL2JlzEVk557Er5xK5jGz2s0/aYD7vcnKS6RSyDNMwwsvmumSdmUe4rUNnyRm1Dzv2nUKKIgdbuZ8b0g/hyy278cmadCz5ZCPmvLMCk2Ysxmj+fsPHzMRrwybjhVfH4qnn38JDjw/FPfe/ShG+gO43PYKmzW5HfHwv9c7SSpU6Ija2I/O4PU+i7RBdqg0io5rzhJiIEjwBFisWh2I3CvVRnMMlijMKZNM5mCf1EP6eoX6/MZvDJCwvWG6kaS7XM1WTnSfUEJ5cBYlCY6KT+fu2QqUaHVGfom7b+zHc+sRwPD5mLobw+MZS8Lr1lYnZlKX0p7PcS0SpokwislTC9A5LSy23QKdtylB/f56+Ph114/oxMmak62nKE37NLax6gboGFnV/2m7w4L/8V8vG3V8ID278c6hIq1hddBv4AgW6i2dYRposOLqAaHkKCznvwPnvlDzlRbZHLlkYgXrRNwZEpnLzRpqBOVd+ZnTDJjM5K03mb65i/+mvKJWj+HxDBuW6DiMmLsEjz4xFH0aK8haiRk1uQZXqHRAVnchmPaOFIEaZQoC8oEGQV4RZUURgQzbBGEkHMUKlQD0hjFpZYENDm5HmPsKEFl5CQjVBHqG5IlAIaYYSjBhKBCWiOIVbgjIuEdiYUm6MAMo5QPoKLWSZJtIWgpXEGV1T0lERLVCmVFtUrNAZ1av3QJ26N6N+/C2Ib9AXDRr1Q8PGtyKhyW1ITL4Dyc3uRNPmd6J5i4Fo2fputGxzD1q3HYS27e9D+473oV2ne9Gx80Po0OUR8jA6dn0Enbo/ii49SM/HyOMcfgydFY+jc/fH0KnbY0z3GNM/ivadH0a7Dg+iTbv70aLVIG7rHiQl34XGTW5Hg4a3cp9uZWXvy5NHL55QOqNkVGuES/6x+SnHI++ODQpKJk15kmMeBTXncbdgnwS31HA4mIQEt2L61hRlW0VomNAOIWFtmN+cx/wOYT7Lb+SR9XPdGn0CDAlmPkpeUqTB/F11JCpyjbd+cza1GY1q9GWekpFN1OWdBo1uRnLrO9C6233odvvT6kmS+1+bjOcmL8KQRZ9g7KdrMWNjqnqvwxy2tmZbH02UFpYRpjB1UyqmMt1UNaynGYxQvYhAZZ4SqAwz4OD6p63PQH3mqxZoMk/gVbez+hUJ9M/eLcbiv7Zu2/m18JDGv0gTKKBYHXSlQOemUaBbM1W0KRLV6IK1YvdRnzzzwHuXNRfy/R4tVPmOj4JNPXnJhbxSTb7hI1GryPYgJb2bEVP64TPYsvsYVmzMwLxlX2DU1AV48fVxePBxiXaeQMcudyIhsSdq1eqAyhVbUVT6NW/SlJOKVqKYfIOGx1aCTX55Jo+iC5Zn9oKTWXFFrC1ZqVuRlvCEt7LQwyFCRGvSBp5IIn0hXBMa3tqiFcIiNOEWEYqWiCQRFGhEeAtGzc2VjMLDBA6TCDbtIqxhDedJmtCmjLAJ5RLGSiciFuQ6WjhPAiotlw2X9Qrchhq31hNm4IlB05LjhOIK5/GGh7XmtjXhCk6zCCOhnB/GYwxXtOUxCO24HaG9Iiy8gx+h4R01YRqZFq7oyPQGphOJelrxhMiTVTAjssAk1TKQ30ki0OI31uPvxmY6T4gR4UkoFdMcseVboUrl1jwBtebJpyOat+yPm25+GHcOGoxHnx6BoW/NxvgFH2P0slWY8NkmTF69jeLagRkUmjS75WU4b2fsVX39WkZ5skTE57tENd0mx2kiToMIVEnUYMlULecmUR8zKNApa9NQs/bNPLnL9ddknvSrb2P1KxLon71bvLjnX1u0afNGWEjCL57gBihxYy10v/t5dYNIFTAyixI1SAS6et8JCpQydBGnwi5MitL7OMxX1o0GF3QaK711CUDdhKBUc+RSgBKr7Q47+3I98ZzcAPr+Zxy58C0yDuZgzdad+GDFRix87wtMn/s+ho+di6deHIOB972M3n0ZkXUZhBYtbkXjxjejbp0uqFqlrbopFephNBPIaFZFMvGUK6NYRkFy+UDQUVEyK3xTXelJcAijVfYlggqh8AweCx31NqOwLCEqacqNNYPIU4tViLSQaFWIjGjuTySnCxwuGdlaRYZCVFQr0ppNYhLZyoFMs8OmM4nisFpGpvEEIbIPZ98rUApWw5ODiJQRY5hEj6E8aVh4PAIjS/aDg0lQa0aerTSBOgoNYjQawig1lJF8KPPQI2/CZzM6MjIRsRXaonqNLox4e6NZyzvQpfv96NPvCQy4+wU88uRwvPzGdIydvASzFq7AOx+uw8ertmPV1ixsyT6knr5QXwdli+Y0y4a0aOQVfSsOHMMsNplnpbD8UlzCTEaW8vpFeY+tIEGBak1RdtKycheoXZapmCJQoKpvQ0uUonRiyXOqJdDJq1NRtVoPyDOj8qLr4BI1trL6FQn0T9/1/MtfW7Rq80ZoSJNfQoJEoDXRY+DzmJ+xR10oF4l6YUQq10XX7KdARY6UpUaGLWzydBOlwnGn1ouar6NTI1NvtGq/C66wxjnvOPtyZ1hEKzcvRKxyU+P8VQr2J7kZIne5r+LQxSvYd/oydh49h/SDp5DKE8H23UewbscufLJ2GxZ+tBJT5i7FiHGz8MbwKRj8ylg8/ewIPPTQK7hzwFPoddP9aNv6djRp2Av163RD3VqdUatmR9So1sGiI6pX6cQoqRMqCZU6oWLFjhRFB8TKddVybVGubFuULdMGpUu1RExJ/SG3aEoxOopEyrD1pnn5MqZc8w2Ta39yOaIhm8wNKCa5YSaP09Sj6OsS6ZsmbH3OMzdZ5LKG6bOZGygnhYZcVwKFnkQYyTK6lYg1krIuSdmKjKOj2iC6ZGueVNoghpQu1RalS8s+t0P5su1RIbYDKvJ4Kldqj6qV26N61fY87naoWaM96sd1RVLTfmjf8X7cfMtTGPTAa3j6+VHMy8kYPWE2psxYhDlvv493P1mtvji6NfMgUvccRyZ/i13HzmPfqcs4fP5bHLusX/IsJ0m5IXWGv+np76AeU1Ov57MeR5PHz+TBevk//HEOp5+8qJvfUk69iCwtzDQ1rgVql6cv8tT4yTMP8hSohRLotp2YtGoHy0JneCQC5YkksES1omug10lHgbZ91RPU+Be5tlT8hhoU6HOqqSPXhGZTnHa0QHNwQgnUwiZNL05pEvujL26IGE2/IPJKZ1+fD7lEII8nWZGsVEbivdMsEa25w2yhphFzh/m8RLsU8akrV1nJv8aenHPIPnIK6Yx4NmfuxTo2CSX6/XJTJlasT6eQ0/DRmlS8vyoFy77YhqUrtmDxJxux6KP1WPjBWsx/dxXmLP5cRVezFnyK2QuWY/bbn2DW/I8wbfYH6rPGk2ctw/hpS/HW+AWqefrKkKl49sWxeOzp4eyPwjMvjMBTz72Jx556Aw899goefPRl9l/Gw0+8ikeffAOPPz0UTzw7jGnfwuDXxuP1YdMwbNQcjByzAKPHL8K4SUswcdp7mDbnI8zhfsxb/AVZibeXfokF761W/YXvrcI776/C0g9XY9kna/HhZxuw/MtN+GztVqzauAPrt2dgC0+26XuPYu+JCzh68XucZp6foejOfCcwOiQiQCVCi1McP32FfUpRUHLkbyRyNC9z1mWJJ2hBtW60MAV109JCvt90lNM+2nVQvZVpupKovtykrmU6pKab2rmlaZrlBqcsJ7sg25Nm/FSuUzDbmCKodaSpVz5OXJnCE2g7ClSeEmiCgOJVi77KeZ10f+3Rsu3LnuBGFGgciv9PdXS/8xm8nb4Xc0SgSqJGpPLoRgbWKoGyyZ2PPO0CdZda/rjJ0U5eaZzruWa8zzj6nssU9Hszf1YP5EsUpCo8BaEf3rekQMzjRUrOBspXkMjYCFk4J1DWFxglXySXLGRcoufzIm6ZbyHDOiL71fu40FmuXwlK9oMCUnBYxpW0iKRT6zLIOLnI4QvWuOpbqP0SZP0ORIIGWb+IUPAKUH5vlgHnt5SuDZGmKU9GnganQEWeV5F68hKb65kUl5GZ9P0R0SkoNdPXstSRZkHRpptA9fYELVBBphl5TibTWW/GfbaNkXwbS6ByrbfKZta9IoFeB91/3dKq46shgQ1+CQqsj2L/rEaBPq0iUPmMsZKoEqhGBLruwEktUG8h98eI0ytRr4i0nNzE90fhFeEfhr9Ic0/X4/Zjdp5ADOo7+mZ5Na4jLYP3e0SUhkjEif46JpEbb8xnLSnfp4bteC99qLS2ZckxCicv1DrNvuZL7m0a1HalHNhwKyd28kvjd33dIU+JPvdf+A5LWF7lBSLqjUt2wZH85Gim25cpCPsLS2RcRGkkbaRpmCR347dmYfTyzepROfWO3ZDGKFGsYtE10Ouh69mz5197JN45hM13CrQeiv1PNfS46xkssAlUHiD2E+hBCpSVyK2wG1n4SYSi8Uem/e/gFVYe0wrGLk931HrNsdqP2yDz/dZpYReOHclHBaXmgi+yc59/bdi3R7i/7sJ0klucMt3vuAWu062cFIS5Eekvz6t+8lRQqJ/vO05Z7bDe65lbeAanPK9dnDsoRHnvqPu7R3UaM2wJlEylQEd9sgnR0S20QIOVQIvuwl8PHbD4r90bDxgWHBD3a2BAPdzICFQEujBjH+Zuz84lUS3QU3kI1FdxvAKlKP4vBfr7MfvrPAYH1nF7cawnlzwFphPxOAXqy898RKewz/cn17LO7djX4zfP2n8H/vL04ZbWj3xaKnmhv1jqEKfCX54SjW45dh5Tt6Sr19YpeeYj0N+D+gYS5ak/WucuUH/sAs3EiA/XISqqGeTlI/K8dZFAr5Nu9erBf+vS6Pbh/gJ91iFQTcERqCVNAyXhKhsvJs2/O277njc6MqVgCoFavz3PCo0WnnoCwQW5S+0/zbk9uzRtmDQ27PvrL1Cu1xqWdZq+E/2OUVsZ8cNefjT6rUz+EvVFnlqg8u+33ee+xfzUbCUsb/RpCTS30HwyvFa0MJ0CLYxIfQId+cFaREUmq//Za4FWKhLo9dCJQNu36PVWUEB9CrQuit1QHT0GPqua8CLQuS4CXf+HCVQw6f6dcdvvgtDL+sknD/y3JdPslwhs82x5a5eiU5K+ced0jW99Rpy+9XrnEedyhcG3bh+qNWIvI7mwlyGNXaBOeQryHfgPdx+CfAlTy9MnUHeZuYnRYJehb9iXTk/7rQKdwjoz4v21iIhIsgu06Bro9dBNmTLl783b3T1ePTMY6BPowkwKNIUClZcnOAS68XDeTXh/gbqJxYmk+3fHbb8Li9v6fNiloyXkk6f7+sjXMl/L0fs8rEVe0zX27eTGzHejoDR5zrOXBxtKqkKuMuRDvVrQRaDyyNKGw6cxRWQp4txSOIHmxinDfLDkWZBA9Xz/aSLQkcvWIDy8CQUar156UtSEv066gVMG/j2p2T1TtEDrodiNNfQ10Mx9mOcVqJaoT6Cn83iMyVYxLAp+AzvT/Nvjtt/Xgts6/TGC0iJyW4c/+YsyL3Jvy7fNfz16W9x/exnJIwJVqAhUnvPUGHmmnbykXrM4aTOjT5GnfCFTydRfXAXjlGHeGHnmFqig1zdxYx4C3SoCXQ15q5S8JcwSaFEEej10PXtW+e9GSQOm+wRaE90ZgS7KokB37LJe32UXaDo2HmIEaglU3y21KoKtYvg+wJa78ucmd2XLTW4R/O/itt+FxW19brgtmxf2fLDnTUHYt/e/ixFobomyDH1tE6fC/vynfvZTItLss1/j7dRsq+n+W8VpcIjQVY7+8nQK1DfNbf2aqQw6hi9bBU9oY/36PfnLdJFAr4+uSpW//HeDJnfMDAqMo0DrK4FKE37Rzn2Yn7pLSdQr0O0OgbKguwrUNuxe+Z3krmy5+XcQgdu+Fxa39TlxWy4vnHngzB837On/b1AC/Zb7b8qKF3+BmuufRp4SeR64+J16C/2EjSlamn+UPEWAbjgkqbAvJ/Os+e7bENKUQIe9uxIeT8MigV53HQUa16j/bPmvtAi0+I210POe5/BO9n4KdDfmeqNQLVD5D/GGw6eQIx8i8xZ4VoBrFKj3Y2xqPHdFc+f/WgK5j6PwuK3P4Ja+IOx5YZdkYbBv+1r5PevS8lQC5bhXnDZ5esVpNds1+q775/uOUlaUp8iLzXefyNzElZ/UDHp5I0e7PP2mebeTG2861/ULWqBDlnyGkJAGFGgcQoLlDWFFd+Gvl+6/68ffMjdIXlIhf+W0CzSNAmUUaprxRqDrGIHmEqiRpwNnxTc3R5Q8vQIVnJXt3xXfsVw7buszuKXPD/uyTqkVhH3ZwuK2HsEtrRt6v70C9ZYRu0Bzy9M8srT2YA6miLAcAnNHxGUfzgudxk+WFj4x5o8vndv6BX0X/o3Fn6nIs0ig11/33/EN+80Jks9iUKDFbqiNnnc/7y9Q+e4LBTqLAp2+NZ2FWR5jYiWgOBUiSqtCyDfEtTh9lcZbeawKJMNegSpM+n93/I/n2nFbpx23ZfLCvpyb2P63sO9Hfvh+f79roOYk7Bd5/oDDFzUyvuHIaUxlU70wQtO4icxtvh73StCOX3qNSWffD9WEV8P2bdnYqAU6ZOnnFKh8gsQItHJRE/466f67YaNb5wQFyreFtEBvuvsFm0CzvR/OUgLdloEvD+SoCNSI046OKnSFcZK3QDlNUOlk2d+P3MQS3Ob9Nsz+/R7c1mvHbZm8sC/nJrb/Dez7kD/qt7fhLSuWQO3yPGLJUx5bEnlO2yLylOuePnHljVNieaXxjV+bQFN86f3mO7ermWgJdOi7X8ATogUqkWhA8UpFr7O7Lroqf/nvRgm3MQJtRIHGo9g/KdB7XtA3kSjQeYxAlTzlDd6WQD/cdQg5UhFYAfz/hSIVw0IqiQM/gQpMp+RpzffhX/l+C0agf0x067aPPuzHlT9u63bitpwb9mXc5Pavxr79glGRp8ojjqvfxTTbhas4quRpCdRqtqvIU+S5qbDydCISc5vuwEjT4JaGGHHmlqdgpGkfln23BPreSoTabiIFFEWg10lHgSYm3zXLLtCbB72IhRToPCXQ3Uqgs1Oy1Ju9Z2zLZFS6E/svfqde8WYkqpFxVpK8BOqtRDaB2ub7k7sSXgt2gXpxSVc43PbPR+EFanDbhsEtvRsmvZvc/lXY9/PaUL+97Dd/ByVQI09GngpLoEcpTxlee/gUplCa+o47pfSbBPrH438N1i5M53SD1YR/jxGoR77V1YAClU/nFAn0+ugo0GbN7pkZJB9FKyECrYM+979Cge7VAiUqAt2RpT5zPENFoZlsxp9Q3zCSd2S6SVRJxQ27QEluMdjJXRHzxreMyNJVoBa+9Pbl3TDrzJ9rk6fgti3BLa0LIiP1VnbBTXR/JPb9+63oPJLfXwnUIU7NDzgmXP4Raw7lKHnmFXma644qGrRN/1eRd9RpMLJ0myYP0qfjDQo0NCxBCVTexhRQrGqRQK+LjgJt0eKu6VqgDVD8n/XQ/5E3sMAS6FwRaKoIlE14iUJFoimZanxbzgVK9Ff1t06vOAsSqEUuKeSJszK64VunCNLIs2CBuq3fTC88XjkUGuc2DW5pXZDv7/9LBWrfp9+P+s3dBOqV549KnAcufIflew4rAXnlaQnUd+3Rdw3SiNRfXL8Fp/z88W3HLkr7Mma6+zQt0M8RFtbE+n69vM6uStFd+Ouiq/uXv7dqetOkoMAmFGgjCrQ+bnt8GAW6T8lTIddBRaIpO5VAhWnb2ZRP24kdpy4pieprohYy/DtwlUZh4Lbt4sxLot5KbVARnYU1zXX9eXAty9jTmuHCLms47idQg5sIfwvO9fpj//un4JbGjvcYrfxVLy9RAvVFnvI9o11nvsaSzL1anEZClkAnbEjB+PXbMX6DRsa9z4P+ZuzS+xdge8hfBPrK4uXwhMgH9eRjhfJG+qpFN5Guk+6vjerd8mpwYJNftEDjcNujw7Aw+4C3CS+fODZRqI5AdRQ6bVsGx9mcP3gSBy/+gJOsKCoalb6pOL8BP1nYsE93xSFQJ2a6REH29Sp+r0BFDo7peeHdpgP7fHt6J+4CFZwyvFbc1qlxitNJ7vT+x2byVgtUmu+WQBmJbj9xHnNZptT1TrvkrOhzgohTBGrx+wVqE92/CptApzLYeGTsHAQz+vQEN0IoBVq8eLWNrHtFn/S4HroGjW67Mygg8WpgicYofkM8ElsNVHff5cucc9OtZjwlqgRKjECns2CIRCdvScfCjL3YePSsevREolEVlZKCRKqkQPH54UjjlzY/LEFeE95K77K+a6CgfTTXfBWOfTBpnMeqn1Kwp7Wv0ycrf5xSzAu3Zf2RvPHffv7o5fyPwx/OtwQqnxaRT3F8tvcopm1J05GnJUyFij5FQFYEaiQqEahqxvsL1NusJ3In3TtsS6OxBGfHJrvfiv01efb/6Et/RmoWug8cjOCABlYUmoCoiCaLWfVu0DWwqPtTdy0a35vgCW5xIaBEAgKLN+YPnYABT4/C22xSzbMkOocSnWVFoVqgWVqgZOp2SnSrvDg2nbLNxor9x1TTfv/F770yPZGPTAsrUCc+mVi4VOprwQjgt+C6PzZ88vRJ0R4tuy5jzfPHzDf764ZTlm64LeePbM/so+Ir3/7mhfM30liRqsynQOWTJPJGpQU8KU+gONX1Rau5nlt4+k68r/meW6BalnqaEacX23o0lvAsueWFXY6FwSlPw3QGGm8s+RQVqnSAfPVWBBrqSbzaKL73IKv6FXV/9q7H7bd7ypfv+W5AiUQEBTRBQLFGPEM2w0NDpmPBzgOYn7UXcyjR2RKFUqImCp2u0BLVZChEqNN3ZGBh5m4s33cEm4+fxZ4LV9RjK1KhJDI1iFhlmpGnf8Ujpmltx5nGwitQ+TeUXGdTWONmXiFxyqxgfnWZplH7RpwCdaJusBSQxotNdPlTeGE6cd2uyU+XfM19aURLU0/X8w6x6b7qYI76R9sEEZrISiHDFg7piQRFmgYlSvt8My0XToFaslNyM+8Q9TGFkbBgf7+ob//cscvSjy2MPHdkYuzKDUhuezc8gfqb/J6QJogu2S69Tp0+1a3qV9RdD1379k80iYrqmBVYoomSaGCxxogIa4q+D7+JaRtTMX/nfsxKp0AZYSqBEqdAZVjBgiNMTaFMU9KUTGezGSNC/XjvYaw5chLbT17EznPf4KDcRGDlkkeijFBzRapOgQrONMRdoL9VpFpkdhH+VtS+Wbg14X8TluT+lbhu15BHXvp+D588T/DkcujyVZ5Iz6moU6SmxEbR5MIuPJtMzTKuuInTkqfgW6es30jOJ0w3fBJNy72PNoww7eNT2BqbwTL/0tx30bDprepDcvIp41BPE4SHNrvSuMFd9w/G4P+yql5Rd710jerfeUuop/nFIEaiwQGkeBPSGElt78WwpZ+rSHTuzr2YSYnOSBWJ+qJQuzzlzGvQMmVkKqSkU6jpmGL1Z6dlYUn2PnxEqa4+nIMdlOo+FaleVU3/nCu/6u+NkxNCvvIUWIlziTMPrArvJQ/B2iWo8EpcbuTYyCcCdSJidm7nmlGSk/X5hPdH4rpNJybPbPmmok0L9WQG2cHm+tKsfV4R2gWUCz/hueMTp8EnT/+0sj4LrtuITuQ4ZQvLYZ44ROrEti4fabrlxUBh8qYU3PPyOMRWaAtPUCMlzjAhJBGx5bosffDBAWFWlSvqrqdu9erB/y8ursfgkKCm34pAQwKTlEiDbmyEMqXaoNfdr2D0R2swj5HknKzdmJHGKFRJ1CdPp0C9pGqR2jEyNUxPzcAsFsC3Gel+sOsgVh/KQUrOReyyIlWp2CLTnCvwNv21PHXFvSaBuqC+w6PwF4O5Lvt7UPtpYQRqri0a+VwTSnRmnTL8B+G2rbyw55Pkodwg4nSRp7QiMs58jWXZB5Vs/JvrBUDheSXpwE+iuQTqm++LNAWRnk+ASo5bWebywxKpnzgdqH1lU30qy77Ic/jyNXjgzWlo2Ox2RIQmKnmGhVKcgifx18iw1p9WKtuymlXdirrrsRvy9KDA2jW7PR8S1OJscIB8BEu+JMi+RKXFE1ClSjf0HPASXp33AWawoM2hTGdTprMyJCq1SZTDubBkaqJSk1aQCHWqkmoGJm9n4dyWholbWBG2pmIWC+jCjD1YtusAPj9wHFuOn0cWK+fBS9+zwv6kK6wN3XRkZbbEqN9u7hOlHZWO6f2nc1ytQ6TiEJ9tPD8kInVGqD7h63X9HoFq4Tm3a6bnjb4WqYdlPUd4/PqVcrm3kS92cVooeXI/9l74Hp/tP45pLB/qmqUR4zUw0R49Knxi9B/3F6uCy4s4vZEk90NucGpYxrZp5AkSM6zgPLtE5caoQoRphrels6yyvLL1JAGERJvPzVyCbnc+j5r1blKRpieQ4vQkGHGy3/Rq2ZiOH5QMTSy67vmf0C1ePPi/kxre3aNkRPstwQHJv4pEPUEa1bQv0QQxUW3QoPFtuO3hN/HSzPcwcdUmzKVE5+3ag9mZu1i4GJlSmnnJ1Mzzl6hGJDqFZ3QprJMp0kksuBMp0glbWVnYn8LpEvHOTsvG4ux9+HT/UXVddcuJc8g4fRl7zn2L/azE8kiVemTGkqlPqP6VXuGVgTWu0MLzg813dZ3WwndJwdeEN+O50fNUOisKNZht2qflhxaiEacdM88dI0/ZlrqrzmM25NqOV5K2aUTtp3eezlf5A8XuC99h1eGT6h9rEzbzt7IJ8V+CU6bWdBV1Knn6S1OE6YXlSyHitDFFQYGqsidlkOMsj9PTszFrJ1tdbCWNX70Bry76CHc+/xbik/ojOqqpus4ZEtjYEmai3GmHJzgJUZGtjtate8tznVvdFm1Vr6LuP6Xr3PmR6tUr3zQuwtPqdEhQM7Bpz0LRFKEhzRDKvocRqoeRaUxEK9Rv0Bdd+j2LR9+cjrc++AKzGE3Oy9qFednS3N/FCHWnkqobct1IsSOLAiXSJFISNQXZIBGARuZJmmlKxr51zabEF+5ktLr7AD7ZfwQrDx3HpmNnGLF+pT6Fqyo7K743ahWpsG8wIjORmghPmqNGmPYnCLw3vYiR4+8lL4mq/bL2R6UTCaq+E53OiX0bfutmXtglascnSXfUCYbsufADvjyUo159OIHymqgiNv5eZBKHFZbcCg/XIetxYprjdqx53ojTQsmTAvQ9JcKywrIl5UthTZMH3aUJPpXin5a6k7JkAMCW1cysPZiZsYty3opXFyzFoJfeQvubH0Ld+JsQU7IZAwktTbmzLsIMC01S/VBPktyAvVylYvvFiU1vawek/N2qUkXdf1o38p13/qdDlztaxcbe/HZ4WOtTwUHNERJMgYY0RxhFGsZ+KMdDVGSaiHBPU5Qt0xYNmvTHTQOewxNvzcBb76/A1PVbMIdye3vPPszbvRdzKNZZFOtMafqLRC2RKoGqKDRTRaEiSp9ANV55Mp0sOzN9J2YzQhB5GuZmZlPc7JP53M7C7D14l1L9eN9hfHk4BxuPn0XKqUvYeeZr7GO0ekhFqz8hh7KRJwL0UwG+PwQYWdrlaZ8uN7jyes61MJhljcDtkjPTjNAN7gL1x57eLGNftzMKteOL1JnWhvnL7q7z3/EExYhzx04lyYkiTStquxaB+q5V2rAk+JvgdlWznfuhBKqEyfJlkOv23OcZaVL+dmE2RTl35z6O78R4ltM3P/kST01dgFufegMtug5EtRrtUaokm+PB8QgqHocgRpueILmrbkWaIZQnpcmm+i/RUa1OVSjf+YMm8QN6tW/fvuivmkWd7p566qkSTZLval+zZt+xpaN7pIYFt7kcGtLy59DgFhQoJapkKmJlhBrM5n5gIqXKJk1QE8SWbYeGCf3RoffjuOPxYXhs+HS8Mv99jF25HrPSszBXolQym5KbzehRpDqdhVmuiU52ClSiUml6sVKoywNMN5PY5SmiVtEvm1zzLWRYps2hWGdnchlGxIKML+I23921Xz0N8PmBY1h3+BS2HD+HlJMXkM7Ide/F75RItDChbmKdtKFvbMm83MLKhcgn13QjR5GTT5hu6Pm6ue2UpSH3+jV6vl2eNmHKF1adKHlqgRppHuZ46snL+HT/McxJy1aXVyapk5qc7OSkZ534lEi1REWGcrPFyNJVnpyvMRI0aBn6xu3T8oDblYhSpClPi8jjd7MZUcoTJPPIfHmSZFsmRq9Yg8FzluCREVNw62Ovo93NDyAu8WZUrNyWZZmyLFEX8rHFkKBGCAlJgEeub5IQClOk6QkWcTb9oWRUq5yK5bp/UqtWr2cTE+9qO6jP00XiLOrcu5HvjPyfgQOHxiQkPJBUu/ptr5SN6f5pVGSnw2Ge1lc9jEQ9IlKPRqJRFjAKNYkybcKzdyNGqY0QHizXUJuqxzziGvVG55sfwx1PvIknx87G0MUfY+yK1Zi8fitmp2Uq8c2i5CRCncrmulyP0o9B6ZtQ3gjURaBGnkqgWaxASqBGotn6xheXVeumrKcYYbPyTeW6zaUBkbw8ebB0l1wWOIqVh09iw4lz2HH6MrLPX8F+Rq/ygLjckLFHqfL8o8YmMUpI4Z3mL8+CBCqobweJ2GRYpnFZjZFkPljLeAXqFeZVHLbLk8iNN9kfEejOs1fw5cFTeDt9r2ryijQl0tTNX91i0HejjUSJkqgVjVKKGps0HeJU8nQTpQjawVQzrObrE6qcTGfx9xWkbEzesB3jVm7EyI9W4+V5/397Zx4dRbHvcTw3USGSzEzP9OyTZLKRjZBkkpB1lsxkX4ZASEiIYRNBZTO4IYrXhxs+QRRyiVxABCUhIAKKgFeDKCA7IshOFohABAIiLlfk977VMwG9z/fHO+/dc959p77nfE9Vd3XPZLq7PvWr6urOGpo0q4GqJjxD2aXjKDbeTeYQBxkM6aQRU3BdWkjWN5Hk/kkkyFMASXTPVRmSVSKgiVQARJWqrJtajf2aUZf7ldlc0gRgPlBdPTkhI2OIis/t5PpviajXHXOWzJBlWyfZEuOGT4kOr2g2GkqOA6aX1arsX0QR3XxYZCAVGVRtsBVRKro+gKhKjosTUarSH12igFREq+lkNmRTfKybrLZaGlRVR/dPfZEenfUGPbuwiV5ZtZEWbvmC3kFFeccLxWWIWpd/jahC8lFpmUW07GbWcuSXHUIkCnD2wJNBk43HMuguBhgZQKXpWAAlAyYDJzMbHmA3uhhAF2G7v8ILAfSF+1BZ9wMcUnpQumG28uvj9N6x0/T+yXb6qLUTcO2SHmX9qusaurnX6SR7aQZAxEDayYDaA1c2TIB10hgrMxsG8A4F3LI38pPAKnWhWUTohR0DIHNPRMpg503/K3vgybb/RYomWyVw3rYHnNgW38W69/vPX6W1R1olML4G0EnddAmYbKz6P5ut9/gfQPo7iHrMuva/W8egucszn9Izp/IgehdowHC+POfNcw6lxhFegfP8DsoWbttF/77+I5q+ZCU9hGuluu5Fyse1k547mgakDKXQ8ALSqDNJkCGqhNkjlYL3xcYqCZRpnpcds//brkonAe6BJyLPXwVl5vdavbMjPNz9Sf/+7ucslrKagoIHBqxb19AH1eAOT23g4vofiIjuyBk4ROHMuj+soGCCPSllzGMREZVLA03Fn5mMha0aTc4PIiAqKtlAu1UCqXTHEtZ6rZHSTIA0g0Q5Lmj2BIc8nYyilUIA1ghzHsVEl1LywGGUV/QAVY2aTmPrZtHk5xvomUXNNHvNJpqPbtmClu20aMdeWooK+DZA2nT8JDUePyGNv77FZgkAqqz7LoFRAqcHlsw9MwHYCyDY0ACruFJki4rrsWcOLAPyWwzg6P6/DVC/wwyIvw2vgBuPHKeVR09QM7z62Alae/w0bTjZBsCepZaOb2hrxwXaBtBuQyS7o/Mi7ey8RHvOd9OXXVfp0MVr0rDBiSs/0qkrP8F/p1NXPVHuKa9vRYteiPZA8Y8AKs1C8OZ7tmP7tEog/q0ZjD03hbZ3XKSmg8ep/osDNHf7PpqHtJ5N85HgyY7RHwOUrX+DGfkG5t9B1AtSBkpvlM9mZEg9CO/xXYRGqWHnHqr/bAfN37JdiiBf/aCFXlixnqbNf4seevZVGjHlz1Q+8hEqGvIgpdlqKDqORZO5iCZZQ50FQKaRHA2yXJ4KUN7ufrP3cYreeZksZVaJDJReYCIvqrOu67TOVq3esc0QlL86Lj7v+QxrRZE9qTI6M3eQtqVlho/3kufi+qfqDqJE3/r6etGZN94aGlw5KiZm6Mzw8KHrDfrCQ2rR2YXu/Y+A5q8aQFUDoHoMiKISeIxltQ1QtZJOAmwmadgdTwWM6FVE9CoGALSIYBloA7UOiu5XTMlJFZRpH0XO0ofIPXIajZj6Ek1+bgFNm7eMZi59l+as3UwNW7fT8gMHqOnwYQCPdffZDSdPpOrp/jMwHkHZUWpkBhCZV0g+QY0AYxPAyODcDK/yuhnrmFceYwCFsX3TkWPUBKjeMluGWRmDbI+bsf1qpGuOn6J1J1vpg9PttKntLP0NwP3kzDnacvY8be28QJ9900W7zl2mPeeuSMMI+y9clcZqv+z6jg5+e40OXbpGhy99DyMCvnyNjlz+no51/4BI2APkVgnAt8EpRbWAK5uG9NHJTlq8+xDN+WwPzfl8L722Y78HngyADJ4MnOxONTMamEXsqTT2eO8Bzw2ZxYDg4i+P3PIitg5ewhoeNg7JGqO9+2l+yxZ6ftVaevrNRnpkHsD4QgPVTJ1Fg0ZPI2cZwOgaQQnplRQzYBAFmXMBOw8Y2Q0cBUsBRgENrUIyymClAKN3g242gGkFHJEyY1lkd8jVHnvX3RDVth/UOselQLPrWGRkyarwqNJ/S0yuGJ1tvd92773T9C0trXcT75Zz/V8Ra7379x8kGgzW0NjYqkSrddKwuNjal03G3LeNOvuHJl3OnkB9dpte67yqVdt/1oo20sEMoAymOslY9prl2ToWvbLH5Jh74KqUIfJAFCIArgJAq0HlMqodFKx3Uai5gCKj3BRvqSCrcxSVVE6hClTceyfOpDFPzKYHn/sLTX11Cc18cyW9tno9LdqwiZajwjdt30bNO7+g5t27qXnvXlq1fz+9Cwiv+eoreu/QIVp/5DC68cdoQ+tJgO80be5opU3trbSxo40+bG+jD9rbaX1bG61vbaW18LrTSOFbaSsra6P3JbfDHfQBvKH9DG1og5F+2HGWNp7ppE8A1ZYOQBXe2nGePjuDiBZg3XHuW9p94RLt+7abDlzqpoOXr9Lh7mt09Op1OvEdotlrP1Mbe7nID7/S2R9v0hmkR7qvIzL+BhH314DllzR/F6JxwJGNE791GI3JEfhrdhOGQdEza0J6iuyLvbQA3ecF23ZKsywWfrqN6jd/TLNWvU9PLWqkKbPfoHF/RsQ4dSZVjnuC3MMnkatoNCUkl1NoRAEZTC7S6BykUttJIWRSgH8a+d8zkAJgGRpGGYsk0TCyMgGNrEq0SxaxvWTvskrlSRk8FTjPAhtzx/YCrhtElDd0Wtv3Br2zTa/P3qvW2zdHReU1RkeWPpOaUVVeXDxuYL57TLi7pkZAL4rDkutfTn/aQw2+N8+97FdbMSMoN7vWZrGMHG6JK38wJqryuYiQshXR/cp2B5kKT+rVrnN60XFNJzp+0qlsNzRKBlebFLmq2dAAKg5L2XqNtN5jNZbVrAwWEamIqGQqgFbJZgpIj6taEdmwN1FlodJmwlkUwIxlOdtXl0OB5iLqFzOY4hIqyDKwmlKzagHf0eTIG0uu4nGU536QioZOpiG1j1L1uKdpzMPP08Sn5tBjL/6Fnn59KT27sJFeWLqaZi1bQ7Pefo9efmctzW56n15dvZFeX/sRzXv/Y6r/sIUWbP6UFrLZCZ/uoGU791Ejort32QwBdP8ZTDe2n6WPEI1u7fyWtp27SF8Alru6LtHuby/T3ovdtB/QPHD5CuCJyPTiFdp3vpt2nemi7ac66fOjHbTl4GnauPMIrWnZR8s/2EavNW2kxxc00uTXl9OU+SvokfmNNG1BE8346wp6ZuEymj5/MU15qR4NyytU+eBMKh3xJOVXTiXX4IlkK7yf0rNHUnJ6DSWgMYqNKaWQIBep0SVmN2MC7rFQgF8i0kTy72shf/8UOJX8A9IpICBDsoy9/YsZ50OO88IAeMsAIgOnEudXwHlQApICA6XXKpWDRFX2DVF0/qRUOa6rtTldZnPJqYhQ9+fREUOWRcW4X4qOdk+yZgwd6XBU2ccMrwt+edNbfodWrrxzxoxeHJZc/7+FiOBPiFTlGdlV5qys0ZF5eTXxhbnjnQWuscOTE6qftiSULUyIG9ocbMzdYtQ6vzTq8loB18uiMvMnUUi7IQqZN9UCAKiwAZrsSSoPRCWgMkuzBbw3upjV2YiGPFZimVlQOUnRY6UTlTybZMwKBwUIdvLHZ/fF5/YFcPsCuMz3BGTSPf4Z5A8wywUHCWoXqQBhjSGPdMZ80sPGwAIKDC5E97SIgkOLyRxWQuZwAKifm0L7lVFY1BAKjx1KkfEVFG2pprjUWrJkjqHkrLGUahuHSK4O0H6UCsufQAT9JJUOm06lldOoeOjjlO+uI0f+BMpwjqeUrPsoYeBIikusodgB1RQVO4zC+5XjO8vIGOTG31NKBqObTKZBFGhyk9FUCpcgOiwmvaGINNoCgCoXjYoT4MNvDrCTzJ/ZhojRimWkMlhupwDpmDhIpkQ5M44Ps1yyDWbHA40SGjEZjtkt49hJZm8BQ+rZDo0a644rM39Rq9Foal3fGIx5R/WGvN0mc8nm6P5Dm9MSqxvi46qm52XfV+twPJTvzB9lqaiYFGm3lwWOLR8bwK4f76XExcX1W7EIAhXE9ybNvWvOnFpZzZgx4QX2SVmRITkVMv/I8X69zZN1mrSno6PccxNiq5ZGmAd/GBrs3m8yFLTqNNnn1UJ2t0bp+kGtcv2sVjlviCrXTZUI0DHYqXMATxcinxxEPLnIw+pcT56VMWuQ16Dca4XGRQrsy8yAKYhOmKUoU2E9ANwDYwHQFgBvQXTgs1mK5d9YiXJmQYkywFoBKCkUSGH2IINcDkjJXEiZAXWFCwDy5uUoB8humy3jewX8DQL+FlgQ8FuUeZJVqnxSKWEVAyUz8uJtK9VeawqQMiOP9YKI/X/nfPz2Apil+STDOhmOlxy/XS41PPibAVm5wnZDobD/Xa6w/whoXhOUWRfRFT+r1eYcM5uLt4eEFq2O6De4Pjis5MXQ8JzH9cb0SVFRRSOz0ivyK0smxE+bMk1f93Kd34yVM+5k/88LlwKPJLm4/hliMwNWHlp559wZc/0zM6u1AyILw4IjsmMjI0vic3NHpTocY9052RPHJiXVPjkgoXp2SOjgJcbA0maDqew9g7FsA7zNYBi812hyHzQFlx41mQe36U2l50Rd4SXA8bpCdP2sUOf+Iqjz4ZxfBUAWywCo14jc5DBLBQnGXvh6rQJ4Pc79B2MdK4dFlgJEHiOPz1Epmb2wUwGCgJUS3yGVMciz7dh3SSnbj23DwFeItMdFiLq9VjMXIw9L+SJ8N4wyto9SSj15z74AKaxQ5d1Eo3ADDcvPam3xd1rDoHNq3aA2tb7sqMZYdlClG7RTbSj5m8lcvC4swt2YlFgzLz2p9imb6777Ha6x5QXoVick5CTq9clxoabkqJSU3KCiomHKplde6c3HI7m4/nXEKiubnnInfHdtbe3dBw7U+TU0rFPOnPamfsSwiWFjassHDK5+zJaRMbIoLCyvUq5Muc/PL35CX1nqJGNwxcOx8WOnD0iofTGmf+Wr8XG19VFRFYtiEypWWCz3vhcTU7ExIsz9cUhI8dbgkILPTUEFO7SG/H2i1vW1IGadUKrSTwvKtFaFKrVdrhx4RqFI6pQrLN/I5QnnZfKECzJZ0gWZPO2CQmHrEgTXJUGR3y0IBVdFZc5VlSobdlxB2q1U2q8Igu2KQsi6gq7yZYUi6wr2uYzlSzJ5Spd/gKUrQJbYJZMn4nMt5/G5nTJZSqdCSOvAtu2IDFtFVf5xrabkYKBp8K7IsKotUTG1mwKDytabA4esCg0f/mZEZOX8kLBhs0NDa54LMpc/huPwsFKdOjEqtmxEdvaoQotlvDXHPiWuomJWyMgnFqnYXElrbeDdOK53wTxi5OLi+mOxMTeiBt/WliV3P1Befs/48VXyurpxYomzRJecnGeIj08NjIuICzIao0N0un7hCkVYpJ+fIcbPT+zP7NsnYAAc38c3IMEX9vHpbfHYH9ZYevtEWPT6ghSLfURaom10elXVjKyaYU9Yy90jM9xD3KnuosdT7Tnj01IzR6QlxQxJjTYNTrMmDB0YF1WY7OMjWHr16m3p5eNj8entY/Ht0yfRt49vAlJ8V58Bvr4q5ji5X2S0VojpFx2aFlKUWGQqKRmli0qyaqyJRcrq6gn+GzbMvYuoxYdF996fzcXFxcXFxcXFxcXFxcXFxcXFxcXFxcXFxcXFxcXFxcXFxcXFxcXFxcXFxcXFxcXFxcXFxcXFxcXFxcXFxcXFxcXFxcXFxcXFxcXFxcXFxcXFxcXFxcXFxcXFxcXFxcXFxcXFxcXFxcXFxfW/oF69/gNnJftOG9LEiwAAAABJRU5ErkJggg==;" vertex="1" parent="1">
          <mxGeometry x="395" y="440" width="60" height="60" as="geometry" />
        </mxCell>
        <mxCell id="LsWn8GA2UwA5rAKpBynm-19" value="&lt;b&gt;&lt;font style=&quot;font-size: 14px;&quot;&gt;library-network&lt;/font&gt;&lt;/b&gt;" style="text;html=1;strokeColor=none;fillColor=none;align=center;verticalAlign=middle;whiteSpace=wrap;rounded=0;" vertex="1" parent="1">
          <mxGeometry x="330" y="580" width="107.5" height="30" as="geometry" />
        </mxCell>
        <mxCell id="LsWn8GA2UwA5rAKpBynm-32" value="" style="shape=image;verticalLabelPosition=bottom;labelBackgroundColor=default;verticalAlign=top;aspect=fixed;imageAspect=0;image=data:image/png,iVBORw0KGgoAAAANSUhEUgAABLEAAAE1CAYAAAAYpnI9AAAACXBIWXMAAAsSAAALEgHS3X78AAAgAElEQVR4nO3dT3LbRrv24TupzOXD+QfxXYGUFZhZgZUViK4Pc8srMLyCyHNWmVpBpBUEWkGkFbwk5wdlrsBngIZNSSTFP+h+uoHfVaVyEttAR2o0gRtPd//y/ft3AZCyvCokfbJux74Wk8Ev1m0AAAAAAMC3X60bAAAAAAAAALyGEAsAAAAAAADRI8QCAAAAAABA9AixAAAAAAAAED1CLAAAAAAAAESPEAsAAAAAAADRI8QCAAAAAABA9AixAAAAAAAAED1CLAAAAAAAAESPEAsAAAAAAADRI8QCAAAAAABA9AixAAAAAAAAED1CLAAAAAAAAESPEAsAAAAAAADRI8QCAAAAAABA9AixAAAAAAAAED1CLAAAAAAAAESPEAsAAAAAAADRI8QCAAAAAABA9AixAAAAAAAAED1CLAAAAAAAAESPEAsAAAAAAADRI8QCAAAAAABA9AixAAAAAAAAED1CLAAAAAAAAESPEAsAAAAAAADRI8QCAAAAAABA9AixAAAAAAAAED1CLAAAAAAAAESPEAsAAAAAAADRI8QCAAAAAABA9AixAAAAAAAAED1CLAAAAAAAAESPEAsAAAAAAADRI8QCAAAAAABA9AixAAAAAAAAED1CLAAAAAAAAESPEAsAAAAAAADRI8QCAAAAAABA9AixAAAAAAAAEL3frBsARGQm6d66EQAAAAAA4KVfvn//bt0GAAAAAAAAYCumEwIAAAAAACB6hFgAAAAAAACIHiEWAAAAAAAAokeIBQAAAAAAgOgRYgEAAAAAACB6hFgAAAAAAACIHiEWAAAAAAAAovebdQO6LsurQtIn63bsazEZ/LLt97O8+h6qLS36vJgMik2/2dWfFQAAAAAAXUAlFgAAAAAAAKJHiAUAAAAAAIDoEWIBAAAAAAAgeoRYAAAAAAAAiB4hFgAAAAAAAKJHiAUAAAAAAIDoEWIBAAAAAAAgeoRYAAAAAAAAiB4hFgAAAAAAAKJHiAUALcvy6k2WV2+s2wEAAAAAXUKIBQDtm0p6yPJqZNwOAAAAAOgMQiwAaFGWVxeS3kk6lfRPllfXVGUBAAAAwPEIsQCgJS6smj77zx8klVlenYdvEQAAAAB0ByEWALRnKulkzX8/k/RvlldF0NYAAAAAQIcQYgFAC1amEW7zKcurB6qyAAAAAGB/hFgAcKQN0wg3oSoLAAAAAA5AiAUAx5tq/TTCbZqqrGH7zQEAAACA7iHEAoAj7DiNcJMzSUwvBAAAAIAdEGIBwIH2nEa4yYnq6YXjoxsEAAAAAB1GiAUAh5tq/2mEm3zN8uq6pWMBAAAAQOcQYgHAAbK8GunwaYSbfMjyatryMQEAAACgEwixAOAwU0/HvczyqnRTFQEAAAAADiEWAOwpy6tC0qnHU7yVRJAFAAAAACsIsQBgDy5YugpwqjMRZAEAAADAD4RYALCfQu0t5v4agiwAAAAAcAixAGBHWV4NJX0IfFqCLAAAAAAQIRYA7KMwOi9BFgAAAIDeI8QCgB24AOnCsAln8rcjIgAAAABEjxALAHZzpXBrYW3yLsurqXEbAAAAAMAEIRYA7GZs3QDnMsurELsjAgAAAEBUCLEA4BVZXl1IOrVux4q/XJsAAAAAoDcIsQDgdWPrBqwxzfLq3LoRAAAAABAKIRYAbJHl1VDSO+t2rHGiOshix0IAAAAAvUCIBQDbxTxt70xSYd0IAAAAAAiBEAsAthtbN+AVH1gfCwAAAEAfEGIBwAZuKuGZdTt2wLRCAAAAAJ1HiAUAm6VS4XQiaWrdCAAAAADwiRALADYbWTdgD++YVggAAACgywixAGCzGHcl3OaaaYUAAAAAuuo36wYAQIyyvBpZt+EAp5KuxI6F6Dm3nt3w2X+eLSaDWfDGAOi9dWPSYjIoLdoCAKkjxAKA9UbWDTjQVZZXUx7W0TfuIfFK9Vp2pxv+zFzSraRrrhEAPrkxqVA9Jp2s+X1JulM9HpUBmwYASfvl+/fv1m0AgOhkeVVKemvdjgPdLCaDsXUjgFCyvLqW9GGPv7KUVCwmg2tPTQLQU25af6H9xqR7SWPCdQB4HSEWAKyR5VXqg+N/uBlG17mHxVLS2YGHIPAF0Jojx6SlpNFiMnhotVEA0DEs7A4Az2R5dW7dhhYU1g0AfGohwJKkyyyvpq00CECvtTAmnUgqO3IPAgDeEGIBwEtduIG8dOtxAF1V6LgAq3GZ5VXRwnEA9Nutjh+TmiBreHxzAKCbCLEA4KUuhFiSNLZuAOCD2z10n/VmXvOJh0YAh8ry6krtraN5Imna0rEAoHMIsQDgpa6EWFfWDQA88dG3Cw/HBNBxKwu5t+mtC+sBAM8QYgHAS10JsU6yvBpbNwJok3tgfOfh0Jfu2ACwjwvV1VNt40UUAKxBiAUAL/m4GbVyYd0AoGWjRI8NoJt8fc6OPB0XAJL2m3UDViW6pf3nxWRQbPpNt1jsp2CtacliMvhl2+/zs4rHDj+rUu2t0xDK/WIyGFmcuIPl+++yvHqzmAy+WTcEaInPSslz1YszA8CufI1JJ1lenS8mgwdPxweAJFGJBQDdRzUWAAB+nHo8NlOcAeAZQiwAeGpk3QAPCLEAAAAAJI8QCwC67x0LVgMAAABIHSEWADzV1bBnZN0AAAAAADgGIRYAPOVz0WhLI+sGAAAAAMAxCLEAoB9G1g0AAAAAgGMQYgFAP5xZNwAAAAAAjkGIBQA9keXVyLoNAAAAAHAoQiwA6I+urvcFAAAAoAd+s24AACCYJzsvZnn1RnWw1fwqSUP3tfp3tk1FfJT0beXfv0l6cP88a74Wk8HsoBYDAAAAgEOIBQD9Mc7yaqg6pHrb0jHXBVzvnv+HLK+kOvCaqQ65HiQ9EG4BAAAA2BUhFgD0x6mkS8Pzn7mvHyFXlldLSWXztZgMHtb+TQAAAAC9R4gFALB0ojrUeidJWV7NVQdat4vJ4NawXQAAAAAiQ4gFAIhJUy126aq0ppKumXYIAAAAgN0JAQCxOpH0QdJ/s7wqs7waGbcHAAAAgCFCLABACt5K+seFWeev/mkAAAAAnUOIBQBPsbB43N5K+jfLq8K6IQAAAADCIsQCgKe+WTcAO/mU5dUDVVkAAABAfxBiAcBTM+sGYGdnqquyrqwbAgAAAMA/QiwAeGpm3QDs7S+3VtbQuiEAAAAA/CHEAoAVi8mgtG4DDvJW0gNVWQAAAEB3EWIBwEtz6wbgICeiKgsAAADoLEIsAHiJHQrT1lRlDa0bAgAAAKA9hFgA8BIhVvoeFpPBzLoRAAAAANpDiAUAL5XWDcDRCusGAAAAAGgXIRYAPMPi7sm752cIAAAAdA8hFgCs92jdAByssG4AAAAAgPYRYgHAerfWDcBBqMICAAAAOooQCwDWI8RK07V1AwAAAAD4QYgFAGssJoMHSXPrdmAv88VkQPgIAAAAdBQhFgBsVlo3AHsprBsAAAAAwB9CLADYjKlp6ZgvJoOpdSMAAAAA+EOIBQAbMKUwKYV1AwAAAAD4RYgFANtNrRuAV1GFBQAAAPQAIRYAbDe1bgBeVVg3AAAAAIB/hFgAsMViMphJurFuBzZ6pAoLAAAA6AdCLAB4XWHdAGx0Zd0AAAAAAGEQYgHAK1w11r11O/DC3WIyKK0bAQAAACAMQiwA2A0VP3FZip8JAAAA0CuEWACwg8Vk8CDWxorJtauQAwAAANAThFgAsLsr1RVAsPW4mAwK60YAAAAACOuX79+/W7cBAJKR5dW1pA/W7eixpaSRq4xDD2V5VUj65OnwnwlIAewjyyufD1N/sPYjADz1m3UDACAFWV6NVO9S+Na2Jb1XEGABAAAA/USIBQBbZHk1ljQW4VUM7haTwbV1IwAAAADYIMQCgGeyvBqqXv/qQtKpbWvgPKoOE3Eg16+Hks4lvZE0WvntXULaR0nf3D+XK79+ozquG7K8eqO6fwyffcn995NXDjGXNHP//KC6vzxImtFHuoFxBJZcVfyF6v7XjElLuXFG0u1iMri1al/M1ozvzTUsMb574cbLC9Xj5FDSmfutR9Xfy1LSdDEZfHvxl424a6zpK9LTMX6o9c9Fq+O69LN/NH2k9fGdNbEAQE8+aMb6+SGDOLAO1p7czepI9U1I8+trN6jHuld9s/IgqfS1eyRrYrUny6umf4xU9xHfoX2QPoJ2GI8jpaSHFPoIa2L55x6sp9ptjJqrDgYKj02KnvuejfQz8GN8D8SNndeSLnf440v3Z69Dh1kG9wBNEFrq5xh/0P8zIRaAXlq5OR+JiqvY/U6A9bqVIPZCcUx/fdTPt4yt/fwIsQ7nxr2mj4zkP5B4zVzSrerqidK4LVB/xpE2EWL548asQodtqPOo+gVYNFUuPjG+x8EFQ6X2//4/Shr7HOci7CNSHX42/WS2618ixALQC+6N1FA/3yhTbZWG94vJYGrdiFglVEG4VP0W/egHUUKs/Ty7aX1n3JxtWusj2E9C40jzUBxVHyHE8mPP6qtNOh1kMb7HxfXZWx0eDrU+8yChPiJJd6r7yKtTggmxACTPvfVo5vUP3dfq3H+qrNJEgLVBllfNA2fsNyTrPKounb895MGCEGs3LpgoVN+4xvC2dR9H9RHspgvjSAyfEYRY7Tqy+mqdx8VkcP76H0uHu+9t1m5lfI/AERVYzy0lnR87HTPxe4C5pKttYdaPEMvzTSEAAPsgwFrD7ZZZqBvB7EHrQBBibefeBBeKYyrYsczWCukyxpF2EWK1p6Xqq3WSH9slxvdYueD1Qe3124OD1471kXvVUyxnz3/j15V/7lRCDQBIFgHWM1lejbO8mkn6qm48eEr1m8FPkmZZXhXuJhAHyvJqlOVVKekfdePmVaKPtIpxBLHK8upNllfXqscvH33zylWmJInxPXpXarffnrmXDTvraB95K+nBVQ0/QYgFAIjFUvVb56l1Q2Lhbkpm6tZD53NPbmSN25KcLK+GHbxxfY4+coQejiNj47ZgD+4B9UHtTR9c50T11NmkML4n48rDMYtd/lBHw6tVJ5L+ft43VqcTsjgWAMDKXNJFlxf83Id7Y3ytNNeqOdZcdfl4ue43mU5Yc2+tr9TPpSC29hHUej6OeN/pq8F0wsO4MWyqcP1zvpgMhoHOdRQP64KlJKnx3U3f+8fT4Tfuzu36yLWkS0/njtGXxWRwJblKLPfNBwDAwp3qRSwJsCRleXWl+q10Hx88pbpS5J8sr6aJTy/wxt23PaifAZb0s4/c0kfWYxzRmaR/s7y6po/Ex1VfzRS2f56mMKVwZXzvY4AlpTe+j0If243vM/UrwJKkD83UwmY6YQodBADQPR8Xk8FF6ot6tmFl2sBfSm8nGR8uVU8vGFk3JBYB1o1JzTvVfeTFehl9xTjywgdJpds5DMbcGHYr6W/Z9M+hwTl3wvj+Qirju8+x5UlGw/guqa4++xFiMbADAEJ6VF0mfW3dkBisrAnSxfUMjnGi+o1s7/vJyvbdfX07v0mzXgZ9hHFkk6Yqy8e6NdiRUfVVEtz43ufqq01SGN+DFAMxvv9wmuXV+DfrVgAAemWpejvlwrohsXA3Z9y4bvfBVWTF/kbWC7dQ9bX6++Z1Fz/6yLrtuLuOcWQnf7k+Mqb6NxyDta+S4sb3r9btiFzfx/ep+jd1cJuLphJrZNkKAEAvNGtfFdYNiYGbOlCKB89dnal+C9mr6nF38/pVBFi7OFO9HffIuiGhMI7s7Z3q6YVD64b0AdVX262M73hd78Z3ScMsrx5EgPXc6NfX/wwAAEe5V73DUi/foK2zMjWs72Xh+zpRTx6GVsIJbl7300xBHVs3xDfGkYM1D8O9CsRDimDtq01m1g2QGN+P0Jvx3blUPV7hqRNCLACAL014NUplq+QQVh48uTHBWm76TSnCiWN8zfKqsG6EL4wjRztRXZHVyynKPkVcfbWM4UUa43srOj2+43Us7A4AaNNS0o2k/xBevbTy4BnTm2lEZGWBX8KJ431y03U6hXGkNc2i0SPrhnRBxNVXjVvrBjC+t6qT4zt204RYMQ40AIB0PEp6L2m4mAzGMbztjI0rfy/FZy42WAkn2F69PZddetBhHPHi1lXH4EARV1+tmlqenPHdi06N79gduxMCAA51r/rN5i2h1XbuTT+Lt2Ijqmu8uszySovJYGzdkGMwjnhzonr3z7FxO5KT0M6D95aV4YzvXnVifMdelqyJBQDY1aOkL5L+lPQ/brrgNQHWdu7m1XwaA+LldkorxQOOT0m/sWcc8e6SHQv3k0j1lVQvc2C29hnjexBJj+/YW0klFgBgnXvVN6czSSVrWx2Gt694jatkuBV9JITLLK++LSaDK+uG7INxJJgr94UtEqq+kuoAa7SYDL5ZnJzxPSgqsvrjlhALAPpjqXpB0ca3lX9/aP7d6mava3j7ites7FLFIr/hfMjy6mExGUytG7ILxpGgRtYNiJ2rvpoqjf54J2lsHGCVYnwP6TLLqzKV8R0HWUq6/Y3SWQDohPd8aMeDt6/Y0bV4wLHwNcurWewVpowjwXEtbpBg9dV4MRlYT79lfLfx1VXcWv/84UexmAy+/SppaN0SAMBRlmKtlNhMlebN61L1VNLm69G2Od2V5VUh6dK6HQfqQh+5TeBF7lRpjiPokITWvpLq6quhdYCR+PjeBVM3DRvdcr+YDK4ldicEgC6YMgUwHu7mNeab/WZaael+/bZLRYp74B9KOl/54gH7AO6h8JN1O15xr/37yBv97BtD1dOzYu0jJ6qDLLP1crZJYByR6j7yoDrgaPrJw6Y/vNI/ml9H7tdoKs2yvHoTY3+wQPXVYRIZ3+eqr9nm+p1J0rpx3oVBb/Tzum2+ToO09DDN+H7O9XywR/3sH6X7b7N1mzm5nXOlp31kqHY//x+1skEDIRYApO/augGouQ/yGG9e56qr9abbHjK3cTcuM/28mWmCrZHqG4sUHnTMue/Z1LgZ6zR95PbQaXbuYaHU0z7yRnX/iLGPnEkqFNli3gmMI+UhYcFK/5BWqofdQ3LTR0xDTx54a6x9dZiIx3ep/j411+9s17/07J5h9bptxvaR+zW2vnKq+mdhtjNlYg6+B3j255/3kZF+9pFDg897SRer1/gv/+///+9I0j8HHhAAYOtuMRnwAR0B92E9Uzw3cs000+tDg6t9uP//K0ljxf2GdpvPi8mg8HmCLK8eFFd10o3qcLP0fSLXR8aq+0lMfeTPGCo4pCjHESlsHzlX3T9MpmItJoNf9v07WV5999EW54+Qa7dRfXWcCMf3R9UvOm99h3wu+LxQfNMoPzZT0HzI8qqU9NbX8T0LfZ84VH0PMNZu9wBL1Wtgvfj5/fL9+3ffgy8AwJ+gN7jYLMurW8Vx479UfdN6bbgr01h1hUtMQcUuvIZYbopYLBU2N6pvDmcWJ3cPPFeK4+Z/qXodnRgqOWIbR6YWfWQlFL9SuEDvcTEZ7L2OTldCLKqvjhPh+B4kmHhuJagIee1us5R07mscSzTEiuE+sQk911Xx3evn7IG17SPEAoB0zReTwdC6EfjxYfy3dTskfZHbucW6IVKSYZa3EMtVmPzr49h7Mg2vnnPXzrXs+4h5VSvjyEsuzCokfQhwui+LyWDvqaWph1hUXx2P8f0loyB6k4MC6l0kFmKZh1dt+dW6AQCAgxXWDcCTBwBL95L+s5gMrmK6MVlMBlPVC3x+Nm5KDKbG539U/UA8juEBp7GYDG5dGP9Z9Q22lXcuRDLBOLLeYjL45oKl/6hun0+9W1+SnQdbMzU+f3PtRjO+u2u3UH0PcGfcnLMsr6Ja+9DAF9XXTxQvKI5FiAUAaVq6gAD2rmX3lnGper2HUSw3rs+t3Mj+rjpI6R1382y5TsrnxWRwHvPU45WHHd9BxTbXLkwyObdsx5E/Ix9HZovJYCTpo/yEnXex/r/7kOXVGzd19W/ZV8m8pumfFzE+fBuP76lcuxeS/lC9eLiVwk117Ju56hdY0bycaAMhFgCkqXdvjGPkdhGzWsT0UfU6D0n0hcVk8ODK+b9YtyWklelQFuaSfve9WH1bVoIKq8q9UxnsVGg8jtyrHkdirG55wY1352o3EF8qsh0qfaL6qj3G4/u9Iv7ePOdeolhWZZ2ofzMYblSP76V1Q9pGiAUA6WnmtMNeYXTeG0nRvnndxk0Nem/djoAK2VQ63Km+eQ2+sO+xXOj2p2ymF34yeFtfBD5f40vMFRybuLDzXPU42IZopmD5lFj11VwRV1+tKGTzvfzsrt2YvzcvuMrsC9UVlRYu3UuDPnjvppcm1Ud21YRYlmsQAAD2s3G3DoTj3mZbLOb5MfUbEzcV9nd1/P7DhSEhFqR+7iaBh7+tXHXBSDZ9pAh1IsNx5P0hi5jHZDEZjHV8IP4+lUqWYyRWffVFCVQHGo3vS9V9tgh83la5iso/1PHx3chSdQX21LohPjUhVnJv6QCgx6jCioPFz+F9KtMHX+MqhEbqdpBVGJzzvXu4T57rI0OFX0vtMmA1VujruXkIngY+rxcrgfi+a+0068RM225TTLK8GiZWfZXS2j1F4PMtVVdgTwOf1ws3xW2k8PcAbztcjdX0kc5nO0wnBIC03PRh2kPssrwaq14/J6TOPHg2uhxkuRAk9DpHXewj31T3kdBBVuH7BEbjyEUH+8iD2+HyvV7vJ3PVU5k6uU7MKrfg+IPSqr4qrRuyC4PxvZPhhOE9QBH4fCF0so9sQogFAGkprBsASeEXAe5cONHocJBVBD7flw73kSbICtlHQlRjWYwjZeBzBrOYDKZuraz/UT1V6aPqTQI+un//z2IyGC4mg+tEKn0O4qqvSkl/ieorX4qA5+p0OGF0D9C1aqxO95F1fnO/PshmPj4AYHdUYUXA3fiE3E67s+FEYzEZPLjv67/WbWmD27Eq5Fv6m9TXN3rNYjL45vpIqXAP5lfyFDQZjCMfuz6ONFwYUrqvXnHVV4XiD6+kuvqqSCy8shjfx10PJ4zuAcbqzhjRqwBL+lmJldTgAQA9VVg3AJLCVk/cdz2caLgbsK7sWhjyZ/YY+HxmXB8ZBzzl2D2w+hDyZ3bTlbX0sB7VV0GFvHY/xr7AfVsM7gFCrn3o0/u+BVgS0wkBIBVUYUXA3fCEWl9kKeki0Lmi4CpFbqzb0YJxoPMsVa9xlOKD4EHcA93nQKc7kYdrMPA40puQs69W1r5KYVZNUmtfbTAOdJ67voXP7h7gS8BTjgOey4ebvlTYPteEWKVlIwAAryqsGwBJYUOlXoUTK64UfhHv1rit7EMt1j3uY7jttpe/D3Q6HwFQqHFkqbqP9HEc6Tyqr8ILOL7PlX7AchBXfR7qHmAc6Dw+9PoFBZVYABA/qrDiEeqG4Uvib6oP5h5wxtbtOEKogOKuL9NMNhgrzELAZx6mnIQaR4o+TjPpA6qvzIQa3/sePo8DnefUBZMp6nUfaUIsPuAAIF6FdQMgZXl1rnBvYIsA54mWe/AOOaWgTSFuiJfq8RtYSXLBfqipNq39TAOOI499m4rUB1RfmQsxvt91JPA7mLsHCDVtPMUQ60vfX1D8Kv146wkAiA9VWPEIdaOT3G5NnhQKu+X20dwb3RAPlteMCz+mFc4DnGrc4rFCjSO9Djm7iOorW4HG996/oGgEHN9TC7GW6vmLTunpdMIQnQQAsJ/CugH4IcSNzn1fF+l8zgV5qd3Mh+gjc3dzj9o4wDnanFIYoo/cdCk86Duqr6IR4trlBcVT4wDnOMnyahTgPG3p4rW1t9UQa2bVCADAWl+4mYmDe4A9C3CqIsA5kuECvZReso0CnKMIcI5kuLAmxCLvo2MPwDiCA4xF9VUsRp6Pv1S4KdJJCDi+p1KNNedFZ201xOr1vEoAiAzlwnEZBTjHfYdv/o9RWDdgF4HWOuIGdr0iwDnaeMgZtXCM1zAFvVsuRfWVuUDj+3VXv39HChHsjQKcow2FdQNisRpicdEAQDy4mYnLKMA5pgHOkRwX2qSwNtYowDl4S7+GC399V+yNIjnGa4oA5wAaXa++aowCnGMa4BzJcbvw+h7fz7K8euP5HMda8hLrp9UQq7RqBADgibl4WI3NuefjU2GzXQrXg+8+shQPOdsUno9/4qoxjuG7j9xRhYVAOl999QzXrq0Q9wC+f8bHSuE+KBgqsQAgPuxOFxH3ds73Oja3no+fuql1A3Yw8nz8W8aFrUJcQwc/5AQaR6aejw9I/am+WjXyfPyp5+OnbhrgHKMA5zjG1LoBMfkRYi0mA9bEAgB7j1TkRCfE2znesG3h3lA/WrfjFb7XSyHo3MIFfDeeT3PMWOC9Us9NuwF86Vv11Sqf4zvX7itcf7vzfJqR5+Mf45FKvad+e/bvjwqzawoAYL0r6wbgBd8Pn9yc7Gaqeov56ATYnpuHnN3cql4I25eYQyz6B3z6op5WiQcY3x8CnKMLZp6PP/R8/GNMrRsQm+ch1kyEWABg5a5n5fmpGHo+fun5+F1xq0hDLBFQxKL0fPxjfs7DthqxAX0EviwlTfsYYDm+x/e3kv7xfA68znc19TEY35/59dm/M6UQAGwsRRVWrAgoIuCq1XzvUHQo37salZ6P3wnuIfve4ylOjtjByvc4Uno+PvrrRFKZ5dXQuiFGYt+1Di2JtCJuTrX+S89DrNKiEQAAXfMhFa2hz4NTfbeX0roBG4w8H7/0fPwuKT0f/9AwathmI5557HGVDMI4kXR7RIibspF1AxBMjP27tG5AjKjEAgB7c7Gwd8x8lpjHvlh5bPp4n7Ik4N6L7z5y6EOOz3Gkj9cFwjsTlcPothAb+eyL8X2NJyGWe4sTa6k+AHRVH3f6SUKAt87cnOwn1u+XzxvfWP+fY+X7+7X3z5pxBB3yNsurqXUjAosx2EB/ML6v8bwSS+IbBQAh3bHrWNR837zOPB+/UyKeenni8dilx2N3TqRVa77HEe7dEdJllleFdSMC8ubyOuIAABqMSURBVDm+Iy4j6waswfi+BiEWANhhMXfwmQu0z+fi7kOPxz7UzLoB6J1PWV6NrRsBdB0zNdZbF2KVoRsBAD3FYu7g5mR/PgOKvQXYsav0fHzsZ2jdgOf4HIGRr1ledXqqXY93ZEQcorrficmLECviUn0A6JLHxWRQWDcCr/K9lg0hVvqG1g3ACzPrBjwT445XQBvKjgdZQ+sGAHhpXSWWxG5JAODb2LoB2InXm/PFZMB0QqB9M+sGPONzHGFDJlg6kXQbYPMCIIS31g3AbjaFWGXIRgBAz3whvAAAtGBm3QD03qnqiiyCLABBEGIBQFhzSYV1IwAAAFpyJunauhFAx8ysGxArQiwACGvMTiMAAKBjLrO8mlo3AuiQmXUDYrU2xHIPWKyLBQDt+sLmGQCAFg2tG4CoLCV9dL9auMzyamx0buBY7AaYiE2VWJJ0G6wVANB9TCNMk9e1yzq+qxNgJbbryuc4curx2EjLnaThYjK4ljQybMfXLK8uDM8PHIqZEonYFmKVoRoBAD3ANMI0+f6ZsRBu+mbWDcALsV1XjP3waSnpz8VkcNHcZ7jNY94btmnakZc0M+sGIKjSugHYzcYQy015sSpFBYAu+cw0QmwQ28N2CqLaAnsxGcw8n2Lk+fhd1KvrKsuroXUbYOZedfXVixk0i8lgKulz8BbVTlTvWDg0On8rAozviAsz0RKxrRJLIo0EgGM9LiaDwroRiFYX3lQHE2AL9xgrZnoVyLTkzOOxS4/HPtTQugEIbinp42IyGG2r8nb3HzfBWvXUiaTbAOM20IYbQst0vBZikUYCwOGWksbWjcBRvK6JJR4+9+U79Dv05+2zcp2gcw+RVn74HkfoI/1yL+ncrX31qsVkMJbdgtVnSv95kplJ3bcU69YmhRALAPwp3LoUSFSAdcx4+NxPrN8vn9d5rP/PsfL9/dp7TAgwjgw9Hx9xWK2+mu35dy9kt/P82yyvpkbnbgP3cd03pgorLVtDLPehy1aTALC/u13fkiJ6c4/H9jntqYtircTy6STS6qJYjTwf/9A+4nMcIejsvr2qr55zz3Qj2VUVXWZ5VRidG9jm/bo15RC31yqxJKqxAGBfczGNsEtmPg+e5dXI5/E7ZuTz4EdUzJRttmONkefjd8nI8/EP7SOzNhvxTFSbHaBVx1RfPRFBkPUpy6ux0bmPUVo3AF7MJf3hNkBAYgixAKB94wDTRxCO7+qcC8/H7wRXjXTq8RTHVJ7P2mrEBiPPx+8Et4C01+rGI6aIex1HsrxiHOmmcZtV3a7/WvaVr1lepVY5OLNuAFo1V71r5zk7h6frt9f+wGIymGV59SimPADALj7zodg5M8/HH3k+flf4fvCaGf3dXRBQ7Mb39+mYNYVmbTVig5F48dxFrb8QW0wGZZZX7yV9bfvYOyqzvBoltGbozPPxl4pzKntXPKi+jr5JKhPqd9ji1RDLmUr6y2M7AKAL7t121ugW3zc8Z1leDVlU9FVjz8efHfoX3UNhi0154STLqwvW7XhVzEFniIrOK8/nQEcsJoOpq4j6YHD6E0m3WV6dp1C1HmJ8l3SRwvcCiMUu0wmlOsQCAGw2F9USnRSoso6Hzy3cVELfFeHlkX/f985fjC9buKmE7zyf5uAgKsA4csr6etjHYjK4knRjdPpT1RVZb4zOvy/GdyAiO4VYLhm+89wWAEgZb9G6jRtYW+MA5zi2UsZ7pU1CD3wWQlxD5ZF/3/c4MvZ8fHTMYjIYy3+/3ORMUiq7OPse33mRBexh10osiXn2ALDJe+bYd17p+finie7aFIrvG/zHFkLoso2GbHEiQoptCt8naKGa6ti//5pLgk4cYCS7IOsyy6up0bn3UXo+/pmrOAawg51DLLf9pNWWrAAQqxu25+2FMsA5xgHOkRwX7p14Pk0ZyTFew9v6Ndw0Op87V0rtPOSXLRzjNfQR7MUF+Beye867TOAlThngHEWAcwCdsE8llkQ1FgCsenSl+Oi+MsA53rKmzVpFgHOUxx7ALcw/P7ol21Gxt14R4Bxt3AOXLRzjNVdUY2FfbvwayS7I+prlVbTT6gON75dUYwG72TfESmXeMgD4tlR9w4cecG+qQ0y3KAKcIxkusPFdYSO1Fy6EeNlXBDhHMlzw+zbAqcpjDxBoHDkR1Vg4gFsWwbLvNDsmxorxHYjEXiGWG9ys5kwDQCyWkkYs5N470wDneBvz2+iQXDVJiJdndy1ey2VLx9nmNMsrQoqfpgHOsWxxd8FpS8fZ5hMVHTiEWx7hvdHpT1TvWDg0Ov9rygDnoBoL2MG+lVgS1VgAcMVC7r0Uakr9NdOBJNVvpH2vhSW1+HNdTAa3CjMdp6CPSFleFQpTqdfmtR9sHAl0HnSMC7JujE5/Iuk2xvEt4Pg+DXAOIGl7h1gs8A6g5z6zkHs/uTUxQlQjn6rnUwrclJIPgU7XdqgQIqQ4Uc8fdFy1QqiKtDaDzpnCjCPvqOrEodx6n1ZB1pniXYc5RLuoyAZecUgllsTbHQD9dLOYDArrRsDUNNB5PvR1kXf3Bn4a6HRtTiVsTFs+3iZ9DymmClOpN3cVGG2atny8jeeJsaIFybiS3TIyb7O8mhqde5tpqPNw7QKbHRpiTdtsBAAk4J6dCKGwn399vYm9Vv0mPoTW36q7tZN872LVmPZx/RQ3jTDEYu6Sn8qLqYdjrnOieCtaEDkX8I9kF2Rdums9GgHHd65dYIuDQixXCm1VYgoAoT1K6nPFAxx3Ux/q8+9UPXtp5HYjvAx0uqXHqcGhKtZ796Djqs8+BTxl6z/LwOPI29iCAKTD9dWx7JaS+eQ+F2ISanx/m+UVs5+ANQ6txJJ6vl4HgN5gJ0I8Nw14rnd9uYl162B9DXhKn9/XqcI99J1FOu2mda6PTAOe8s69uPVh6um468QYBCARbiObkWETvrprPxZThRvfP3DtAi8dHGK5D/X79poCANEhwMILbjpByM+/zt/EugeUMvBpvYVYbsyY+jr+GtFNu2mbm1pbKsw6WA2ffaRU2HHkOrIgAAlxQdZ7wyaUsfRfg/H9a8/XPwRe+O3Iv19I+qeFdgBAbJoA68G6IYhSobCff1+zvFIXd8ZcCbBChhM3AcLpa4XbYVGqq21mHe0jFgHWvQuafCoUbhw5UR0EdPZzza0Pd6G6auhc9ZTsxqOkB0m3Hhbq74XFZNCs0/iXwelPJN1meXUeyYvF0OP7tMvXrvTjXqC5flfN9PPanYVtFWJ1zHRCi7dIABDKuMs3CziO0eff165VZBkFWFKAJRGM1g/tYh9pAqxQi/03Ct8nMBhHmiArioqWtmR59cZNqf2v6oDlnZ4GWFLdfy4l/Z3l1YzKlsMsJoNr2a2LfKq6/5pveGIwvnfy2pXqtTCzvJpJ+lf1eodvn31dqr6u/5vlVS83M8FLR4VYTtHCMQAgJu95U4sdFAbn/Jrl1ZXBeVtnGGDdBHybWwQ6z6qvXVkjy/WRmcIHWCGqsBpFoPM0mofhToQ47v9jpv02hDhVHWZNfbSp69xOzXdGpz9TuIXVX1MEPt+JpH+78qLChc+l6rUwn4fOm1xKeujK9wCHOzrEohoLQMe87+J0HLTP8PPvr9QfvtwN6L8KH2AtJQULAV1Y9jnU+VZcZnl1G0PFwqFcOFEqfB+RAj6cGo0jJ6pDnKQDcTeO/K3D+8hl6mOpobHqKZoWovi5GY7vyb/MWnmJ9faAv36iDlYdYz9tVGJJVGMB6AYCLOzL6kbyMsurhxTL6t1uiyF3IVx1bbCeyrVstqd/p0Snn7hF6o8JJ45xF7AKq2E1jvyVYti5Mn2wjXHksi87wLbJjaMjSXOjJlxGEmJYje9JXrvSkxcUx1bYsuB9j7USYrkPe6uyUgBoAwEW9ubWTftidPoz1WX1SdzEZXl1nuXVg8IuhrtqvpgMitAndQ97ViHFmeogK4m39lleDd30kk9GTQhaqdcwHkfeqR5HRkbn38tKBcc+0wdf8yGV//+YuLHtQjYhjhRBiGE8vid17Uo/XmK1+YJimmKQh+O1VYkl2V3AAHAsAiwco5DdTXwzLaiMtSrLVU0UqqcPhl7baNXY6sRufLFaeuFE9Vv7qKuyXB950GHTS9pybbj7VSG7ceRU0j9u0eRoHwg9jyOFh2N2ngtgLYOkqfW4Zjy+N9fudeTXrq+XWCeKZ400BNRaiGW0Cw8AHIsAC0dxb2LHxs14q3rnniKmG1k33eNBdpU1jRuDKWLPjWUXUkh1H/k3tqAiy6sLtzPVJ9lMH2w8WlTqNSIZRy4lzSIcR1b7iC9vY30REDs3tr43On2zUcHQ6PyNsWzH9w9y165hG15Ymfrr8yVWEtXoaFeblVhSXY1leQEDwD4IsNAKt5tlDNPqPymCh9CVLbP32XXIl7kiqBZ3L/sK42ZIT4OKoVUjXDBRqp5aYt1HJPsAKZZx5ETxjCOjwH2Eh+EDuXspi0XOpbrPmq4PFcn4fiLpU5ZXM/cZbHntNhXYM7U79XedE+tppQiv1RDLvUWipA9ACgiw0Lax7Ba5XbX6EBpsqoVbz6iIKLxqjA0Wc19rMRlcK44dnZs+8l/XR0YhTuoebK5cH/lbtlMHV31006JiMFZ848h1qMDT9ZGxm3r0j8L2kVHAc3WOq2S0mpVzJunW6NySohrfT1V/Bge9dqUf0wanqsOrkNW10U6Vhx+/fP/+vfWDupuTWG5eAeA5Aix44cKAf6zbscaj6hv82zYf1t3N8YX7iiWQWPXZcorYOu7t+Ey2U+fWmavuI1MPfWSkuo+8a+u4LbpbTAZRvcWPfByZSipb7iNvVPePkfvV6tq4X0wGo33/UpZX7T9M/fRHBFOh9+Kq56w+D24Wk8HY6Nwxj+/NtXvb9rp/7kXZSHUAb7Xupdk47rm/R3cPEwtfIdZIcX74AgABFrxyO8H9Zd2OLZaqd/d6cF+zXR5IXRgxVH2z2vwa8wurgx5IQ0jgPmmpum+U7tdvuzxIr/SRc/c1Utx9ZC7pPJZKvVU9GEfO9XMcsdzwYRUhVgtckFPK7udq+uCfwPg+19Nr92HXMfDZfUAzxscQ2Jl93hNi2fASYklSlle3ivONG4D+IsBCEK6c3vc6ED404UVjqLhDiE2iDScaCYQUmzzvI28UTwixj6WkUUTTCF/o0DiSSh8hxGqJCzseZBdwmN7vJTq+z1VXka1zrjjCqk0IsXqm7YXdV43FIu8A4rCU9DsBFgK6Ul2+n5oT1TdjzVeKAdZS0kXMAZb0Y/2UFHd1ft5HUggn1rmKOcByujKOpNpHcCA3ZW0ku2fBr6HWg1wn0fH9VE+v29WvmAMsSYr68x7t8xZiuZvHwtfxAWBH0b9tR/e4z8CReJlj4SKh6z3VkCJ1H1N4qcE4Elxp3YAucePw2LAJpWWQJcb3kFL5zEdLfFZixbRLA4B+ehQBFozwAGrifUpTb1b6CA864dy4+9MkMI4Exb1CyxaTwa2k90anP5F069boCo7xPSiu3Z7xGmI5Y/HBCyA8AiyYc/1vJD4HQ0hyzTtCiqBMdy47FONIEHMXuKBlblz+YnT6U9W7rppgfA9iybXbP95DLDcnuvB9HgBYcaM6wGKOPMy5B1CTrZ97JMkAq8GDThBJBlgNxhHvCusGdNliMriS3RpRb91C6yYY370jwOqhEJVYzbTCuxDnAtB7XxaTwZgACzFxU9zei5tYH5IOsBpU23iVdIDVYBzx5rELY0js3DVoNbWusJpWKDG+e7RUvfYYeiZIiOWMxYULwK/37m0fEB33kDQSn4Vt6kSA1Vh50JkbN6VLOhFgNRhHWreU7eLjfTOSTZB1IuNKRsZ3L654ad1PwUIs18Eogwbgw1LS7116mEU38Ta2VZ0KsBquj5yLxYDb8LlLAVaDcaQ1S6W1m2ny3PPgWDZ9d2xwzicY31t108V7AOwmZCVWUwb9OeQ5AXTeo6RzbkKRipUHUG5iD9P50HplDRV2eD7c+8VkUFg3whfGkaMtVa+dWVo3pG8MQ9i3gc+3FuN7K9538QUFdhc0xJIkd0PBRQugDc0C7jPrhgD7WLmJ5/NwP73ZdXQxGXxbTAYj2S2GnKqlpD+6HHI2GEcOxssvY+57H3z5hyyvzkOfcx3G94MtJf3Zh/Ed2wUPsZwLUQIN4DgfWcAdKVu5ibXaejw1d+pJgLXKvW1+b92ORDThRGndkFAYR/bGy69IuCAi9Nhmtrj7Oozve2leYrEbIWxCrJUySgDYV/OW/dq6IUAb3GYEf4qXO9t8XEwGF30Nrd3D3u9iQeBtviwmg/O+hhOMIzvh5Vdk3NjW62okxvedNOFzr15iYTOrSqymjJTkGcA+7iUN+/SWHf3g3iyei2lBzz2qXv+q96H1yoLAvX7gW6OZXtL7nWkZRzZiHImYq0a6C3S6KANMxveNmvGd8BlPmIVYEuk7gL18XkwGIz7E0FWLyWDmpgV9FNUUUn3Ns27NCjd1bKy64oa39vWD75DpJT8xjrwQYhzxubj+zOOxYzJWgE0KYv48YXx/4U719PDYx/fS47F55tnANMSSfqTvvDECsEkzfbCwbggQgqsWOFe4N9OxuVddNVFYNyRWKxU3fV0Haa767Xxvp5i+hnEk6DhSejruvC/TY1eWmvEZ3iRxLTC+PxnfZ9aN2YHPYLT0eOykmYdYzoXYIhjAS0wfRC+5aooLSX+oP29k56q3zWbdix24t/ZXqtdS6cvLwKWkz0rj7bw5xpFg44ivvtirPu6CLJ+bfyXz/WR8T2p8Lz0dd8690Ga/fP/+3boNkqQsr4aqk8wT46YAiMNH1q8AallejSUVkk5tW+LFUtK1pGuqag6X5dVIdR95a9sSb75IKugjh2Mc8SfLq5na/77+J5FKlFZleXUu6d+WDztfTAbDlo8ZTA/G9xvV4/vMuiGHyPJqKumy5cN+piJ9s2hCLOnHoFWKIAvos0dJY94+AC917CF0LmkqwqtWdexhZ6mffWRm25TuYBxpn7vu/mnxkF/6vFmB66NfWzzkn4lV96zVwfH9VgmHV40sr96oXr+urQxjrroijXujDaIKsSSCLKDneNMO7CDLqwvVC+G+M27KIe4lTd3mLvDE3U9dqf23wyHMVVfVTPk88CfxceRRdXA1tW5II8ura0kfWjjUo6Teb2ST5dWVpL9aONSNW4O5Mzowvk/VsRdYbjz9u6XD/c7L/O2iC7EkL+k7gLjNVVdfldYNAVLipuI3D6Jnpo3Zbq76jSsVNYG5N8QXqh94Yu4jzVv5KZ8FYTGOtKeFaUUEWCta+H52LsBaxfgel5YyjPcxhfOxijLEkgiygB6h+gpowcqD6IXimGrwqLqyesobxTi4PjJS3UdiqL5pQomyC1N9uoBx5HhHVGQRYK1xxPezV2sKRTq+l5Ju+zS+H5FhLCVdEWDtJtoQSyLIAjqO6ivAE/d2dqR6m+7mV9/T9O9Vb9BSqg4leBCLnFtfZaS6f5zL/xpJj3raR2aez4cjMI4czl1bU+12TS1VV5cVHpuUtD3XgrpX/XK09Nik6DG+23HTPa+1+4uAe9UBVhJBfQyiDrEkgiygoz6rY3Phgdi5t7RD1TezzcNpY5cbrUdJzTVbrvz6jRuvbnChRfPA82blV2m3AGOuenFbqX6Y+eZ+ndFHuoFxZD9unZwL1d+v1eleS7mHfbH2285cONB8P9+s/NY3/az6mYVvWfw8ju/f+h4YbuKCxLHqcfJ5iNhUqnV6iqUv0YdYEkEW0CG8aQAAAAAAHCSJEEv6kWTeil0LgRQtVZd2X1s3BAAAAACQpmRCLOlHCWkpgiwgJTeqq68olQcAAAAAHCypEEv6EWTdyv/idACO86g6vCqtGwIAAAAASF9yIZb0Y2G6Uk8XSAQQB7aIBQAAAAC07lfrBhzCTUsaSbozbgqApz5LGhJgAQAAAADalmQl1qosr64lfbBuB9BzN6oXbp9ZNwQAAAAA0E3Jh1iSlOXVWNK1WPAdCO1edXhVWjcEAAAAANBtnQixpB8Lvk/FOllACIRXAAAAAICgOhNiST8WfJ9KemfcFKCr5qrDq6l1QwAAAAAA/dKpEKuR5dWVpEJMLwTaQngFAAAAADDVyRBLYnoh0BLCKwAAAABAFDobYjWyvCokfbJuB5CYe0nXi8ng1rohAAAAAABIPQixJCnLq5HqqqxT25YA0WPBdgAAAABAlHoRYkk/Fn2/ElVZwDo3qsOrmXVDAAAAAABYpzchVsOtlXUt6a11WwBjS9XXwvViMvhm3RgAAAAAALbpXYjVYAdD9Nij6uBqat0QAAAAAAB21dsQS/oxxbCQ9MG4KUAIN6rDqwfrhgAAAAAAsK9eh1iNLK+Gqhd+Z4ohumauesrglCmDAAAAAICUEWKtcLsYFiLMQtqWkm5F1RUAAAAAoEMIsdbI8upCdfXKqXVbgD3cSbplrSsAAAAAQBcRYm2R5dVYdWUWYRZi9ah6KuztYjKY2TYFAAAAAAB/CLF2wDRDRIbgCgAAAADQO4RYe3Bh1ljSpW1L0ENNcFWyzhUAAAAAoI8IsQ7gdjMcS7qSdGLaGHQZFVcAAAAAADiEWEdy62aNxVRDHG8pqVS9s+DtYjL4ZtscAAAAAADiQYjVEleddSXpQiwEj909ygVXi8mgtG0KAAAAAADxIsTyIMurC9Vh1oWYboin5qpDq1JUWwEAAAAAsDNCLM8ItHpvNbQqWdsKAAAAAIDDEGIF5AKtkZhy2GXN9MAHEVoBAAAAANAaQiwjbg2tJtR6Z9oYHGquOqxqAqvStjkAAAAAAHQXIVYksrwaqQ60RmKnwxg9CawkPbCeFQAAAAAA4RBiRcqFWueqQ61zMf0wlKV+hlUz1WFVadkgAAAAAABAiJWMLK/e6GmoNZR0Ztik1N1L+qafYdVMVFcBAAAAABAtQqzEuYqtofs6l/RGTEeU6gXWm5Dqya8EVQAAAAAApIcQq6NWKreaX6W6ikuqA68UpyfOVVdMST+rp6SfAdW3xWTwELxVAAAAAADAO0Ksnsvyqgm6pKeBV2PovtpWrvlvTcXUD6xHBQAAAAAAJOn/APTzekXw9ZjjAAAAAElFTkSuQmCC;" vertex="1" parent="1">
          <mxGeometry x="185.45" y="620" width="116.6" height="30" as="geometry" />
        </mxCell>
        <mxCell id="LsWn8GA2UwA5rAKpBynm-38" value="" style="rounded=1;whiteSpace=wrap;html=1;fillColor=none;dashed=1;" vertex="1" parent="1">
          <mxGeometry x="570" y="440" width="80" height="170" as="geometry" />
        </mxCell>
        <mxCell id="LsWn8GA2UwA5rAKpBynm-39" value="&lt;div&gt;&lt;b&gt;Other&lt;/b&gt;&lt;/div&gt;&lt;div&gt;&lt;b&gt;containers&lt;br&gt;&lt;/b&gt;&lt;/div&gt;" style="text;html=1;strokeColor=none;fillColor=none;align=center;verticalAlign=middle;whiteSpace=wrap;rounded=0;strokeWidth=2;" vertex="1" parent="1">
          <mxGeometry x="565" y="510" width="90" height="30" as="geometry" />
        </mxCell>
        <mxCell id="LsWn8GA2UwA5rAKpBynm-41" value="Requests" style="text;html=1;strokeColor=none;fillColor=none;align=center;verticalAlign=middle;whiteSpace=wrap;rounded=0;" vertex="1" parent="1">
          <mxGeometry x="353.75" y="520" width="60" height="30" as="geometry" />
        </mxCell>
        <mxCell id="LsWn8GA2UwA5rAKpBynm-43" style="edgeStyle=orthogonalEdgeStyle;rounded=0;orthogonalLoop=1;jettySize=auto;html=1;" edge="1" parent="1" source="LsWn8GA2UwA5rAKpBynm-8" target="LsWn8GA2UwA5rAKpBynm-4">
          <mxGeometry relative="1" as="geometry" />
        </mxCell>
        <mxCell id="LsWn8GA2UwA5rAKpBynm-44" style="edgeStyle=orthogonalEdgeStyle;rounded=0;orthogonalLoop=1;jettySize=auto;html=1;entryX=0;entryY=0.5;entryDx=0;entryDy=0;" edge="1" parent="1" source="LsWn8GA2UwA5rAKpBynm-5" target="LsWn8GA2UwA5rAKpBynm-9">
          <mxGeometry relative="1" as="geometry" />
        </mxCell>
        <mxCell id="LsWn8GA2UwA5rAKpBynm-46" value="Data" style="text;html=1;strokeColor=none;fillColor=none;align=center;verticalAlign=middle;whiteSpace=wrap;rounded=0;" vertex="1" parent="1">
          <mxGeometry x="353.75" y="550" width="60" height="30" as="geometry" />
        </mxCell>
        <mxCell id="LsWn8GA2UwA5rAKpBynm-47" value="" style="rounded=1;whiteSpace=wrap;html=1;fillColor=none;dashed=1;" vertex="1" parent="1">
          <mxGeometry x="185.45" y="440" width="374.55" height="170" as="geometry" />
        </mxCell>
        <mxCell id="LsWn8GA2UwA5rAKpBynm-48" value="" style="rounded=0;whiteSpace=wrap;html=1;fillColor=none;" vertex="1" parent="1">
          <mxGeometry x="170" y="430" width="500" height="230" as="geometry" />
        </mxCell>
      </root>
    </mxGraphModel>
  </diagram>
  <diagram id="kB1_WKl3K1eF4n8UjZJW" name="Page-2">
    <mxGraphModel dx="900" dy="848" grid="1" gridSize="10" guides="1" tooltips="1" connect="1" arrows="1" fold="1" page="1" pageScale="1" pageWidth="850" pageHeight="1100" math="0" shadow="0">
      <root>
        <mxCell id="0" />
        <mxCell id="1" parent="0" />
      </root>
    </mxGraphModel>
  </diagram>
</mxfile>
